%TF.GenerationSoftware,KiCad,Pcbnew,(5.1.9)-1*%
%TF.CreationDate,2021-01-14T19:29:22+00:00*%
%TF.ProjectId,Nokia_3310_Controller,4e6f6b69-615f-4333-9331-305f436f6e74,rev?*%
%TF.SameCoordinates,Original*%
%TF.FileFunction,Legend,Top*%
%TF.FilePolarity,Positive*%
%FSLAX46Y46*%
G04 Gerber Fmt 4.6, Leading zero omitted, Abs format (unit mm)*
G04 Created by KiCad (PCBNEW (5.1.9)-1) date 2021-01-14 19:29:22*
%MOMM*%
%LPD*%
G01*
G04 APERTURE LIST*
%ADD10C,0.150000*%
G04 APERTURE END LIST*
%TO.C,SW10*%
D10*
X166190476Y-137404761D02*
X166333333Y-137452380D01*
X166571428Y-137452380D01*
X166666666Y-137404761D01*
X166714285Y-137357142D01*
X166761904Y-137261904D01*
X166761904Y-137166666D01*
X166714285Y-137071428D01*
X166666666Y-137023809D01*
X166571428Y-136976190D01*
X166380952Y-136928571D01*
X166285714Y-136880952D01*
X166238095Y-136833333D01*
X166190476Y-136738095D01*
X166190476Y-136642857D01*
X166238095Y-136547619D01*
X166285714Y-136500000D01*
X166380952Y-136452380D01*
X166619047Y-136452380D01*
X166761904Y-136500000D01*
X167095238Y-136452380D02*
X167333333Y-137452380D01*
X167523809Y-136738095D01*
X167714285Y-137452380D01*
X167952380Y-136452380D01*
X168857142Y-137452380D02*
X168285714Y-137452380D01*
X168571428Y-137452380D02*
X168571428Y-136452380D01*
X168476190Y-136595238D01*
X168380952Y-136690476D01*
X168285714Y-136738095D01*
X169476190Y-136452380D02*
X169571428Y-136452380D01*
X169666666Y-136500000D01*
X169714285Y-136547619D01*
X169761904Y-136642857D01*
X169809523Y-136833333D01*
X169809523Y-137071428D01*
X169761904Y-137261904D01*
X169714285Y-137357142D01*
X169666666Y-137404761D01*
X169571428Y-137452380D01*
X169476190Y-137452380D01*
X169380952Y-137404761D01*
X169333333Y-137357142D01*
X169285714Y-137261904D01*
X169238095Y-137071428D01*
X169238095Y-136833333D01*
X169285714Y-136642857D01*
X169333333Y-136547619D01*
X169380952Y-136500000D01*
X169476190Y-136452380D01*
%TO.C,SW1*%
X141916666Y-118104761D02*
X142059523Y-118152380D01*
X142297619Y-118152380D01*
X142392857Y-118104761D01*
X142440476Y-118057142D01*
X142488095Y-117961904D01*
X142488095Y-117866666D01*
X142440476Y-117771428D01*
X142392857Y-117723809D01*
X142297619Y-117676190D01*
X142107142Y-117628571D01*
X142011904Y-117580952D01*
X141964285Y-117533333D01*
X141916666Y-117438095D01*
X141916666Y-117342857D01*
X141964285Y-117247619D01*
X142011904Y-117200000D01*
X142107142Y-117152380D01*
X142345238Y-117152380D01*
X142488095Y-117200000D01*
X142821428Y-117152380D02*
X143059523Y-118152380D01*
X143250000Y-117438095D01*
X143440476Y-118152380D01*
X143678571Y-117152380D01*
X144583333Y-118152380D02*
X144011904Y-118152380D01*
X144297619Y-118152380D02*
X144297619Y-117152380D01*
X144202380Y-117295238D01*
X144107142Y-117390476D01*
X144011904Y-117438095D01*
%TO.C,SW2*%
X154166666Y-114404761D02*
X154309523Y-114452380D01*
X154547619Y-114452380D01*
X154642857Y-114404761D01*
X154690476Y-114357142D01*
X154738095Y-114261904D01*
X154738095Y-114166666D01*
X154690476Y-114071428D01*
X154642857Y-114023809D01*
X154547619Y-113976190D01*
X154357142Y-113928571D01*
X154261904Y-113880952D01*
X154214285Y-113833333D01*
X154166666Y-113738095D01*
X154166666Y-113642857D01*
X154214285Y-113547619D01*
X154261904Y-113500000D01*
X154357142Y-113452380D01*
X154595238Y-113452380D01*
X154738095Y-113500000D01*
X155071428Y-113452380D02*
X155309523Y-114452380D01*
X155500000Y-113738095D01*
X155690476Y-114452380D01*
X155928571Y-113452380D01*
X156261904Y-113547619D02*
X156309523Y-113500000D01*
X156404761Y-113452380D01*
X156642857Y-113452380D01*
X156738095Y-113500000D01*
X156785714Y-113547619D01*
X156833333Y-113642857D01*
X156833333Y-113738095D01*
X156785714Y-113880952D01*
X156214285Y-114452380D01*
X156833333Y-114452380D01*
%TO.C,SW3*%
X167466666Y-116654761D02*
X167609523Y-116702380D01*
X167847619Y-116702380D01*
X167942857Y-116654761D01*
X167990476Y-116607142D01*
X168038095Y-116511904D01*
X168038095Y-116416666D01*
X167990476Y-116321428D01*
X167942857Y-116273809D01*
X167847619Y-116226190D01*
X167657142Y-116178571D01*
X167561904Y-116130952D01*
X167514285Y-116083333D01*
X167466666Y-115988095D01*
X167466666Y-115892857D01*
X167514285Y-115797619D01*
X167561904Y-115750000D01*
X167657142Y-115702380D01*
X167895238Y-115702380D01*
X168038095Y-115750000D01*
X168371428Y-115702380D02*
X168609523Y-116702380D01*
X168800000Y-115988095D01*
X168990476Y-116702380D01*
X169228571Y-115702380D01*
X169514285Y-115702380D02*
X170133333Y-115702380D01*
X169800000Y-116083333D01*
X169942857Y-116083333D01*
X170038095Y-116130952D01*
X170085714Y-116178571D01*
X170133333Y-116273809D01*
X170133333Y-116511904D01*
X170085714Y-116607142D01*
X170038095Y-116654761D01*
X169942857Y-116702380D01*
X169657142Y-116702380D01*
X169561904Y-116654761D01*
X169514285Y-116607142D01*
%TO.C,SW4*%
X160716666Y-121154761D02*
X160859523Y-121202380D01*
X161097619Y-121202380D01*
X161192857Y-121154761D01*
X161240476Y-121107142D01*
X161288095Y-121011904D01*
X161288095Y-120916666D01*
X161240476Y-120821428D01*
X161192857Y-120773809D01*
X161097619Y-120726190D01*
X160907142Y-120678571D01*
X160811904Y-120630952D01*
X160764285Y-120583333D01*
X160716666Y-120488095D01*
X160716666Y-120392857D01*
X160764285Y-120297619D01*
X160811904Y-120250000D01*
X160907142Y-120202380D01*
X161145238Y-120202380D01*
X161288095Y-120250000D01*
X161621428Y-120202380D02*
X161859523Y-121202380D01*
X162050000Y-120488095D01*
X162240476Y-121202380D01*
X162478571Y-120202380D01*
X163288095Y-120535714D02*
X163288095Y-121202380D01*
X163050000Y-120154761D02*
X162811904Y-120869047D01*
X163430952Y-120869047D01*
%TO.C,SW5*%
X140666666Y-129404761D02*
X140809523Y-129452380D01*
X141047619Y-129452380D01*
X141142857Y-129404761D01*
X141190476Y-129357142D01*
X141238095Y-129261904D01*
X141238095Y-129166666D01*
X141190476Y-129071428D01*
X141142857Y-129023809D01*
X141047619Y-128976190D01*
X140857142Y-128928571D01*
X140761904Y-128880952D01*
X140714285Y-128833333D01*
X140666666Y-128738095D01*
X140666666Y-128642857D01*
X140714285Y-128547619D01*
X140761904Y-128500000D01*
X140857142Y-128452380D01*
X141095238Y-128452380D01*
X141238095Y-128500000D01*
X141571428Y-128452380D02*
X141809523Y-129452380D01*
X142000000Y-128738095D01*
X142190476Y-129452380D01*
X142428571Y-128452380D01*
X143285714Y-128452380D02*
X142809523Y-128452380D01*
X142761904Y-128928571D01*
X142809523Y-128880952D01*
X142904761Y-128833333D01*
X143142857Y-128833333D01*
X143238095Y-128880952D01*
X143285714Y-128928571D01*
X143333333Y-129023809D01*
X143333333Y-129261904D01*
X143285714Y-129357142D01*
X143238095Y-129404761D01*
X143142857Y-129452380D01*
X142904761Y-129452380D01*
X142809523Y-129404761D01*
X142761904Y-129357142D01*
%TO.C,SW6*%
X154166666Y-130404761D02*
X154309523Y-130452380D01*
X154547619Y-130452380D01*
X154642857Y-130404761D01*
X154690476Y-130357142D01*
X154738095Y-130261904D01*
X154738095Y-130166666D01*
X154690476Y-130071428D01*
X154642857Y-130023809D01*
X154547619Y-129976190D01*
X154357142Y-129928571D01*
X154261904Y-129880952D01*
X154214285Y-129833333D01*
X154166666Y-129738095D01*
X154166666Y-129642857D01*
X154214285Y-129547619D01*
X154261904Y-129500000D01*
X154357142Y-129452380D01*
X154595238Y-129452380D01*
X154738095Y-129500000D01*
X155071428Y-129452380D02*
X155309523Y-130452380D01*
X155500000Y-129738095D01*
X155690476Y-130452380D01*
X155928571Y-129452380D01*
X156738095Y-129452380D02*
X156547619Y-129452380D01*
X156452380Y-129500000D01*
X156404761Y-129547619D01*
X156309523Y-129690476D01*
X156261904Y-129880952D01*
X156261904Y-130261904D01*
X156309523Y-130357142D01*
X156357142Y-130404761D01*
X156452380Y-130452380D01*
X156642857Y-130452380D01*
X156738095Y-130404761D01*
X156785714Y-130357142D01*
X156833333Y-130261904D01*
X156833333Y-130023809D01*
X156785714Y-129928571D01*
X156738095Y-129880952D01*
X156642857Y-129833333D01*
X156452380Y-129833333D01*
X156357142Y-129880952D01*
X156309523Y-129928571D01*
X156261904Y-130023809D01*
%TO.C,SW7*%
X167666666Y-129154761D02*
X167809523Y-129202380D01*
X168047619Y-129202380D01*
X168142857Y-129154761D01*
X168190476Y-129107142D01*
X168238095Y-129011904D01*
X168238095Y-128916666D01*
X168190476Y-128821428D01*
X168142857Y-128773809D01*
X168047619Y-128726190D01*
X167857142Y-128678571D01*
X167761904Y-128630952D01*
X167714285Y-128583333D01*
X167666666Y-128488095D01*
X167666666Y-128392857D01*
X167714285Y-128297619D01*
X167761904Y-128250000D01*
X167857142Y-128202380D01*
X168095238Y-128202380D01*
X168238095Y-128250000D01*
X168571428Y-128202380D02*
X168809523Y-129202380D01*
X169000000Y-128488095D01*
X169190476Y-129202380D01*
X169428571Y-128202380D01*
X169714285Y-128202380D02*
X170380952Y-128202380D01*
X169952380Y-129202380D01*
%TO.C,SW8*%
X141666666Y-137404761D02*
X141809523Y-137452380D01*
X142047619Y-137452380D01*
X142142857Y-137404761D01*
X142190476Y-137357142D01*
X142238095Y-137261904D01*
X142238095Y-137166666D01*
X142190476Y-137071428D01*
X142142857Y-137023809D01*
X142047619Y-136976190D01*
X141857142Y-136928571D01*
X141761904Y-136880952D01*
X141714285Y-136833333D01*
X141666666Y-136738095D01*
X141666666Y-136642857D01*
X141714285Y-136547619D01*
X141761904Y-136500000D01*
X141857142Y-136452380D01*
X142095238Y-136452380D01*
X142238095Y-136500000D01*
X142571428Y-136452380D02*
X142809523Y-137452380D01*
X143000000Y-136738095D01*
X143190476Y-137452380D01*
X143428571Y-136452380D01*
X143952380Y-136880952D02*
X143857142Y-136833333D01*
X143809523Y-136785714D01*
X143761904Y-136690476D01*
X143761904Y-136642857D01*
X143809523Y-136547619D01*
X143857142Y-136500000D01*
X143952380Y-136452380D01*
X144142857Y-136452380D01*
X144238095Y-136500000D01*
X144285714Y-136547619D01*
X144333333Y-136642857D01*
X144333333Y-136690476D01*
X144285714Y-136785714D01*
X144238095Y-136833333D01*
X144142857Y-136880952D01*
X143952380Y-136880952D01*
X143857142Y-136928571D01*
X143809523Y-136976190D01*
X143761904Y-137071428D01*
X143761904Y-137261904D01*
X143809523Y-137357142D01*
X143857142Y-137404761D01*
X143952380Y-137452380D01*
X144142857Y-137452380D01*
X144238095Y-137404761D01*
X144285714Y-137357142D01*
X144333333Y-137261904D01*
X144333333Y-137071428D01*
X144285714Y-136976190D01*
X144238095Y-136928571D01*
X144142857Y-136880952D01*
%TO.C,SW9*%
X154166666Y-138404761D02*
X154309523Y-138452380D01*
X154547619Y-138452380D01*
X154642857Y-138404761D01*
X154690476Y-138357142D01*
X154738095Y-138261904D01*
X154738095Y-138166666D01*
X154690476Y-138071428D01*
X154642857Y-138023809D01*
X154547619Y-137976190D01*
X154357142Y-137928571D01*
X154261904Y-137880952D01*
X154214285Y-137833333D01*
X154166666Y-137738095D01*
X154166666Y-137642857D01*
X154214285Y-137547619D01*
X154261904Y-137500000D01*
X154357142Y-137452380D01*
X154595238Y-137452380D01*
X154738095Y-137500000D01*
X155071428Y-137452380D02*
X155309523Y-138452380D01*
X155500000Y-137738095D01*
X155690476Y-138452380D01*
X155928571Y-137452380D01*
X156357142Y-138452380D02*
X156547619Y-138452380D01*
X156642857Y-138404761D01*
X156690476Y-138357142D01*
X156785714Y-138214285D01*
X156833333Y-138023809D01*
X156833333Y-137642857D01*
X156785714Y-137547619D01*
X156738095Y-137500000D01*
X156642857Y-137452380D01*
X156452380Y-137452380D01*
X156357142Y-137500000D01*
X156309523Y-137547619D01*
X156261904Y-137642857D01*
X156261904Y-137880952D01*
X156309523Y-137976190D01*
X156357142Y-138023809D01*
X156452380Y-138071428D01*
X156642857Y-138071428D01*
X156738095Y-138023809D01*
X156785714Y-137976190D01*
X156833333Y-137880952D01*
%TO.C,SW11*%
X140790476Y-145154761D02*
X140933333Y-145202380D01*
X141171428Y-145202380D01*
X141266666Y-145154761D01*
X141314285Y-145107142D01*
X141361904Y-145011904D01*
X141361904Y-144916666D01*
X141314285Y-144821428D01*
X141266666Y-144773809D01*
X141171428Y-144726190D01*
X140980952Y-144678571D01*
X140885714Y-144630952D01*
X140838095Y-144583333D01*
X140790476Y-144488095D01*
X140790476Y-144392857D01*
X140838095Y-144297619D01*
X140885714Y-144250000D01*
X140980952Y-144202380D01*
X141219047Y-144202380D01*
X141361904Y-144250000D01*
X141695238Y-144202380D02*
X141933333Y-145202380D01*
X142123809Y-144488095D01*
X142314285Y-145202380D01*
X142552380Y-144202380D01*
X143457142Y-145202380D02*
X142885714Y-145202380D01*
X143171428Y-145202380D02*
X143171428Y-144202380D01*
X143076190Y-144345238D01*
X142980952Y-144440476D01*
X142885714Y-144488095D01*
X144409523Y-145202380D02*
X143838095Y-145202380D01*
X144123809Y-145202380D02*
X144123809Y-144202380D01*
X144028571Y-144345238D01*
X143933333Y-144440476D01*
X143838095Y-144488095D01*
%TO.C,SW12*%
X153690476Y-146404761D02*
X153833333Y-146452380D01*
X154071428Y-146452380D01*
X154166666Y-146404761D01*
X154214285Y-146357142D01*
X154261904Y-146261904D01*
X154261904Y-146166666D01*
X154214285Y-146071428D01*
X154166666Y-146023809D01*
X154071428Y-145976190D01*
X153880952Y-145928571D01*
X153785714Y-145880952D01*
X153738095Y-145833333D01*
X153690476Y-145738095D01*
X153690476Y-145642857D01*
X153738095Y-145547619D01*
X153785714Y-145500000D01*
X153880952Y-145452380D01*
X154119047Y-145452380D01*
X154261904Y-145500000D01*
X154595238Y-145452380D02*
X154833333Y-146452380D01*
X155023809Y-145738095D01*
X155214285Y-146452380D01*
X155452380Y-145452380D01*
X156357142Y-146452380D02*
X155785714Y-146452380D01*
X156071428Y-146452380D02*
X156071428Y-145452380D01*
X155976190Y-145595238D01*
X155880952Y-145690476D01*
X155785714Y-145738095D01*
X156738095Y-145547619D02*
X156785714Y-145500000D01*
X156880952Y-145452380D01*
X157119047Y-145452380D01*
X157214285Y-145500000D01*
X157261904Y-145547619D01*
X157309523Y-145642857D01*
X157309523Y-145738095D01*
X157261904Y-145880952D01*
X156690476Y-146452380D01*
X157309523Y-146452380D01*
%TO.C,SW13*%
X166440476Y-145154761D02*
X166583333Y-145202380D01*
X166821428Y-145202380D01*
X166916666Y-145154761D01*
X166964285Y-145107142D01*
X167011904Y-145011904D01*
X167011904Y-144916666D01*
X166964285Y-144821428D01*
X166916666Y-144773809D01*
X166821428Y-144726190D01*
X166630952Y-144678571D01*
X166535714Y-144630952D01*
X166488095Y-144583333D01*
X166440476Y-144488095D01*
X166440476Y-144392857D01*
X166488095Y-144297619D01*
X166535714Y-144250000D01*
X166630952Y-144202380D01*
X166869047Y-144202380D01*
X167011904Y-144250000D01*
X167345238Y-144202380D02*
X167583333Y-145202380D01*
X167773809Y-144488095D01*
X167964285Y-145202380D01*
X168202380Y-144202380D01*
X169107142Y-145202380D02*
X168535714Y-145202380D01*
X168821428Y-145202380D02*
X168821428Y-144202380D01*
X168726190Y-144345238D01*
X168630952Y-144440476D01*
X168535714Y-144488095D01*
X169440476Y-144202380D02*
X170059523Y-144202380D01*
X169726190Y-144583333D01*
X169869047Y-144583333D01*
X169964285Y-144630952D01*
X170011904Y-144678571D01*
X170059523Y-144773809D01*
X170059523Y-145011904D01*
X170011904Y-145107142D01*
X169964285Y-145154761D01*
X169869047Y-145202380D01*
X169583333Y-145202380D01*
X169488095Y-145154761D01*
X169440476Y-145107142D01*
%TO.C,SW14*%
X141190476Y-153404761D02*
X141333333Y-153452380D01*
X141571428Y-153452380D01*
X141666666Y-153404761D01*
X141714285Y-153357142D01*
X141761904Y-153261904D01*
X141761904Y-153166666D01*
X141714285Y-153071428D01*
X141666666Y-153023809D01*
X141571428Y-152976190D01*
X141380952Y-152928571D01*
X141285714Y-152880952D01*
X141238095Y-152833333D01*
X141190476Y-152738095D01*
X141190476Y-152642857D01*
X141238095Y-152547619D01*
X141285714Y-152500000D01*
X141380952Y-152452380D01*
X141619047Y-152452380D01*
X141761904Y-152500000D01*
X142095238Y-152452380D02*
X142333333Y-153452380D01*
X142523809Y-152738095D01*
X142714285Y-153452380D01*
X142952380Y-152452380D01*
X143857142Y-153452380D02*
X143285714Y-153452380D01*
X143571428Y-153452380D02*
X143571428Y-152452380D01*
X143476190Y-152595238D01*
X143380952Y-152690476D01*
X143285714Y-152738095D01*
X144714285Y-152785714D02*
X144714285Y-153452380D01*
X144476190Y-152404761D02*
X144238095Y-153119047D01*
X144857142Y-153119047D01*
%TO.C,SW15*%
X153690476Y-154654761D02*
X153833333Y-154702380D01*
X154071428Y-154702380D01*
X154166666Y-154654761D01*
X154214285Y-154607142D01*
X154261904Y-154511904D01*
X154261904Y-154416666D01*
X154214285Y-154321428D01*
X154166666Y-154273809D01*
X154071428Y-154226190D01*
X153880952Y-154178571D01*
X153785714Y-154130952D01*
X153738095Y-154083333D01*
X153690476Y-153988095D01*
X153690476Y-153892857D01*
X153738095Y-153797619D01*
X153785714Y-153750000D01*
X153880952Y-153702380D01*
X154119047Y-153702380D01*
X154261904Y-153750000D01*
X154595238Y-153702380D02*
X154833333Y-154702380D01*
X155023809Y-153988095D01*
X155214285Y-154702380D01*
X155452380Y-153702380D01*
X156357142Y-154702380D02*
X155785714Y-154702380D01*
X156071428Y-154702380D02*
X156071428Y-153702380D01*
X155976190Y-153845238D01*
X155880952Y-153940476D01*
X155785714Y-153988095D01*
X157261904Y-153702380D02*
X156785714Y-153702380D01*
X156738095Y-154178571D01*
X156785714Y-154130952D01*
X156880952Y-154083333D01*
X157119047Y-154083333D01*
X157214285Y-154130952D01*
X157261904Y-154178571D01*
X157309523Y-154273809D01*
X157309523Y-154511904D01*
X157261904Y-154607142D01*
X157214285Y-154654761D01*
X157119047Y-154702380D01*
X156880952Y-154702380D01*
X156785714Y-154654761D01*
X156738095Y-154607142D01*
%TO.C,SW16*%
X166190476Y-153404761D02*
X166333333Y-153452380D01*
X166571428Y-153452380D01*
X166666666Y-153404761D01*
X166714285Y-153357142D01*
X166761904Y-153261904D01*
X166761904Y-153166666D01*
X166714285Y-153071428D01*
X166666666Y-153023809D01*
X166571428Y-152976190D01*
X166380952Y-152928571D01*
X166285714Y-152880952D01*
X166238095Y-152833333D01*
X166190476Y-152738095D01*
X166190476Y-152642857D01*
X166238095Y-152547619D01*
X166285714Y-152500000D01*
X166380952Y-152452380D01*
X166619047Y-152452380D01*
X166761904Y-152500000D01*
X167095238Y-152452380D02*
X167333333Y-153452380D01*
X167523809Y-152738095D01*
X167714285Y-153452380D01*
X167952380Y-152452380D01*
X168857142Y-153452380D02*
X168285714Y-153452380D01*
X168571428Y-153452380D02*
X168571428Y-152452380D01*
X168476190Y-152595238D01*
X168380952Y-152690476D01*
X168285714Y-152738095D01*
X169714285Y-152452380D02*
X169523809Y-152452380D01*
X169428571Y-152500000D01*
X169380952Y-152547619D01*
X169285714Y-152690476D01*
X169238095Y-152880952D01*
X169238095Y-153261904D01*
X169285714Y-153357142D01*
X169333333Y-153404761D01*
X169428571Y-153452380D01*
X169619047Y-153452380D01*
X169714285Y-153404761D01*
X169761904Y-153357142D01*
X169809523Y-153261904D01*
X169809523Y-153023809D01*
X169761904Y-152928571D01*
X169714285Y-152880952D01*
X169619047Y-152833333D01*
X169428571Y-152833333D01*
X169333333Y-152880952D01*
X169285714Y-152928571D01*
X169238095Y-153023809D01*
%TD*%
M02*
