%TF.GenerationSoftware,KiCad,Pcbnew,(5.1.9)-1*%
%TF.CreationDate,2021-01-14T19:29:22+00:00*%
%TF.ProjectId,Nokia_3310_Controller,4e6f6b69-615f-4333-9331-305f436f6e74,rev?*%
%TF.SameCoordinates,Original*%
%TF.FileFunction,Paste,Top*%
%TF.FilePolarity,Positive*%
%FSLAX46Y46*%
G04 Gerber Fmt 4.6, Leading zero omitted, Abs format (unit mm)*
G04 Created by KiCad (PCBNEW (5.1.9)-1) date 2021-01-14 19:29:22*
%MOMM*%
%LPD*%
G01*
G04 APERTURE LIST*
%ADD10C,0.100000*%
%ADD11C,2.500000*%
G04 APERTURE END LIST*
D10*
%TO.C,SW10*%
G36*
X168440191Y-130032470D02*
G01*
X168728941Y-130089906D01*
X169010670Y-130175368D01*
X169282665Y-130288032D01*
X169542308Y-130426814D01*
X169787098Y-130590377D01*
X170014677Y-130777147D01*
X170222853Y-130985323D01*
X170409623Y-131212902D01*
X170573186Y-131457692D01*
X170711968Y-131717335D01*
X170824632Y-131989330D01*
X170910094Y-132271059D01*
X170967530Y-132559809D01*
X170996386Y-132852797D01*
X170996386Y-132940285D01*
X170999247Y-132969333D01*
X170999247Y-133030667D01*
X170996386Y-133059715D01*
X170996386Y-133147203D01*
X170967530Y-133440191D01*
X170910094Y-133728941D01*
X170824632Y-134010670D01*
X170711968Y-134282665D01*
X170573186Y-134542308D01*
X170409623Y-134787098D01*
X170222853Y-135014677D01*
X170014677Y-135222853D01*
X169787098Y-135409623D01*
X169542308Y-135573186D01*
X169282665Y-135711968D01*
X169010670Y-135824632D01*
X168728941Y-135910094D01*
X168440191Y-135967530D01*
X168147203Y-135996386D01*
X167852797Y-135996386D01*
X167559809Y-135967530D01*
X167271059Y-135910094D01*
X166989330Y-135824632D01*
X166717335Y-135711968D01*
X166457692Y-135573186D01*
X166212902Y-135409623D01*
X165985323Y-135222853D01*
X165777147Y-135014677D01*
X165590377Y-134787098D01*
X165426814Y-134542308D01*
X165288032Y-134282665D01*
X165175368Y-134010670D01*
X165089906Y-133728941D01*
X165032470Y-133440191D01*
X165003614Y-133147203D01*
X165003614Y-132914132D01*
X166252108Y-132914132D01*
X166252108Y-133085868D01*
X166268941Y-133256778D01*
X166302445Y-133425215D01*
X166352298Y-133589557D01*
X166418019Y-133748221D01*
X166498975Y-133899680D01*
X166594387Y-134042474D01*
X166703336Y-134175228D01*
X166824772Y-134296664D01*
X166957526Y-134405613D01*
X167100320Y-134501025D01*
X167251779Y-134581981D01*
X167410443Y-134647702D01*
X167574785Y-134697555D01*
X167743222Y-134731059D01*
X167914132Y-134747892D01*
X168085868Y-134747892D01*
X168256778Y-134731059D01*
X168425215Y-134697555D01*
X168589557Y-134647702D01*
X168748221Y-134581981D01*
X168899680Y-134501025D01*
X169042474Y-134405613D01*
X169175228Y-134296664D01*
X169296664Y-134175228D01*
X169405613Y-134042474D01*
X169501025Y-133899680D01*
X169581981Y-133748221D01*
X169647702Y-133589557D01*
X169697555Y-133425215D01*
X169731059Y-133256778D01*
X169747892Y-133085868D01*
X169747892Y-132914132D01*
X169731059Y-132743222D01*
X169697555Y-132574785D01*
X169647702Y-132410443D01*
X169581981Y-132251779D01*
X169501025Y-132100320D01*
X169405613Y-131957526D01*
X169296664Y-131824772D01*
X169175228Y-131703336D01*
X169042474Y-131594387D01*
X168899680Y-131498975D01*
X168748221Y-131418019D01*
X168589557Y-131352298D01*
X168425215Y-131302445D01*
X168256778Y-131268941D01*
X168085868Y-131252108D01*
X167914132Y-131252108D01*
X167743222Y-131268941D01*
X167574785Y-131302445D01*
X167410443Y-131352298D01*
X167251779Y-131418019D01*
X167100320Y-131498975D01*
X166957526Y-131594387D01*
X166824772Y-131703336D01*
X166703336Y-131824772D01*
X166594387Y-131957526D01*
X166498975Y-132100320D01*
X166418019Y-132251779D01*
X166352298Y-132410443D01*
X166302445Y-132574785D01*
X166268941Y-132743222D01*
X166252108Y-132914132D01*
X165003614Y-132914132D01*
X165003614Y-132852797D01*
X165032470Y-132559809D01*
X165089906Y-132271059D01*
X165175368Y-131989330D01*
X165288032Y-131717335D01*
X165426814Y-131457692D01*
X165590377Y-131212902D01*
X165777147Y-130985323D01*
X165985323Y-130777147D01*
X166212902Y-130590377D01*
X166457692Y-130426814D01*
X166717335Y-130288032D01*
X166989330Y-130175368D01*
X167271059Y-130089906D01*
X167559809Y-130032470D01*
X167852797Y-130003614D01*
X168147203Y-130003614D01*
X168440191Y-130032470D01*
G37*
D11*
X168000000Y-133000000D03*
%TD*%
%TO.C,SW1*%
X143250000Y-113700000D03*
D10*
G36*
X143690191Y-110732470D02*
G01*
X143978941Y-110789906D01*
X144260670Y-110875368D01*
X144532665Y-110988032D01*
X144792308Y-111126814D01*
X145037098Y-111290377D01*
X145264677Y-111477147D01*
X145472853Y-111685323D01*
X145659623Y-111912902D01*
X145823186Y-112157692D01*
X145961968Y-112417335D01*
X146074632Y-112689330D01*
X146160094Y-112971059D01*
X146217530Y-113259809D01*
X146246386Y-113552797D01*
X146246386Y-113640285D01*
X146249247Y-113669333D01*
X146249247Y-113730667D01*
X146246386Y-113759715D01*
X146246386Y-113847203D01*
X146217530Y-114140191D01*
X146160094Y-114428941D01*
X146074632Y-114710670D01*
X145961968Y-114982665D01*
X145823186Y-115242308D01*
X145659623Y-115487098D01*
X145472853Y-115714677D01*
X145264677Y-115922853D01*
X145037098Y-116109623D01*
X144792308Y-116273186D01*
X144532665Y-116411968D01*
X144260670Y-116524632D01*
X143978941Y-116610094D01*
X143690191Y-116667530D01*
X143397203Y-116696386D01*
X143102797Y-116696386D01*
X142809809Y-116667530D01*
X142521059Y-116610094D01*
X142239330Y-116524632D01*
X141967335Y-116411968D01*
X141707692Y-116273186D01*
X141462902Y-116109623D01*
X141235323Y-115922853D01*
X141027147Y-115714677D01*
X140840377Y-115487098D01*
X140676814Y-115242308D01*
X140538032Y-114982665D01*
X140425368Y-114710670D01*
X140339906Y-114428941D01*
X140282470Y-114140191D01*
X140253614Y-113847203D01*
X140253614Y-113614132D01*
X141502108Y-113614132D01*
X141502108Y-113785868D01*
X141518941Y-113956778D01*
X141552445Y-114125215D01*
X141602298Y-114289557D01*
X141668019Y-114448221D01*
X141748975Y-114599680D01*
X141844387Y-114742474D01*
X141953336Y-114875228D01*
X142074772Y-114996664D01*
X142207526Y-115105613D01*
X142350320Y-115201025D01*
X142501779Y-115281981D01*
X142660443Y-115347702D01*
X142824785Y-115397555D01*
X142993222Y-115431059D01*
X143164132Y-115447892D01*
X143335868Y-115447892D01*
X143506778Y-115431059D01*
X143675215Y-115397555D01*
X143839557Y-115347702D01*
X143998221Y-115281981D01*
X144149680Y-115201025D01*
X144292474Y-115105613D01*
X144425228Y-114996664D01*
X144546664Y-114875228D01*
X144655613Y-114742474D01*
X144751025Y-114599680D01*
X144831981Y-114448221D01*
X144897702Y-114289557D01*
X144947555Y-114125215D01*
X144981059Y-113956778D01*
X144997892Y-113785868D01*
X144997892Y-113614132D01*
X144981059Y-113443222D01*
X144947555Y-113274785D01*
X144897702Y-113110443D01*
X144831981Y-112951779D01*
X144751025Y-112800320D01*
X144655613Y-112657526D01*
X144546664Y-112524772D01*
X144425228Y-112403336D01*
X144292474Y-112294387D01*
X144149680Y-112198975D01*
X143998221Y-112118019D01*
X143839557Y-112052298D01*
X143675215Y-112002445D01*
X143506778Y-111968941D01*
X143335868Y-111952108D01*
X143164132Y-111952108D01*
X142993222Y-111968941D01*
X142824785Y-112002445D01*
X142660443Y-112052298D01*
X142501779Y-112118019D01*
X142350320Y-112198975D01*
X142207526Y-112294387D01*
X142074772Y-112403336D01*
X141953336Y-112524772D01*
X141844387Y-112657526D01*
X141748975Y-112800320D01*
X141668019Y-112951779D01*
X141602298Y-113110443D01*
X141552445Y-113274785D01*
X141518941Y-113443222D01*
X141502108Y-113614132D01*
X140253614Y-113614132D01*
X140253614Y-113552797D01*
X140282470Y-113259809D01*
X140339906Y-112971059D01*
X140425368Y-112689330D01*
X140538032Y-112417335D01*
X140676814Y-112157692D01*
X140840377Y-111912902D01*
X141027147Y-111685323D01*
X141235323Y-111477147D01*
X141462902Y-111290377D01*
X141707692Y-111126814D01*
X141967335Y-110988032D01*
X142239330Y-110875368D01*
X142521059Y-110789906D01*
X142809809Y-110732470D01*
X143102797Y-110703614D01*
X143397203Y-110703614D01*
X143690191Y-110732470D01*
G37*
%TD*%
%TO.C,SW2*%
G36*
X155940191Y-107032470D02*
G01*
X156228941Y-107089906D01*
X156510670Y-107175368D01*
X156782665Y-107288032D01*
X157042308Y-107426814D01*
X157287098Y-107590377D01*
X157514677Y-107777147D01*
X157722853Y-107985323D01*
X157909623Y-108212902D01*
X158073186Y-108457692D01*
X158211968Y-108717335D01*
X158324632Y-108989330D01*
X158410094Y-109271059D01*
X158467530Y-109559809D01*
X158496386Y-109852797D01*
X158496386Y-109940285D01*
X158499247Y-109969333D01*
X158499247Y-110030667D01*
X158496386Y-110059715D01*
X158496386Y-110147203D01*
X158467530Y-110440191D01*
X158410094Y-110728941D01*
X158324632Y-111010670D01*
X158211968Y-111282665D01*
X158073186Y-111542308D01*
X157909623Y-111787098D01*
X157722853Y-112014677D01*
X157514677Y-112222853D01*
X157287098Y-112409623D01*
X157042308Y-112573186D01*
X156782665Y-112711968D01*
X156510670Y-112824632D01*
X156228941Y-112910094D01*
X155940191Y-112967530D01*
X155647203Y-112996386D01*
X155352797Y-112996386D01*
X155059809Y-112967530D01*
X154771059Y-112910094D01*
X154489330Y-112824632D01*
X154217335Y-112711968D01*
X153957692Y-112573186D01*
X153712902Y-112409623D01*
X153485323Y-112222853D01*
X153277147Y-112014677D01*
X153090377Y-111787098D01*
X152926814Y-111542308D01*
X152788032Y-111282665D01*
X152675368Y-111010670D01*
X152589906Y-110728941D01*
X152532470Y-110440191D01*
X152503614Y-110147203D01*
X152503614Y-109914132D01*
X153752108Y-109914132D01*
X153752108Y-110085868D01*
X153768941Y-110256778D01*
X153802445Y-110425215D01*
X153852298Y-110589557D01*
X153918019Y-110748221D01*
X153998975Y-110899680D01*
X154094387Y-111042474D01*
X154203336Y-111175228D01*
X154324772Y-111296664D01*
X154457526Y-111405613D01*
X154600320Y-111501025D01*
X154751779Y-111581981D01*
X154910443Y-111647702D01*
X155074785Y-111697555D01*
X155243222Y-111731059D01*
X155414132Y-111747892D01*
X155585868Y-111747892D01*
X155756778Y-111731059D01*
X155925215Y-111697555D01*
X156089557Y-111647702D01*
X156248221Y-111581981D01*
X156399680Y-111501025D01*
X156542474Y-111405613D01*
X156675228Y-111296664D01*
X156796664Y-111175228D01*
X156905613Y-111042474D01*
X157001025Y-110899680D01*
X157081981Y-110748221D01*
X157147702Y-110589557D01*
X157197555Y-110425215D01*
X157231059Y-110256778D01*
X157247892Y-110085868D01*
X157247892Y-109914132D01*
X157231059Y-109743222D01*
X157197555Y-109574785D01*
X157147702Y-109410443D01*
X157081981Y-109251779D01*
X157001025Y-109100320D01*
X156905613Y-108957526D01*
X156796664Y-108824772D01*
X156675228Y-108703336D01*
X156542474Y-108594387D01*
X156399680Y-108498975D01*
X156248221Y-108418019D01*
X156089557Y-108352298D01*
X155925215Y-108302445D01*
X155756778Y-108268941D01*
X155585868Y-108252108D01*
X155414132Y-108252108D01*
X155243222Y-108268941D01*
X155074785Y-108302445D01*
X154910443Y-108352298D01*
X154751779Y-108418019D01*
X154600320Y-108498975D01*
X154457526Y-108594387D01*
X154324772Y-108703336D01*
X154203336Y-108824772D01*
X154094387Y-108957526D01*
X153998975Y-109100320D01*
X153918019Y-109251779D01*
X153852298Y-109410443D01*
X153802445Y-109574785D01*
X153768941Y-109743222D01*
X153752108Y-109914132D01*
X152503614Y-109914132D01*
X152503614Y-109852797D01*
X152532470Y-109559809D01*
X152589906Y-109271059D01*
X152675368Y-108989330D01*
X152788032Y-108717335D01*
X152926814Y-108457692D01*
X153090377Y-108212902D01*
X153277147Y-107985323D01*
X153485323Y-107777147D01*
X153712902Y-107590377D01*
X153957692Y-107426814D01*
X154217335Y-107288032D01*
X154489330Y-107175368D01*
X154771059Y-107089906D01*
X155059809Y-107032470D01*
X155352797Y-107003614D01*
X155647203Y-107003614D01*
X155940191Y-107032470D01*
G37*
D11*
X155500000Y-110000000D03*
%TD*%
%TO.C,SW3*%
X168800000Y-112250000D03*
D10*
G36*
X169240191Y-109282470D02*
G01*
X169528941Y-109339906D01*
X169810670Y-109425368D01*
X170082665Y-109538032D01*
X170342308Y-109676814D01*
X170587098Y-109840377D01*
X170814677Y-110027147D01*
X171022853Y-110235323D01*
X171209623Y-110462902D01*
X171373186Y-110707692D01*
X171511968Y-110967335D01*
X171624632Y-111239330D01*
X171710094Y-111521059D01*
X171767530Y-111809809D01*
X171796386Y-112102797D01*
X171796386Y-112190285D01*
X171799247Y-112219333D01*
X171799247Y-112280667D01*
X171796386Y-112309715D01*
X171796386Y-112397203D01*
X171767530Y-112690191D01*
X171710094Y-112978941D01*
X171624632Y-113260670D01*
X171511968Y-113532665D01*
X171373186Y-113792308D01*
X171209623Y-114037098D01*
X171022853Y-114264677D01*
X170814677Y-114472853D01*
X170587098Y-114659623D01*
X170342308Y-114823186D01*
X170082665Y-114961968D01*
X169810670Y-115074632D01*
X169528941Y-115160094D01*
X169240191Y-115217530D01*
X168947203Y-115246386D01*
X168652797Y-115246386D01*
X168359809Y-115217530D01*
X168071059Y-115160094D01*
X167789330Y-115074632D01*
X167517335Y-114961968D01*
X167257692Y-114823186D01*
X167012902Y-114659623D01*
X166785323Y-114472853D01*
X166577147Y-114264677D01*
X166390377Y-114037098D01*
X166226814Y-113792308D01*
X166088032Y-113532665D01*
X165975368Y-113260670D01*
X165889906Y-112978941D01*
X165832470Y-112690191D01*
X165803614Y-112397203D01*
X165803614Y-112164132D01*
X167052108Y-112164132D01*
X167052108Y-112335868D01*
X167068941Y-112506778D01*
X167102445Y-112675215D01*
X167152298Y-112839557D01*
X167218019Y-112998221D01*
X167298975Y-113149680D01*
X167394387Y-113292474D01*
X167503336Y-113425228D01*
X167624772Y-113546664D01*
X167757526Y-113655613D01*
X167900320Y-113751025D01*
X168051779Y-113831981D01*
X168210443Y-113897702D01*
X168374785Y-113947555D01*
X168543222Y-113981059D01*
X168714132Y-113997892D01*
X168885868Y-113997892D01*
X169056778Y-113981059D01*
X169225215Y-113947555D01*
X169389557Y-113897702D01*
X169548221Y-113831981D01*
X169699680Y-113751025D01*
X169842474Y-113655613D01*
X169975228Y-113546664D01*
X170096664Y-113425228D01*
X170205613Y-113292474D01*
X170301025Y-113149680D01*
X170381981Y-112998221D01*
X170447702Y-112839557D01*
X170497555Y-112675215D01*
X170531059Y-112506778D01*
X170547892Y-112335868D01*
X170547892Y-112164132D01*
X170531059Y-111993222D01*
X170497555Y-111824785D01*
X170447702Y-111660443D01*
X170381981Y-111501779D01*
X170301025Y-111350320D01*
X170205613Y-111207526D01*
X170096664Y-111074772D01*
X169975228Y-110953336D01*
X169842474Y-110844387D01*
X169699680Y-110748975D01*
X169548221Y-110668019D01*
X169389557Y-110602298D01*
X169225215Y-110552445D01*
X169056778Y-110518941D01*
X168885868Y-110502108D01*
X168714132Y-110502108D01*
X168543222Y-110518941D01*
X168374785Y-110552445D01*
X168210443Y-110602298D01*
X168051779Y-110668019D01*
X167900320Y-110748975D01*
X167757526Y-110844387D01*
X167624772Y-110953336D01*
X167503336Y-111074772D01*
X167394387Y-111207526D01*
X167298975Y-111350320D01*
X167218019Y-111501779D01*
X167152298Y-111660443D01*
X167102445Y-111824785D01*
X167068941Y-111993222D01*
X167052108Y-112164132D01*
X165803614Y-112164132D01*
X165803614Y-112102797D01*
X165832470Y-111809809D01*
X165889906Y-111521059D01*
X165975368Y-111239330D01*
X166088032Y-110967335D01*
X166226814Y-110707692D01*
X166390377Y-110462902D01*
X166577147Y-110235323D01*
X166785323Y-110027147D01*
X167012902Y-109840377D01*
X167257692Y-109676814D01*
X167517335Y-109538032D01*
X167789330Y-109425368D01*
X168071059Y-109339906D01*
X168359809Y-109282470D01*
X168652797Y-109253614D01*
X168947203Y-109253614D01*
X169240191Y-109282470D01*
G37*
%TD*%
%TO.C,SW4*%
G36*
X162490191Y-113782470D02*
G01*
X162778941Y-113839906D01*
X163060670Y-113925368D01*
X163332665Y-114038032D01*
X163592308Y-114176814D01*
X163837098Y-114340377D01*
X164064677Y-114527147D01*
X164272853Y-114735323D01*
X164459623Y-114962902D01*
X164623186Y-115207692D01*
X164761968Y-115467335D01*
X164874632Y-115739330D01*
X164960094Y-116021059D01*
X165017530Y-116309809D01*
X165046386Y-116602797D01*
X165046386Y-116690285D01*
X165049247Y-116719333D01*
X165049247Y-116780667D01*
X165046386Y-116809715D01*
X165046386Y-116897203D01*
X165017530Y-117190191D01*
X164960094Y-117478941D01*
X164874632Y-117760670D01*
X164761968Y-118032665D01*
X164623186Y-118292308D01*
X164459623Y-118537098D01*
X164272853Y-118764677D01*
X164064677Y-118972853D01*
X163837098Y-119159623D01*
X163592308Y-119323186D01*
X163332665Y-119461968D01*
X163060670Y-119574632D01*
X162778941Y-119660094D01*
X162490191Y-119717530D01*
X162197203Y-119746386D01*
X161902797Y-119746386D01*
X161609809Y-119717530D01*
X161321059Y-119660094D01*
X161039330Y-119574632D01*
X160767335Y-119461968D01*
X160507692Y-119323186D01*
X160262902Y-119159623D01*
X160035323Y-118972853D01*
X159827147Y-118764677D01*
X159640377Y-118537098D01*
X159476814Y-118292308D01*
X159338032Y-118032665D01*
X159225368Y-117760670D01*
X159139906Y-117478941D01*
X159082470Y-117190191D01*
X159053614Y-116897203D01*
X159053614Y-116664132D01*
X160302108Y-116664132D01*
X160302108Y-116835868D01*
X160318941Y-117006778D01*
X160352445Y-117175215D01*
X160402298Y-117339557D01*
X160468019Y-117498221D01*
X160548975Y-117649680D01*
X160644387Y-117792474D01*
X160753336Y-117925228D01*
X160874772Y-118046664D01*
X161007526Y-118155613D01*
X161150320Y-118251025D01*
X161301779Y-118331981D01*
X161460443Y-118397702D01*
X161624785Y-118447555D01*
X161793222Y-118481059D01*
X161964132Y-118497892D01*
X162135868Y-118497892D01*
X162306778Y-118481059D01*
X162475215Y-118447555D01*
X162639557Y-118397702D01*
X162798221Y-118331981D01*
X162949680Y-118251025D01*
X163092474Y-118155613D01*
X163225228Y-118046664D01*
X163346664Y-117925228D01*
X163455613Y-117792474D01*
X163551025Y-117649680D01*
X163631981Y-117498221D01*
X163697702Y-117339557D01*
X163747555Y-117175215D01*
X163781059Y-117006778D01*
X163797892Y-116835868D01*
X163797892Y-116664132D01*
X163781059Y-116493222D01*
X163747555Y-116324785D01*
X163697702Y-116160443D01*
X163631981Y-116001779D01*
X163551025Y-115850320D01*
X163455613Y-115707526D01*
X163346664Y-115574772D01*
X163225228Y-115453336D01*
X163092474Y-115344387D01*
X162949680Y-115248975D01*
X162798221Y-115168019D01*
X162639557Y-115102298D01*
X162475215Y-115052445D01*
X162306778Y-115018941D01*
X162135868Y-115002108D01*
X161964132Y-115002108D01*
X161793222Y-115018941D01*
X161624785Y-115052445D01*
X161460443Y-115102298D01*
X161301779Y-115168019D01*
X161150320Y-115248975D01*
X161007526Y-115344387D01*
X160874772Y-115453336D01*
X160753336Y-115574772D01*
X160644387Y-115707526D01*
X160548975Y-115850320D01*
X160468019Y-116001779D01*
X160402298Y-116160443D01*
X160352445Y-116324785D01*
X160318941Y-116493222D01*
X160302108Y-116664132D01*
X159053614Y-116664132D01*
X159053614Y-116602797D01*
X159082470Y-116309809D01*
X159139906Y-116021059D01*
X159225368Y-115739330D01*
X159338032Y-115467335D01*
X159476814Y-115207692D01*
X159640377Y-114962902D01*
X159827147Y-114735323D01*
X160035323Y-114527147D01*
X160262902Y-114340377D01*
X160507692Y-114176814D01*
X160767335Y-114038032D01*
X161039330Y-113925368D01*
X161321059Y-113839906D01*
X161609809Y-113782470D01*
X161902797Y-113753614D01*
X162197203Y-113753614D01*
X162490191Y-113782470D01*
G37*
D11*
X162050000Y-116750000D03*
%TD*%
%TO.C,SW5*%
X142000000Y-125000000D03*
D10*
G36*
X142440191Y-122032470D02*
G01*
X142728941Y-122089906D01*
X143010670Y-122175368D01*
X143282665Y-122288032D01*
X143542308Y-122426814D01*
X143787098Y-122590377D01*
X144014677Y-122777147D01*
X144222853Y-122985323D01*
X144409623Y-123212902D01*
X144573186Y-123457692D01*
X144711968Y-123717335D01*
X144824632Y-123989330D01*
X144910094Y-124271059D01*
X144967530Y-124559809D01*
X144996386Y-124852797D01*
X144996386Y-124940285D01*
X144999247Y-124969333D01*
X144999247Y-125030667D01*
X144996386Y-125059715D01*
X144996386Y-125147203D01*
X144967530Y-125440191D01*
X144910094Y-125728941D01*
X144824632Y-126010670D01*
X144711968Y-126282665D01*
X144573186Y-126542308D01*
X144409623Y-126787098D01*
X144222853Y-127014677D01*
X144014677Y-127222853D01*
X143787098Y-127409623D01*
X143542308Y-127573186D01*
X143282665Y-127711968D01*
X143010670Y-127824632D01*
X142728941Y-127910094D01*
X142440191Y-127967530D01*
X142147203Y-127996386D01*
X141852797Y-127996386D01*
X141559809Y-127967530D01*
X141271059Y-127910094D01*
X140989330Y-127824632D01*
X140717335Y-127711968D01*
X140457692Y-127573186D01*
X140212902Y-127409623D01*
X139985323Y-127222853D01*
X139777147Y-127014677D01*
X139590377Y-126787098D01*
X139426814Y-126542308D01*
X139288032Y-126282665D01*
X139175368Y-126010670D01*
X139089906Y-125728941D01*
X139032470Y-125440191D01*
X139003614Y-125147203D01*
X139003614Y-124914132D01*
X140252108Y-124914132D01*
X140252108Y-125085868D01*
X140268941Y-125256778D01*
X140302445Y-125425215D01*
X140352298Y-125589557D01*
X140418019Y-125748221D01*
X140498975Y-125899680D01*
X140594387Y-126042474D01*
X140703336Y-126175228D01*
X140824772Y-126296664D01*
X140957526Y-126405613D01*
X141100320Y-126501025D01*
X141251779Y-126581981D01*
X141410443Y-126647702D01*
X141574785Y-126697555D01*
X141743222Y-126731059D01*
X141914132Y-126747892D01*
X142085868Y-126747892D01*
X142256778Y-126731059D01*
X142425215Y-126697555D01*
X142589557Y-126647702D01*
X142748221Y-126581981D01*
X142899680Y-126501025D01*
X143042474Y-126405613D01*
X143175228Y-126296664D01*
X143296664Y-126175228D01*
X143405613Y-126042474D01*
X143501025Y-125899680D01*
X143581981Y-125748221D01*
X143647702Y-125589557D01*
X143697555Y-125425215D01*
X143731059Y-125256778D01*
X143747892Y-125085868D01*
X143747892Y-124914132D01*
X143731059Y-124743222D01*
X143697555Y-124574785D01*
X143647702Y-124410443D01*
X143581981Y-124251779D01*
X143501025Y-124100320D01*
X143405613Y-123957526D01*
X143296664Y-123824772D01*
X143175228Y-123703336D01*
X143042474Y-123594387D01*
X142899680Y-123498975D01*
X142748221Y-123418019D01*
X142589557Y-123352298D01*
X142425215Y-123302445D01*
X142256778Y-123268941D01*
X142085868Y-123252108D01*
X141914132Y-123252108D01*
X141743222Y-123268941D01*
X141574785Y-123302445D01*
X141410443Y-123352298D01*
X141251779Y-123418019D01*
X141100320Y-123498975D01*
X140957526Y-123594387D01*
X140824772Y-123703336D01*
X140703336Y-123824772D01*
X140594387Y-123957526D01*
X140498975Y-124100320D01*
X140418019Y-124251779D01*
X140352298Y-124410443D01*
X140302445Y-124574785D01*
X140268941Y-124743222D01*
X140252108Y-124914132D01*
X139003614Y-124914132D01*
X139003614Y-124852797D01*
X139032470Y-124559809D01*
X139089906Y-124271059D01*
X139175368Y-123989330D01*
X139288032Y-123717335D01*
X139426814Y-123457692D01*
X139590377Y-123212902D01*
X139777147Y-122985323D01*
X139985323Y-122777147D01*
X140212902Y-122590377D01*
X140457692Y-122426814D01*
X140717335Y-122288032D01*
X140989330Y-122175368D01*
X141271059Y-122089906D01*
X141559809Y-122032470D01*
X141852797Y-122003614D01*
X142147203Y-122003614D01*
X142440191Y-122032470D01*
G37*
%TD*%
%TO.C,SW6*%
G36*
X155940191Y-123032470D02*
G01*
X156228941Y-123089906D01*
X156510670Y-123175368D01*
X156782665Y-123288032D01*
X157042308Y-123426814D01*
X157287098Y-123590377D01*
X157514677Y-123777147D01*
X157722853Y-123985323D01*
X157909623Y-124212902D01*
X158073186Y-124457692D01*
X158211968Y-124717335D01*
X158324632Y-124989330D01*
X158410094Y-125271059D01*
X158467530Y-125559809D01*
X158496386Y-125852797D01*
X158496386Y-125940285D01*
X158499247Y-125969333D01*
X158499247Y-126030667D01*
X158496386Y-126059715D01*
X158496386Y-126147203D01*
X158467530Y-126440191D01*
X158410094Y-126728941D01*
X158324632Y-127010670D01*
X158211968Y-127282665D01*
X158073186Y-127542308D01*
X157909623Y-127787098D01*
X157722853Y-128014677D01*
X157514677Y-128222853D01*
X157287098Y-128409623D01*
X157042308Y-128573186D01*
X156782665Y-128711968D01*
X156510670Y-128824632D01*
X156228941Y-128910094D01*
X155940191Y-128967530D01*
X155647203Y-128996386D01*
X155352797Y-128996386D01*
X155059809Y-128967530D01*
X154771059Y-128910094D01*
X154489330Y-128824632D01*
X154217335Y-128711968D01*
X153957692Y-128573186D01*
X153712902Y-128409623D01*
X153485323Y-128222853D01*
X153277147Y-128014677D01*
X153090377Y-127787098D01*
X152926814Y-127542308D01*
X152788032Y-127282665D01*
X152675368Y-127010670D01*
X152589906Y-126728941D01*
X152532470Y-126440191D01*
X152503614Y-126147203D01*
X152503614Y-125914132D01*
X153752108Y-125914132D01*
X153752108Y-126085868D01*
X153768941Y-126256778D01*
X153802445Y-126425215D01*
X153852298Y-126589557D01*
X153918019Y-126748221D01*
X153998975Y-126899680D01*
X154094387Y-127042474D01*
X154203336Y-127175228D01*
X154324772Y-127296664D01*
X154457526Y-127405613D01*
X154600320Y-127501025D01*
X154751779Y-127581981D01*
X154910443Y-127647702D01*
X155074785Y-127697555D01*
X155243222Y-127731059D01*
X155414132Y-127747892D01*
X155585868Y-127747892D01*
X155756778Y-127731059D01*
X155925215Y-127697555D01*
X156089557Y-127647702D01*
X156248221Y-127581981D01*
X156399680Y-127501025D01*
X156542474Y-127405613D01*
X156675228Y-127296664D01*
X156796664Y-127175228D01*
X156905613Y-127042474D01*
X157001025Y-126899680D01*
X157081981Y-126748221D01*
X157147702Y-126589557D01*
X157197555Y-126425215D01*
X157231059Y-126256778D01*
X157247892Y-126085868D01*
X157247892Y-125914132D01*
X157231059Y-125743222D01*
X157197555Y-125574785D01*
X157147702Y-125410443D01*
X157081981Y-125251779D01*
X157001025Y-125100320D01*
X156905613Y-124957526D01*
X156796664Y-124824772D01*
X156675228Y-124703336D01*
X156542474Y-124594387D01*
X156399680Y-124498975D01*
X156248221Y-124418019D01*
X156089557Y-124352298D01*
X155925215Y-124302445D01*
X155756778Y-124268941D01*
X155585868Y-124252108D01*
X155414132Y-124252108D01*
X155243222Y-124268941D01*
X155074785Y-124302445D01*
X154910443Y-124352298D01*
X154751779Y-124418019D01*
X154600320Y-124498975D01*
X154457526Y-124594387D01*
X154324772Y-124703336D01*
X154203336Y-124824772D01*
X154094387Y-124957526D01*
X153998975Y-125100320D01*
X153918019Y-125251779D01*
X153852298Y-125410443D01*
X153802445Y-125574785D01*
X153768941Y-125743222D01*
X153752108Y-125914132D01*
X152503614Y-125914132D01*
X152503614Y-125852797D01*
X152532470Y-125559809D01*
X152589906Y-125271059D01*
X152675368Y-124989330D01*
X152788032Y-124717335D01*
X152926814Y-124457692D01*
X153090377Y-124212902D01*
X153277147Y-123985323D01*
X153485323Y-123777147D01*
X153712902Y-123590377D01*
X153957692Y-123426814D01*
X154217335Y-123288032D01*
X154489330Y-123175368D01*
X154771059Y-123089906D01*
X155059809Y-123032470D01*
X155352797Y-123003614D01*
X155647203Y-123003614D01*
X155940191Y-123032470D01*
G37*
D11*
X155500000Y-126000000D03*
%TD*%
%TO.C,SW7*%
X169000000Y-124750000D03*
D10*
G36*
X169440191Y-121782470D02*
G01*
X169728941Y-121839906D01*
X170010670Y-121925368D01*
X170282665Y-122038032D01*
X170542308Y-122176814D01*
X170787098Y-122340377D01*
X171014677Y-122527147D01*
X171222853Y-122735323D01*
X171409623Y-122962902D01*
X171573186Y-123207692D01*
X171711968Y-123467335D01*
X171824632Y-123739330D01*
X171910094Y-124021059D01*
X171967530Y-124309809D01*
X171996386Y-124602797D01*
X171996386Y-124690285D01*
X171999247Y-124719333D01*
X171999247Y-124780667D01*
X171996386Y-124809715D01*
X171996386Y-124897203D01*
X171967530Y-125190191D01*
X171910094Y-125478941D01*
X171824632Y-125760670D01*
X171711968Y-126032665D01*
X171573186Y-126292308D01*
X171409623Y-126537098D01*
X171222853Y-126764677D01*
X171014677Y-126972853D01*
X170787098Y-127159623D01*
X170542308Y-127323186D01*
X170282665Y-127461968D01*
X170010670Y-127574632D01*
X169728941Y-127660094D01*
X169440191Y-127717530D01*
X169147203Y-127746386D01*
X168852797Y-127746386D01*
X168559809Y-127717530D01*
X168271059Y-127660094D01*
X167989330Y-127574632D01*
X167717335Y-127461968D01*
X167457692Y-127323186D01*
X167212902Y-127159623D01*
X166985323Y-126972853D01*
X166777147Y-126764677D01*
X166590377Y-126537098D01*
X166426814Y-126292308D01*
X166288032Y-126032665D01*
X166175368Y-125760670D01*
X166089906Y-125478941D01*
X166032470Y-125190191D01*
X166003614Y-124897203D01*
X166003614Y-124664132D01*
X167252108Y-124664132D01*
X167252108Y-124835868D01*
X167268941Y-125006778D01*
X167302445Y-125175215D01*
X167352298Y-125339557D01*
X167418019Y-125498221D01*
X167498975Y-125649680D01*
X167594387Y-125792474D01*
X167703336Y-125925228D01*
X167824772Y-126046664D01*
X167957526Y-126155613D01*
X168100320Y-126251025D01*
X168251779Y-126331981D01*
X168410443Y-126397702D01*
X168574785Y-126447555D01*
X168743222Y-126481059D01*
X168914132Y-126497892D01*
X169085868Y-126497892D01*
X169256778Y-126481059D01*
X169425215Y-126447555D01*
X169589557Y-126397702D01*
X169748221Y-126331981D01*
X169899680Y-126251025D01*
X170042474Y-126155613D01*
X170175228Y-126046664D01*
X170296664Y-125925228D01*
X170405613Y-125792474D01*
X170501025Y-125649680D01*
X170581981Y-125498221D01*
X170647702Y-125339557D01*
X170697555Y-125175215D01*
X170731059Y-125006778D01*
X170747892Y-124835868D01*
X170747892Y-124664132D01*
X170731059Y-124493222D01*
X170697555Y-124324785D01*
X170647702Y-124160443D01*
X170581981Y-124001779D01*
X170501025Y-123850320D01*
X170405613Y-123707526D01*
X170296664Y-123574772D01*
X170175228Y-123453336D01*
X170042474Y-123344387D01*
X169899680Y-123248975D01*
X169748221Y-123168019D01*
X169589557Y-123102298D01*
X169425215Y-123052445D01*
X169256778Y-123018941D01*
X169085868Y-123002108D01*
X168914132Y-123002108D01*
X168743222Y-123018941D01*
X168574785Y-123052445D01*
X168410443Y-123102298D01*
X168251779Y-123168019D01*
X168100320Y-123248975D01*
X167957526Y-123344387D01*
X167824772Y-123453336D01*
X167703336Y-123574772D01*
X167594387Y-123707526D01*
X167498975Y-123850320D01*
X167418019Y-124001779D01*
X167352298Y-124160443D01*
X167302445Y-124324785D01*
X167268941Y-124493222D01*
X167252108Y-124664132D01*
X166003614Y-124664132D01*
X166003614Y-124602797D01*
X166032470Y-124309809D01*
X166089906Y-124021059D01*
X166175368Y-123739330D01*
X166288032Y-123467335D01*
X166426814Y-123207692D01*
X166590377Y-122962902D01*
X166777147Y-122735323D01*
X166985323Y-122527147D01*
X167212902Y-122340377D01*
X167457692Y-122176814D01*
X167717335Y-122038032D01*
X167989330Y-121925368D01*
X168271059Y-121839906D01*
X168559809Y-121782470D01*
X168852797Y-121753614D01*
X169147203Y-121753614D01*
X169440191Y-121782470D01*
G37*
%TD*%
%TO.C,SW8*%
G36*
X143440191Y-130032470D02*
G01*
X143728941Y-130089906D01*
X144010670Y-130175368D01*
X144282665Y-130288032D01*
X144542308Y-130426814D01*
X144787098Y-130590377D01*
X145014677Y-130777147D01*
X145222853Y-130985323D01*
X145409623Y-131212902D01*
X145573186Y-131457692D01*
X145711968Y-131717335D01*
X145824632Y-131989330D01*
X145910094Y-132271059D01*
X145967530Y-132559809D01*
X145996386Y-132852797D01*
X145996386Y-132940285D01*
X145999247Y-132969333D01*
X145999247Y-133030667D01*
X145996386Y-133059715D01*
X145996386Y-133147203D01*
X145967530Y-133440191D01*
X145910094Y-133728941D01*
X145824632Y-134010670D01*
X145711968Y-134282665D01*
X145573186Y-134542308D01*
X145409623Y-134787098D01*
X145222853Y-135014677D01*
X145014677Y-135222853D01*
X144787098Y-135409623D01*
X144542308Y-135573186D01*
X144282665Y-135711968D01*
X144010670Y-135824632D01*
X143728941Y-135910094D01*
X143440191Y-135967530D01*
X143147203Y-135996386D01*
X142852797Y-135996386D01*
X142559809Y-135967530D01*
X142271059Y-135910094D01*
X141989330Y-135824632D01*
X141717335Y-135711968D01*
X141457692Y-135573186D01*
X141212902Y-135409623D01*
X140985323Y-135222853D01*
X140777147Y-135014677D01*
X140590377Y-134787098D01*
X140426814Y-134542308D01*
X140288032Y-134282665D01*
X140175368Y-134010670D01*
X140089906Y-133728941D01*
X140032470Y-133440191D01*
X140003614Y-133147203D01*
X140003614Y-132914132D01*
X141252108Y-132914132D01*
X141252108Y-133085868D01*
X141268941Y-133256778D01*
X141302445Y-133425215D01*
X141352298Y-133589557D01*
X141418019Y-133748221D01*
X141498975Y-133899680D01*
X141594387Y-134042474D01*
X141703336Y-134175228D01*
X141824772Y-134296664D01*
X141957526Y-134405613D01*
X142100320Y-134501025D01*
X142251779Y-134581981D01*
X142410443Y-134647702D01*
X142574785Y-134697555D01*
X142743222Y-134731059D01*
X142914132Y-134747892D01*
X143085868Y-134747892D01*
X143256778Y-134731059D01*
X143425215Y-134697555D01*
X143589557Y-134647702D01*
X143748221Y-134581981D01*
X143899680Y-134501025D01*
X144042474Y-134405613D01*
X144175228Y-134296664D01*
X144296664Y-134175228D01*
X144405613Y-134042474D01*
X144501025Y-133899680D01*
X144581981Y-133748221D01*
X144647702Y-133589557D01*
X144697555Y-133425215D01*
X144731059Y-133256778D01*
X144747892Y-133085868D01*
X144747892Y-132914132D01*
X144731059Y-132743222D01*
X144697555Y-132574785D01*
X144647702Y-132410443D01*
X144581981Y-132251779D01*
X144501025Y-132100320D01*
X144405613Y-131957526D01*
X144296664Y-131824772D01*
X144175228Y-131703336D01*
X144042474Y-131594387D01*
X143899680Y-131498975D01*
X143748221Y-131418019D01*
X143589557Y-131352298D01*
X143425215Y-131302445D01*
X143256778Y-131268941D01*
X143085868Y-131252108D01*
X142914132Y-131252108D01*
X142743222Y-131268941D01*
X142574785Y-131302445D01*
X142410443Y-131352298D01*
X142251779Y-131418019D01*
X142100320Y-131498975D01*
X141957526Y-131594387D01*
X141824772Y-131703336D01*
X141703336Y-131824772D01*
X141594387Y-131957526D01*
X141498975Y-132100320D01*
X141418019Y-132251779D01*
X141352298Y-132410443D01*
X141302445Y-132574785D01*
X141268941Y-132743222D01*
X141252108Y-132914132D01*
X140003614Y-132914132D01*
X140003614Y-132852797D01*
X140032470Y-132559809D01*
X140089906Y-132271059D01*
X140175368Y-131989330D01*
X140288032Y-131717335D01*
X140426814Y-131457692D01*
X140590377Y-131212902D01*
X140777147Y-130985323D01*
X140985323Y-130777147D01*
X141212902Y-130590377D01*
X141457692Y-130426814D01*
X141717335Y-130288032D01*
X141989330Y-130175368D01*
X142271059Y-130089906D01*
X142559809Y-130032470D01*
X142852797Y-130003614D01*
X143147203Y-130003614D01*
X143440191Y-130032470D01*
G37*
D11*
X143000000Y-133000000D03*
%TD*%
%TO.C,SW9*%
X155500000Y-134000000D03*
D10*
G36*
X155940191Y-131032470D02*
G01*
X156228941Y-131089906D01*
X156510670Y-131175368D01*
X156782665Y-131288032D01*
X157042308Y-131426814D01*
X157287098Y-131590377D01*
X157514677Y-131777147D01*
X157722853Y-131985323D01*
X157909623Y-132212902D01*
X158073186Y-132457692D01*
X158211968Y-132717335D01*
X158324632Y-132989330D01*
X158410094Y-133271059D01*
X158467530Y-133559809D01*
X158496386Y-133852797D01*
X158496386Y-133940285D01*
X158499247Y-133969333D01*
X158499247Y-134030667D01*
X158496386Y-134059715D01*
X158496386Y-134147203D01*
X158467530Y-134440191D01*
X158410094Y-134728941D01*
X158324632Y-135010670D01*
X158211968Y-135282665D01*
X158073186Y-135542308D01*
X157909623Y-135787098D01*
X157722853Y-136014677D01*
X157514677Y-136222853D01*
X157287098Y-136409623D01*
X157042308Y-136573186D01*
X156782665Y-136711968D01*
X156510670Y-136824632D01*
X156228941Y-136910094D01*
X155940191Y-136967530D01*
X155647203Y-136996386D01*
X155352797Y-136996386D01*
X155059809Y-136967530D01*
X154771059Y-136910094D01*
X154489330Y-136824632D01*
X154217335Y-136711968D01*
X153957692Y-136573186D01*
X153712902Y-136409623D01*
X153485323Y-136222853D01*
X153277147Y-136014677D01*
X153090377Y-135787098D01*
X152926814Y-135542308D01*
X152788032Y-135282665D01*
X152675368Y-135010670D01*
X152589906Y-134728941D01*
X152532470Y-134440191D01*
X152503614Y-134147203D01*
X152503614Y-133914132D01*
X153752108Y-133914132D01*
X153752108Y-134085868D01*
X153768941Y-134256778D01*
X153802445Y-134425215D01*
X153852298Y-134589557D01*
X153918019Y-134748221D01*
X153998975Y-134899680D01*
X154094387Y-135042474D01*
X154203336Y-135175228D01*
X154324772Y-135296664D01*
X154457526Y-135405613D01*
X154600320Y-135501025D01*
X154751779Y-135581981D01*
X154910443Y-135647702D01*
X155074785Y-135697555D01*
X155243222Y-135731059D01*
X155414132Y-135747892D01*
X155585868Y-135747892D01*
X155756778Y-135731059D01*
X155925215Y-135697555D01*
X156089557Y-135647702D01*
X156248221Y-135581981D01*
X156399680Y-135501025D01*
X156542474Y-135405613D01*
X156675228Y-135296664D01*
X156796664Y-135175228D01*
X156905613Y-135042474D01*
X157001025Y-134899680D01*
X157081981Y-134748221D01*
X157147702Y-134589557D01*
X157197555Y-134425215D01*
X157231059Y-134256778D01*
X157247892Y-134085868D01*
X157247892Y-133914132D01*
X157231059Y-133743222D01*
X157197555Y-133574785D01*
X157147702Y-133410443D01*
X157081981Y-133251779D01*
X157001025Y-133100320D01*
X156905613Y-132957526D01*
X156796664Y-132824772D01*
X156675228Y-132703336D01*
X156542474Y-132594387D01*
X156399680Y-132498975D01*
X156248221Y-132418019D01*
X156089557Y-132352298D01*
X155925215Y-132302445D01*
X155756778Y-132268941D01*
X155585868Y-132252108D01*
X155414132Y-132252108D01*
X155243222Y-132268941D01*
X155074785Y-132302445D01*
X154910443Y-132352298D01*
X154751779Y-132418019D01*
X154600320Y-132498975D01*
X154457526Y-132594387D01*
X154324772Y-132703336D01*
X154203336Y-132824772D01*
X154094387Y-132957526D01*
X153998975Y-133100320D01*
X153918019Y-133251779D01*
X153852298Y-133410443D01*
X153802445Y-133574785D01*
X153768941Y-133743222D01*
X153752108Y-133914132D01*
X152503614Y-133914132D01*
X152503614Y-133852797D01*
X152532470Y-133559809D01*
X152589906Y-133271059D01*
X152675368Y-132989330D01*
X152788032Y-132717335D01*
X152926814Y-132457692D01*
X153090377Y-132212902D01*
X153277147Y-131985323D01*
X153485323Y-131777147D01*
X153712902Y-131590377D01*
X153957692Y-131426814D01*
X154217335Y-131288032D01*
X154489330Y-131175368D01*
X154771059Y-131089906D01*
X155059809Y-131032470D01*
X155352797Y-131003614D01*
X155647203Y-131003614D01*
X155940191Y-131032470D01*
G37*
%TD*%
D11*
%TO.C,SW11*%
X142600000Y-140750000D03*
D10*
G36*
X143040191Y-137782470D02*
G01*
X143328941Y-137839906D01*
X143610670Y-137925368D01*
X143882665Y-138038032D01*
X144142308Y-138176814D01*
X144387098Y-138340377D01*
X144614677Y-138527147D01*
X144822853Y-138735323D01*
X145009623Y-138962902D01*
X145173186Y-139207692D01*
X145311968Y-139467335D01*
X145424632Y-139739330D01*
X145510094Y-140021059D01*
X145567530Y-140309809D01*
X145596386Y-140602797D01*
X145596386Y-140690285D01*
X145599247Y-140719333D01*
X145599247Y-140780667D01*
X145596386Y-140809715D01*
X145596386Y-140897203D01*
X145567530Y-141190191D01*
X145510094Y-141478941D01*
X145424632Y-141760670D01*
X145311968Y-142032665D01*
X145173186Y-142292308D01*
X145009623Y-142537098D01*
X144822853Y-142764677D01*
X144614677Y-142972853D01*
X144387098Y-143159623D01*
X144142308Y-143323186D01*
X143882665Y-143461968D01*
X143610670Y-143574632D01*
X143328941Y-143660094D01*
X143040191Y-143717530D01*
X142747203Y-143746386D01*
X142452797Y-143746386D01*
X142159809Y-143717530D01*
X141871059Y-143660094D01*
X141589330Y-143574632D01*
X141317335Y-143461968D01*
X141057692Y-143323186D01*
X140812902Y-143159623D01*
X140585323Y-142972853D01*
X140377147Y-142764677D01*
X140190377Y-142537098D01*
X140026814Y-142292308D01*
X139888032Y-142032665D01*
X139775368Y-141760670D01*
X139689906Y-141478941D01*
X139632470Y-141190191D01*
X139603614Y-140897203D01*
X139603614Y-140664132D01*
X140852108Y-140664132D01*
X140852108Y-140835868D01*
X140868941Y-141006778D01*
X140902445Y-141175215D01*
X140952298Y-141339557D01*
X141018019Y-141498221D01*
X141098975Y-141649680D01*
X141194387Y-141792474D01*
X141303336Y-141925228D01*
X141424772Y-142046664D01*
X141557526Y-142155613D01*
X141700320Y-142251025D01*
X141851779Y-142331981D01*
X142010443Y-142397702D01*
X142174785Y-142447555D01*
X142343222Y-142481059D01*
X142514132Y-142497892D01*
X142685868Y-142497892D01*
X142856778Y-142481059D01*
X143025215Y-142447555D01*
X143189557Y-142397702D01*
X143348221Y-142331981D01*
X143499680Y-142251025D01*
X143642474Y-142155613D01*
X143775228Y-142046664D01*
X143896664Y-141925228D01*
X144005613Y-141792474D01*
X144101025Y-141649680D01*
X144181981Y-141498221D01*
X144247702Y-141339557D01*
X144297555Y-141175215D01*
X144331059Y-141006778D01*
X144347892Y-140835868D01*
X144347892Y-140664132D01*
X144331059Y-140493222D01*
X144297555Y-140324785D01*
X144247702Y-140160443D01*
X144181981Y-140001779D01*
X144101025Y-139850320D01*
X144005613Y-139707526D01*
X143896664Y-139574772D01*
X143775228Y-139453336D01*
X143642474Y-139344387D01*
X143499680Y-139248975D01*
X143348221Y-139168019D01*
X143189557Y-139102298D01*
X143025215Y-139052445D01*
X142856778Y-139018941D01*
X142685868Y-139002108D01*
X142514132Y-139002108D01*
X142343222Y-139018941D01*
X142174785Y-139052445D01*
X142010443Y-139102298D01*
X141851779Y-139168019D01*
X141700320Y-139248975D01*
X141557526Y-139344387D01*
X141424772Y-139453336D01*
X141303336Y-139574772D01*
X141194387Y-139707526D01*
X141098975Y-139850320D01*
X141018019Y-140001779D01*
X140952298Y-140160443D01*
X140902445Y-140324785D01*
X140868941Y-140493222D01*
X140852108Y-140664132D01*
X139603614Y-140664132D01*
X139603614Y-140602797D01*
X139632470Y-140309809D01*
X139689906Y-140021059D01*
X139775368Y-139739330D01*
X139888032Y-139467335D01*
X140026814Y-139207692D01*
X140190377Y-138962902D01*
X140377147Y-138735323D01*
X140585323Y-138527147D01*
X140812902Y-138340377D01*
X141057692Y-138176814D01*
X141317335Y-138038032D01*
X141589330Y-137925368D01*
X141871059Y-137839906D01*
X142159809Y-137782470D01*
X142452797Y-137753614D01*
X142747203Y-137753614D01*
X143040191Y-137782470D01*
G37*
%TD*%
%TO.C,SW12*%
G36*
X155940191Y-139032470D02*
G01*
X156228941Y-139089906D01*
X156510670Y-139175368D01*
X156782665Y-139288032D01*
X157042308Y-139426814D01*
X157287098Y-139590377D01*
X157514677Y-139777147D01*
X157722853Y-139985323D01*
X157909623Y-140212902D01*
X158073186Y-140457692D01*
X158211968Y-140717335D01*
X158324632Y-140989330D01*
X158410094Y-141271059D01*
X158467530Y-141559809D01*
X158496386Y-141852797D01*
X158496386Y-141940285D01*
X158499247Y-141969333D01*
X158499247Y-142030667D01*
X158496386Y-142059715D01*
X158496386Y-142147203D01*
X158467530Y-142440191D01*
X158410094Y-142728941D01*
X158324632Y-143010670D01*
X158211968Y-143282665D01*
X158073186Y-143542308D01*
X157909623Y-143787098D01*
X157722853Y-144014677D01*
X157514677Y-144222853D01*
X157287098Y-144409623D01*
X157042308Y-144573186D01*
X156782665Y-144711968D01*
X156510670Y-144824632D01*
X156228941Y-144910094D01*
X155940191Y-144967530D01*
X155647203Y-144996386D01*
X155352797Y-144996386D01*
X155059809Y-144967530D01*
X154771059Y-144910094D01*
X154489330Y-144824632D01*
X154217335Y-144711968D01*
X153957692Y-144573186D01*
X153712902Y-144409623D01*
X153485323Y-144222853D01*
X153277147Y-144014677D01*
X153090377Y-143787098D01*
X152926814Y-143542308D01*
X152788032Y-143282665D01*
X152675368Y-143010670D01*
X152589906Y-142728941D01*
X152532470Y-142440191D01*
X152503614Y-142147203D01*
X152503614Y-141914132D01*
X153752108Y-141914132D01*
X153752108Y-142085868D01*
X153768941Y-142256778D01*
X153802445Y-142425215D01*
X153852298Y-142589557D01*
X153918019Y-142748221D01*
X153998975Y-142899680D01*
X154094387Y-143042474D01*
X154203336Y-143175228D01*
X154324772Y-143296664D01*
X154457526Y-143405613D01*
X154600320Y-143501025D01*
X154751779Y-143581981D01*
X154910443Y-143647702D01*
X155074785Y-143697555D01*
X155243222Y-143731059D01*
X155414132Y-143747892D01*
X155585868Y-143747892D01*
X155756778Y-143731059D01*
X155925215Y-143697555D01*
X156089557Y-143647702D01*
X156248221Y-143581981D01*
X156399680Y-143501025D01*
X156542474Y-143405613D01*
X156675228Y-143296664D01*
X156796664Y-143175228D01*
X156905613Y-143042474D01*
X157001025Y-142899680D01*
X157081981Y-142748221D01*
X157147702Y-142589557D01*
X157197555Y-142425215D01*
X157231059Y-142256778D01*
X157247892Y-142085868D01*
X157247892Y-141914132D01*
X157231059Y-141743222D01*
X157197555Y-141574785D01*
X157147702Y-141410443D01*
X157081981Y-141251779D01*
X157001025Y-141100320D01*
X156905613Y-140957526D01*
X156796664Y-140824772D01*
X156675228Y-140703336D01*
X156542474Y-140594387D01*
X156399680Y-140498975D01*
X156248221Y-140418019D01*
X156089557Y-140352298D01*
X155925215Y-140302445D01*
X155756778Y-140268941D01*
X155585868Y-140252108D01*
X155414132Y-140252108D01*
X155243222Y-140268941D01*
X155074785Y-140302445D01*
X154910443Y-140352298D01*
X154751779Y-140418019D01*
X154600320Y-140498975D01*
X154457526Y-140594387D01*
X154324772Y-140703336D01*
X154203336Y-140824772D01*
X154094387Y-140957526D01*
X153998975Y-141100320D01*
X153918019Y-141251779D01*
X153852298Y-141410443D01*
X153802445Y-141574785D01*
X153768941Y-141743222D01*
X153752108Y-141914132D01*
X152503614Y-141914132D01*
X152503614Y-141852797D01*
X152532470Y-141559809D01*
X152589906Y-141271059D01*
X152675368Y-140989330D01*
X152788032Y-140717335D01*
X152926814Y-140457692D01*
X153090377Y-140212902D01*
X153277147Y-139985323D01*
X153485323Y-139777147D01*
X153712902Y-139590377D01*
X153957692Y-139426814D01*
X154217335Y-139288032D01*
X154489330Y-139175368D01*
X154771059Y-139089906D01*
X155059809Y-139032470D01*
X155352797Y-139003614D01*
X155647203Y-139003614D01*
X155940191Y-139032470D01*
G37*
D11*
X155500000Y-142000000D03*
%TD*%
%TO.C,SW13*%
X168400000Y-140750000D03*
D10*
G36*
X168840191Y-137782470D02*
G01*
X169128941Y-137839906D01*
X169410670Y-137925368D01*
X169682665Y-138038032D01*
X169942308Y-138176814D01*
X170187098Y-138340377D01*
X170414677Y-138527147D01*
X170622853Y-138735323D01*
X170809623Y-138962902D01*
X170973186Y-139207692D01*
X171111968Y-139467335D01*
X171224632Y-139739330D01*
X171310094Y-140021059D01*
X171367530Y-140309809D01*
X171396386Y-140602797D01*
X171396386Y-140690285D01*
X171399247Y-140719333D01*
X171399247Y-140780667D01*
X171396386Y-140809715D01*
X171396386Y-140897203D01*
X171367530Y-141190191D01*
X171310094Y-141478941D01*
X171224632Y-141760670D01*
X171111968Y-142032665D01*
X170973186Y-142292308D01*
X170809623Y-142537098D01*
X170622853Y-142764677D01*
X170414677Y-142972853D01*
X170187098Y-143159623D01*
X169942308Y-143323186D01*
X169682665Y-143461968D01*
X169410670Y-143574632D01*
X169128941Y-143660094D01*
X168840191Y-143717530D01*
X168547203Y-143746386D01*
X168252797Y-143746386D01*
X167959809Y-143717530D01*
X167671059Y-143660094D01*
X167389330Y-143574632D01*
X167117335Y-143461968D01*
X166857692Y-143323186D01*
X166612902Y-143159623D01*
X166385323Y-142972853D01*
X166177147Y-142764677D01*
X165990377Y-142537098D01*
X165826814Y-142292308D01*
X165688032Y-142032665D01*
X165575368Y-141760670D01*
X165489906Y-141478941D01*
X165432470Y-141190191D01*
X165403614Y-140897203D01*
X165403614Y-140664132D01*
X166652108Y-140664132D01*
X166652108Y-140835868D01*
X166668941Y-141006778D01*
X166702445Y-141175215D01*
X166752298Y-141339557D01*
X166818019Y-141498221D01*
X166898975Y-141649680D01*
X166994387Y-141792474D01*
X167103336Y-141925228D01*
X167224772Y-142046664D01*
X167357526Y-142155613D01*
X167500320Y-142251025D01*
X167651779Y-142331981D01*
X167810443Y-142397702D01*
X167974785Y-142447555D01*
X168143222Y-142481059D01*
X168314132Y-142497892D01*
X168485868Y-142497892D01*
X168656778Y-142481059D01*
X168825215Y-142447555D01*
X168989557Y-142397702D01*
X169148221Y-142331981D01*
X169299680Y-142251025D01*
X169442474Y-142155613D01*
X169575228Y-142046664D01*
X169696664Y-141925228D01*
X169805613Y-141792474D01*
X169901025Y-141649680D01*
X169981981Y-141498221D01*
X170047702Y-141339557D01*
X170097555Y-141175215D01*
X170131059Y-141006778D01*
X170147892Y-140835868D01*
X170147892Y-140664132D01*
X170131059Y-140493222D01*
X170097555Y-140324785D01*
X170047702Y-140160443D01*
X169981981Y-140001779D01*
X169901025Y-139850320D01*
X169805613Y-139707526D01*
X169696664Y-139574772D01*
X169575228Y-139453336D01*
X169442474Y-139344387D01*
X169299680Y-139248975D01*
X169148221Y-139168019D01*
X168989557Y-139102298D01*
X168825215Y-139052445D01*
X168656778Y-139018941D01*
X168485868Y-139002108D01*
X168314132Y-139002108D01*
X168143222Y-139018941D01*
X167974785Y-139052445D01*
X167810443Y-139102298D01*
X167651779Y-139168019D01*
X167500320Y-139248975D01*
X167357526Y-139344387D01*
X167224772Y-139453336D01*
X167103336Y-139574772D01*
X166994387Y-139707526D01*
X166898975Y-139850320D01*
X166818019Y-140001779D01*
X166752298Y-140160443D01*
X166702445Y-140324785D01*
X166668941Y-140493222D01*
X166652108Y-140664132D01*
X165403614Y-140664132D01*
X165403614Y-140602797D01*
X165432470Y-140309809D01*
X165489906Y-140021059D01*
X165575368Y-139739330D01*
X165688032Y-139467335D01*
X165826814Y-139207692D01*
X165990377Y-138962902D01*
X166177147Y-138735323D01*
X166385323Y-138527147D01*
X166612902Y-138340377D01*
X166857692Y-138176814D01*
X167117335Y-138038032D01*
X167389330Y-137925368D01*
X167671059Y-137839906D01*
X167959809Y-137782470D01*
X168252797Y-137753614D01*
X168547203Y-137753614D01*
X168840191Y-137782470D01*
G37*
%TD*%
%TO.C,SW14*%
G36*
X143440191Y-145782470D02*
G01*
X143728941Y-145839906D01*
X144010670Y-145925368D01*
X144282665Y-146038032D01*
X144542308Y-146176814D01*
X144787098Y-146340377D01*
X145014677Y-146527147D01*
X145222853Y-146735323D01*
X145409623Y-146962902D01*
X145573186Y-147207692D01*
X145711968Y-147467335D01*
X145824632Y-147739330D01*
X145910094Y-148021059D01*
X145967530Y-148309809D01*
X145996386Y-148602797D01*
X145996386Y-148690285D01*
X145999247Y-148719333D01*
X145999247Y-148780667D01*
X145996386Y-148809715D01*
X145996386Y-148897203D01*
X145967530Y-149190191D01*
X145910094Y-149478941D01*
X145824632Y-149760670D01*
X145711968Y-150032665D01*
X145573186Y-150292308D01*
X145409623Y-150537098D01*
X145222853Y-150764677D01*
X145014677Y-150972853D01*
X144787098Y-151159623D01*
X144542308Y-151323186D01*
X144282665Y-151461968D01*
X144010670Y-151574632D01*
X143728941Y-151660094D01*
X143440191Y-151717530D01*
X143147203Y-151746386D01*
X142852797Y-151746386D01*
X142559809Y-151717530D01*
X142271059Y-151660094D01*
X141989330Y-151574632D01*
X141717335Y-151461968D01*
X141457692Y-151323186D01*
X141212902Y-151159623D01*
X140985323Y-150972853D01*
X140777147Y-150764677D01*
X140590377Y-150537098D01*
X140426814Y-150292308D01*
X140288032Y-150032665D01*
X140175368Y-149760670D01*
X140089906Y-149478941D01*
X140032470Y-149190191D01*
X140003614Y-148897203D01*
X140003614Y-148664132D01*
X141252108Y-148664132D01*
X141252108Y-148835868D01*
X141268941Y-149006778D01*
X141302445Y-149175215D01*
X141352298Y-149339557D01*
X141418019Y-149498221D01*
X141498975Y-149649680D01*
X141594387Y-149792474D01*
X141703336Y-149925228D01*
X141824772Y-150046664D01*
X141957526Y-150155613D01*
X142100320Y-150251025D01*
X142251779Y-150331981D01*
X142410443Y-150397702D01*
X142574785Y-150447555D01*
X142743222Y-150481059D01*
X142914132Y-150497892D01*
X143085868Y-150497892D01*
X143256778Y-150481059D01*
X143425215Y-150447555D01*
X143589557Y-150397702D01*
X143748221Y-150331981D01*
X143899680Y-150251025D01*
X144042474Y-150155613D01*
X144175228Y-150046664D01*
X144296664Y-149925228D01*
X144405613Y-149792474D01*
X144501025Y-149649680D01*
X144581981Y-149498221D01*
X144647702Y-149339557D01*
X144697555Y-149175215D01*
X144731059Y-149006778D01*
X144747892Y-148835868D01*
X144747892Y-148664132D01*
X144731059Y-148493222D01*
X144697555Y-148324785D01*
X144647702Y-148160443D01*
X144581981Y-148001779D01*
X144501025Y-147850320D01*
X144405613Y-147707526D01*
X144296664Y-147574772D01*
X144175228Y-147453336D01*
X144042474Y-147344387D01*
X143899680Y-147248975D01*
X143748221Y-147168019D01*
X143589557Y-147102298D01*
X143425215Y-147052445D01*
X143256778Y-147018941D01*
X143085868Y-147002108D01*
X142914132Y-147002108D01*
X142743222Y-147018941D01*
X142574785Y-147052445D01*
X142410443Y-147102298D01*
X142251779Y-147168019D01*
X142100320Y-147248975D01*
X141957526Y-147344387D01*
X141824772Y-147453336D01*
X141703336Y-147574772D01*
X141594387Y-147707526D01*
X141498975Y-147850320D01*
X141418019Y-148001779D01*
X141352298Y-148160443D01*
X141302445Y-148324785D01*
X141268941Y-148493222D01*
X141252108Y-148664132D01*
X140003614Y-148664132D01*
X140003614Y-148602797D01*
X140032470Y-148309809D01*
X140089906Y-148021059D01*
X140175368Y-147739330D01*
X140288032Y-147467335D01*
X140426814Y-147207692D01*
X140590377Y-146962902D01*
X140777147Y-146735323D01*
X140985323Y-146527147D01*
X141212902Y-146340377D01*
X141457692Y-146176814D01*
X141717335Y-146038032D01*
X141989330Y-145925368D01*
X142271059Y-145839906D01*
X142559809Y-145782470D01*
X142852797Y-145753614D01*
X143147203Y-145753614D01*
X143440191Y-145782470D01*
G37*
D11*
X143000000Y-148750000D03*
%TD*%
%TO.C,SW15*%
X155500000Y-150000000D03*
D10*
G36*
X155940191Y-147032470D02*
G01*
X156228941Y-147089906D01*
X156510670Y-147175368D01*
X156782665Y-147288032D01*
X157042308Y-147426814D01*
X157287098Y-147590377D01*
X157514677Y-147777147D01*
X157722853Y-147985323D01*
X157909623Y-148212902D01*
X158073186Y-148457692D01*
X158211968Y-148717335D01*
X158324632Y-148989330D01*
X158410094Y-149271059D01*
X158467530Y-149559809D01*
X158496386Y-149852797D01*
X158496386Y-149940285D01*
X158499247Y-149969333D01*
X158499247Y-150030667D01*
X158496386Y-150059715D01*
X158496386Y-150147203D01*
X158467530Y-150440191D01*
X158410094Y-150728941D01*
X158324632Y-151010670D01*
X158211968Y-151282665D01*
X158073186Y-151542308D01*
X157909623Y-151787098D01*
X157722853Y-152014677D01*
X157514677Y-152222853D01*
X157287098Y-152409623D01*
X157042308Y-152573186D01*
X156782665Y-152711968D01*
X156510670Y-152824632D01*
X156228941Y-152910094D01*
X155940191Y-152967530D01*
X155647203Y-152996386D01*
X155352797Y-152996386D01*
X155059809Y-152967530D01*
X154771059Y-152910094D01*
X154489330Y-152824632D01*
X154217335Y-152711968D01*
X153957692Y-152573186D01*
X153712902Y-152409623D01*
X153485323Y-152222853D01*
X153277147Y-152014677D01*
X153090377Y-151787098D01*
X152926814Y-151542308D01*
X152788032Y-151282665D01*
X152675368Y-151010670D01*
X152589906Y-150728941D01*
X152532470Y-150440191D01*
X152503614Y-150147203D01*
X152503614Y-149914132D01*
X153752108Y-149914132D01*
X153752108Y-150085868D01*
X153768941Y-150256778D01*
X153802445Y-150425215D01*
X153852298Y-150589557D01*
X153918019Y-150748221D01*
X153998975Y-150899680D01*
X154094387Y-151042474D01*
X154203336Y-151175228D01*
X154324772Y-151296664D01*
X154457526Y-151405613D01*
X154600320Y-151501025D01*
X154751779Y-151581981D01*
X154910443Y-151647702D01*
X155074785Y-151697555D01*
X155243222Y-151731059D01*
X155414132Y-151747892D01*
X155585868Y-151747892D01*
X155756778Y-151731059D01*
X155925215Y-151697555D01*
X156089557Y-151647702D01*
X156248221Y-151581981D01*
X156399680Y-151501025D01*
X156542474Y-151405613D01*
X156675228Y-151296664D01*
X156796664Y-151175228D01*
X156905613Y-151042474D01*
X157001025Y-150899680D01*
X157081981Y-150748221D01*
X157147702Y-150589557D01*
X157197555Y-150425215D01*
X157231059Y-150256778D01*
X157247892Y-150085868D01*
X157247892Y-149914132D01*
X157231059Y-149743222D01*
X157197555Y-149574785D01*
X157147702Y-149410443D01*
X157081981Y-149251779D01*
X157001025Y-149100320D01*
X156905613Y-148957526D01*
X156796664Y-148824772D01*
X156675228Y-148703336D01*
X156542474Y-148594387D01*
X156399680Y-148498975D01*
X156248221Y-148418019D01*
X156089557Y-148352298D01*
X155925215Y-148302445D01*
X155756778Y-148268941D01*
X155585868Y-148252108D01*
X155414132Y-148252108D01*
X155243222Y-148268941D01*
X155074785Y-148302445D01*
X154910443Y-148352298D01*
X154751779Y-148418019D01*
X154600320Y-148498975D01*
X154457526Y-148594387D01*
X154324772Y-148703336D01*
X154203336Y-148824772D01*
X154094387Y-148957526D01*
X153998975Y-149100320D01*
X153918019Y-149251779D01*
X153852298Y-149410443D01*
X153802445Y-149574785D01*
X153768941Y-149743222D01*
X153752108Y-149914132D01*
X152503614Y-149914132D01*
X152503614Y-149852797D01*
X152532470Y-149559809D01*
X152589906Y-149271059D01*
X152675368Y-148989330D01*
X152788032Y-148717335D01*
X152926814Y-148457692D01*
X153090377Y-148212902D01*
X153277147Y-147985323D01*
X153485323Y-147777147D01*
X153712902Y-147590377D01*
X153957692Y-147426814D01*
X154217335Y-147288032D01*
X154489330Y-147175368D01*
X154771059Y-147089906D01*
X155059809Y-147032470D01*
X155352797Y-147003614D01*
X155647203Y-147003614D01*
X155940191Y-147032470D01*
G37*
%TD*%
%TO.C,SW16*%
G36*
X168440191Y-145782470D02*
G01*
X168728941Y-145839906D01*
X169010670Y-145925368D01*
X169282665Y-146038032D01*
X169542308Y-146176814D01*
X169787098Y-146340377D01*
X170014677Y-146527147D01*
X170222853Y-146735323D01*
X170409623Y-146962902D01*
X170573186Y-147207692D01*
X170711968Y-147467335D01*
X170824632Y-147739330D01*
X170910094Y-148021059D01*
X170967530Y-148309809D01*
X170996386Y-148602797D01*
X170996386Y-148690285D01*
X170999247Y-148719333D01*
X170999247Y-148780667D01*
X170996386Y-148809715D01*
X170996386Y-148897203D01*
X170967530Y-149190191D01*
X170910094Y-149478941D01*
X170824632Y-149760670D01*
X170711968Y-150032665D01*
X170573186Y-150292308D01*
X170409623Y-150537098D01*
X170222853Y-150764677D01*
X170014677Y-150972853D01*
X169787098Y-151159623D01*
X169542308Y-151323186D01*
X169282665Y-151461968D01*
X169010670Y-151574632D01*
X168728941Y-151660094D01*
X168440191Y-151717530D01*
X168147203Y-151746386D01*
X167852797Y-151746386D01*
X167559809Y-151717530D01*
X167271059Y-151660094D01*
X166989330Y-151574632D01*
X166717335Y-151461968D01*
X166457692Y-151323186D01*
X166212902Y-151159623D01*
X165985323Y-150972853D01*
X165777147Y-150764677D01*
X165590377Y-150537098D01*
X165426814Y-150292308D01*
X165288032Y-150032665D01*
X165175368Y-149760670D01*
X165089906Y-149478941D01*
X165032470Y-149190191D01*
X165003614Y-148897203D01*
X165003614Y-148664132D01*
X166252108Y-148664132D01*
X166252108Y-148835868D01*
X166268941Y-149006778D01*
X166302445Y-149175215D01*
X166352298Y-149339557D01*
X166418019Y-149498221D01*
X166498975Y-149649680D01*
X166594387Y-149792474D01*
X166703336Y-149925228D01*
X166824772Y-150046664D01*
X166957526Y-150155613D01*
X167100320Y-150251025D01*
X167251779Y-150331981D01*
X167410443Y-150397702D01*
X167574785Y-150447555D01*
X167743222Y-150481059D01*
X167914132Y-150497892D01*
X168085868Y-150497892D01*
X168256778Y-150481059D01*
X168425215Y-150447555D01*
X168589557Y-150397702D01*
X168748221Y-150331981D01*
X168899680Y-150251025D01*
X169042474Y-150155613D01*
X169175228Y-150046664D01*
X169296664Y-149925228D01*
X169405613Y-149792474D01*
X169501025Y-149649680D01*
X169581981Y-149498221D01*
X169647702Y-149339557D01*
X169697555Y-149175215D01*
X169731059Y-149006778D01*
X169747892Y-148835868D01*
X169747892Y-148664132D01*
X169731059Y-148493222D01*
X169697555Y-148324785D01*
X169647702Y-148160443D01*
X169581981Y-148001779D01*
X169501025Y-147850320D01*
X169405613Y-147707526D01*
X169296664Y-147574772D01*
X169175228Y-147453336D01*
X169042474Y-147344387D01*
X168899680Y-147248975D01*
X168748221Y-147168019D01*
X168589557Y-147102298D01*
X168425215Y-147052445D01*
X168256778Y-147018941D01*
X168085868Y-147002108D01*
X167914132Y-147002108D01*
X167743222Y-147018941D01*
X167574785Y-147052445D01*
X167410443Y-147102298D01*
X167251779Y-147168019D01*
X167100320Y-147248975D01*
X166957526Y-147344387D01*
X166824772Y-147453336D01*
X166703336Y-147574772D01*
X166594387Y-147707526D01*
X166498975Y-147850320D01*
X166418019Y-148001779D01*
X166352298Y-148160443D01*
X166302445Y-148324785D01*
X166268941Y-148493222D01*
X166252108Y-148664132D01*
X165003614Y-148664132D01*
X165003614Y-148602797D01*
X165032470Y-148309809D01*
X165089906Y-148021059D01*
X165175368Y-147739330D01*
X165288032Y-147467335D01*
X165426814Y-147207692D01*
X165590377Y-146962902D01*
X165777147Y-146735323D01*
X165985323Y-146527147D01*
X166212902Y-146340377D01*
X166457692Y-146176814D01*
X166717335Y-146038032D01*
X166989330Y-145925368D01*
X167271059Y-145839906D01*
X167559809Y-145782470D01*
X167852797Y-145753614D01*
X168147203Y-145753614D01*
X168440191Y-145782470D01*
G37*
D11*
X168000000Y-148750000D03*
%TD*%
M02*
