%TF.GenerationSoftware,KiCad,Pcbnew,(5.1.9)-1*%
%TF.CreationDate,2021-01-14T19:29:22+00:00*%
%TF.ProjectId,Nokia_3310_Controller,4e6f6b69-615f-4333-9331-305f436f6e74,rev?*%
%TF.SameCoordinates,Original*%
%TF.FileFunction,Soldermask,Bot*%
%TF.FilePolarity,Negative*%
%FSLAX46Y46*%
G04 Gerber Fmt 4.6, Leading zero omitted, Abs format (unit mm)*
G04 Created by KiCad (PCBNEW (5.1.9)-1) date 2021-01-14 19:29:22*
%MOMM*%
%LPD*%
G01*
G04 APERTURE LIST*
%ADD10C,2.000000*%
%ADD11R,1.700000X1.000000*%
%ADD12C,1.600000*%
%ADD13R,1.600000X1.600000*%
%ADD14R,1.200000X1.200000*%
%ADD15R,1.500000X0.550000*%
%ADD16R,0.550000X1.500000*%
%ADD17C,0.100000*%
%ADD18O,1.000000X1.600000*%
%ADD19C,0.650000*%
%ADD20O,1.000000X2.100000*%
%ADD21R,0.300000X1.450000*%
%ADD22R,0.600000X1.450000*%
G04 APERTURE END LIST*
D10*
%TO.C,NPTH*%
X174500000Y-135000000D03*
%TD*%
%TO.C,NPTH*%
X172500000Y-57000000D03*
%TD*%
%TO.C,NPTH*%
X138500000Y-57000000D03*
%TD*%
%TO.C,NPTH*%
X136500000Y-135000000D03*
%TD*%
%TO.C,NPTH*%
X141500000Y-155000000D03*
%TD*%
%TO.C,NPTH*%
X169500000Y-155000000D03*
%TD*%
D11*
%TO.C,SW_RST1*%
X152650000Y-100300000D03*
X158950000Y-100300000D03*
X152650000Y-96500000D03*
X158950000Y-96500000D03*
%TD*%
%TO.C,R6*%
G36*
G01*
X167850001Y-67400000D02*
X166949999Y-67400000D01*
G75*
G02*
X166700000Y-67150001I0J249999D01*
G01*
X166700000Y-66449999D01*
G75*
G02*
X166949999Y-66200000I249999J0D01*
G01*
X167850001Y-66200000D01*
G75*
G02*
X168100000Y-66449999I0J-249999D01*
G01*
X168100000Y-67150001D01*
G75*
G02*
X167850001Y-67400000I-249999J0D01*
G01*
G37*
G36*
G01*
X167850001Y-69400000D02*
X166949999Y-69400000D01*
G75*
G02*
X166700000Y-69150001I0J249999D01*
G01*
X166700000Y-68449999D01*
G75*
G02*
X166949999Y-68200000I249999J0D01*
G01*
X167850001Y-68200000D01*
G75*
G02*
X168100000Y-68449999I0J-249999D01*
G01*
X168100000Y-69150001D01*
G75*
G02*
X167850001Y-69400000I-249999J0D01*
G01*
G37*
%TD*%
%TO.C,R5*%
G36*
G01*
X141850001Y-67600000D02*
X140949999Y-67600000D01*
G75*
G02*
X140700000Y-67350001I0J249999D01*
G01*
X140700000Y-66649999D01*
G75*
G02*
X140949999Y-66400000I249999J0D01*
G01*
X141850001Y-66400000D01*
G75*
G02*
X142100000Y-66649999I0J-249999D01*
G01*
X142100000Y-67350001D01*
G75*
G02*
X141850001Y-67600000I-249999J0D01*
G01*
G37*
G36*
G01*
X141850001Y-69600000D02*
X140949999Y-69600000D01*
G75*
G02*
X140700000Y-69350001I0J249999D01*
G01*
X140700000Y-68649999D01*
G75*
G02*
X140949999Y-68400000I249999J0D01*
G01*
X141850001Y-68400000D01*
G75*
G02*
X142100000Y-68649999I0J-249999D01*
G01*
X142100000Y-69350001D01*
G75*
G02*
X141850001Y-69600000I-249999J0D01*
G01*
G37*
%TD*%
%TO.C,C1*%
G36*
G01*
X151325000Y-69587500D02*
X150375000Y-69587500D01*
G75*
G02*
X150125000Y-69337500I0J250000D01*
G01*
X150125000Y-68662500D01*
G75*
G02*
X150375000Y-68412500I250000J0D01*
G01*
X151325000Y-68412500D01*
G75*
G02*
X151575000Y-68662500I0J-250000D01*
G01*
X151575000Y-69337500D01*
G75*
G02*
X151325000Y-69587500I-250000J0D01*
G01*
G37*
G36*
G01*
X151325000Y-67512500D02*
X150375000Y-67512500D01*
G75*
G02*
X150125000Y-67262500I0J250000D01*
G01*
X150125000Y-66587500D01*
G75*
G02*
X150375000Y-66337500I250000J0D01*
G01*
X151325000Y-66337500D01*
G75*
G02*
X151575000Y-66587500I0J-250000D01*
G01*
X151575000Y-67262500D01*
G75*
G02*
X151325000Y-67512500I-250000J0D01*
G01*
G37*
%TD*%
%TO.C,C2*%
G36*
G01*
X162325000Y-67300000D02*
X161375000Y-67300000D01*
G75*
G02*
X161125000Y-67050000I0J250000D01*
G01*
X161125000Y-66375000D01*
G75*
G02*
X161375000Y-66125000I250000J0D01*
G01*
X162325000Y-66125000D01*
G75*
G02*
X162575000Y-66375000I0J-250000D01*
G01*
X162575000Y-67050000D01*
G75*
G02*
X162325000Y-67300000I-250000J0D01*
G01*
G37*
G36*
G01*
X162325000Y-69375000D02*
X161375000Y-69375000D01*
G75*
G02*
X161125000Y-69125000I0J250000D01*
G01*
X161125000Y-68450000D01*
G75*
G02*
X161375000Y-68200000I250000J0D01*
G01*
X162325000Y-68200000D01*
G75*
G02*
X162575000Y-68450000I0J-250000D01*
G01*
X162575000Y-69125000D01*
G75*
G02*
X162325000Y-69375000I-250000J0D01*
G01*
G37*
%TD*%
%TO.C,C3*%
G36*
G01*
X167125000Y-82837500D02*
X168075000Y-82837500D01*
G75*
G02*
X168325000Y-83087500I0J-250000D01*
G01*
X168325000Y-83762500D01*
G75*
G02*
X168075000Y-84012500I-250000J0D01*
G01*
X167125000Y-84012500D01*
G75*
G02*
X166875000Y-83762500I0J250000D01*
G01*
X166875000Y-83087500D01*
G75*
G02*
X167125000Y-82837500I250000J0D01*
G01*
G37*
G36*
G01*
X167125000Y-84912500D02*
X168075000Y-84912500D01*
G75*
G02*
X168325000Y-85162500I0J-250000D01*
G01*
X168325000Y-85837500D01*
G75*
G02*
X168075000Y-86087500I-250000J0D01*
G01*
X167125000Y-86087500D01*
G75*
G02*
X166875000Y-85837500I0J250000D01*
G01*
X166875000Y-85162500D01*
G75*
G02*
X167125000Y-84912500I250000J0D01*
G01*
G37*
%TD*%
%TO.C,C4*%
G36*
G01*
X167125000Y-74662500D02*
X168075000Y-74662500D01*
G75*
G02*
X168325000Y-74912500I0J-250000D01*
G01*
X168325000Y-75587500D01*
G75*
G02*
X168075000Y-75837500I-250000J0D01*
G01*
X167125000Y-75837500D01*
G75*
G02*
X166875000Y-75587500I0J250000D01*
G01*
X166875000Y-74912500D01*
G75*
G02*
X167125000Y-74662500I250000J0D01*
G01*
G37*
G36*
G01*
X167125000Y-72587500D02*
X168075000Y-72587500D01*
G75*
G02*
X168325000Y-72837500I0J-250000D01*
G01*
X168325000Y-73512500D01*
G75*
G02*
X168075000Y-73762500I-250000J0D01*
G01*
X167125000Y-73762500D01*
G75*
G02*
X166875000Y-73512500I0J250000D01*
G01*
X166875000Y-72837500D01*
G75*
G02*
X167125000Y-72587500I250000J0D01*
G01*
G37*
%TD*%
%TO.C,C5*%
G36*
G01*
X146575000Y-75837500D02*
X145625000Y-75837500D01*
G75*
G02*
X145375000Y-75587500I0J250000D01*
G01*
X145375000Y-74912500D01*
G75*
G02*
X145625000Y-74662500I250000J0D01*
G01*
X146575000Y-74662500D01*
G75*
G02*
X146825000Y-74912500I0J-250000D01*
G01*
X146825000Y-75587500D01*
G75*
G02*
X146575000Y-75837500I-250000J0D01*
G01*
G37*
G36*
G01*
X146575000Y-73762500D02*
X145625000Y-73762500D01*
G75*
G02*
X145375000Y-73512500I0J250000D01*
G01*
X145375000Y-72837500D01*
G75*
G02*
X145625000Y-72587500I250000J0D01*
G01*
X146575000Y-72587500D01*
G75*
G02*
X146825000Y-72837500I0J-250000D01*
G01*
X146825000Y-73512500D01*
G75*
G02*
X146575000Y-73762500I-250000J0D01*
G01*
G37*
%TD*%
%TO.C,C6*%
G36*
G01*
X146325000Y-67587500D02*
X145375000Y-67587500D01*
G75*
G02*
X145125000Y-67337500I0J250000D01*
G01*
X145125000Y-66662500D01*
G75*
G02*
X145375000Y-66412500I250000J0D01*
G01*
X146325000Y-66412500D01*
G75*
G02*
X146575000Y-66662500I0J-250000D01*
G01*
X146575000Y-67337500D01*
G75*
G02*
X146325000Y-67587500I-250000J0D01*
G01*
G37*
G36*
G01*
X146325000Y-69662500D02*
X145375000Y-69662500D01*
G75*
G02*
X145125000Y-69412500I0J250000D01*
G01*
X145125000Y-68737500D01*
G75*
G02*
X145375000Y-68487500I250000J0D01*
G01*
X146325000Y-68487500D01*
G75*
G02*
X146575000Y-68737500I0J-250000D01*
G01*
X146575000Y-69412500D01*
G75*
G02*
X146325000Y-69662500I-250000J0D01*
G01*
G37*
%TD*%
%TO.C,C7*%
G36*
G01*
X146575000Y-85912500D02*
X145625000Y-85912500D01*
G75*
G02*
X145375000Y-85662500I0J250000D01*
G01*
X145375000Y-84987500D01*
G75*
G02*
X145625000Y-84737500I250000J0D01*
G01*
X146575000Y-84737500D01*
G75*
G02*
X146825000Y-84987500I0J-250000D01*
G01*
X146825000Y-85662500D01*
G75*
G02*
X146575000Y-85912500I-250000J0D01*
G01*
G37*
G36*
G01*
X146575000Y-83837500D02*
X145625000Y-83837500D01*
G75*
G02*
X145375000Y-83587500I0J250000D01*
G01*
X145375000Y-82912500D01*
G75*
G02*
X145625000Y-82662500I250000J0D01*
G01*
X146575000Y-82662500D01*
G75*
G02*
X146825000Y-82912500I0J-250000D01*
G01*
X146825000Y-83587500D01*
G75*
G02*
X146575000Y-83837500I-250000J0D01*
G01*
G37*
%TD*%
%TO.C,C8*%
G36*
G01*
X146575000Y-78642499D02*
X145625000Y-78642499D01*
G75*
G02*
X145375000Y-78392499I0J250000D01*
G01*
X145375000Y-77717499D01*
G75*
G02*
X145625000Y-77467499I250000J0D01*
G01*
X146575000Y-77467499D01*
G75*
G02*
X146825000Y-77717499I0J-250000D01*
G01*
X146825000Y-78392499D01*
G75*
G02*
X146575000Y-78642499I-250000J0D01*
G01*
G37*
G36*
G01*
X146575000Y-80717499D02*
X145625000Y-80717499D01*
G75*
G02*
X145375000Y-80467499I0J250000D01*
G01*
X145375000Y-79792499D01*
G75*
G02*
X145625000Y-79542499I250000J0D01*
G01*
X146575000Y-79542499D01*
G75*
G02*
X146825000Y-79792499I0J-250000D01*
G01*
X146825000Y-80467499D01*
G75*
G02*
X146575000Y-80717499I-250000J0D01*
G01*
G37*
%TD*%
D12*
%TO.C,D1*%
X147300000Y-110400000D03*
D13*
X139500000Y-110400000D03*
D14*
X141825000Y-110400000D03*
X144975000Y-110400000D03*
%TD*%
%TO.C,D2*%
X156775000Y-107900000D03*
X153625000Y-107900000D03*
D13*
X151300000Y-107900000D03*
D12*
X159100000Y-107900000D03*
%TD*%
%TO.C,D3*%
X172500000Y-109500000D03*
D13*
X164700000Y-109500000D03*
D14*
X167025000Y-109500000D03*
X170175000Y-109500000D03*
%TD*%
%TO.C,D4*%
X163575000Y-119400000D03*
X160425000Y-119400000D03*
D13*
X158100000Y-119400000D03*
D12*
X165900000Y-119400000D03*
%TD*%
%TO.C,D5*%
X145900000Y-128000000D03*
D13*
X138100000Y-128000000D03*
D14*
X140425000Y-128000000D03*
X143575000Y-128000000D03*
%TD*%
%TO.C,D6*%
X156975000Y-128700000D03*
X153825000Y-128700000D03*
D13*
X151500000Y-128700000D03*
D12*
X159300000Y-128700000D03*
%TD*%
%TO.C,D7*%
X172800000Y-127300000D03*
D13*
X165000000Y-127300000D03*
D14*
X167325000Y-127300000D03*
X170475000Y-127300000D03*
%TD*%
%TO.C,D8*%
X144675000Y-136100000D03*
X141525000Y-136100000D03*
D13*
X139200000Y-136100000D03*
D12*
X147000000Y-136100000D03*
%TD*%
%TO.C,D9*%
X159400000Y-136800000D03*
D13*
X151600000Y-136800000D03*
D14*
X153925000Y-136800000D03*
X157075000Y-136800000D03*
%TD*%
%TO.C,D10*%
X169575000Y-135900000D03*
X166425000Y-135900000D03*
D13*
X164100000Y-135900000D03*
D12*
X171900000Y-135900000D03*
%TD*%
D14*
%TO.C,D11*%
X144075000Y-143300000D03*
X140925000Y-143300000D03*
D13*
X138600000Y-143300000D03*
D12*
X146400000Y-143300000D03*
%TD*%
%TO.C,D12*%
X159400000Y-145000000D03*
D13*
X151600000Y-145000000D03*
D14*
X153925000Y-145000000D03*
X157075000Y-145000000D03*
%TD*%
%TO.C,D13*%
X169825000Y-143500000D03*
X166675000Y-143500000D03*
D13*
X164350000Y-143500000D03*
D12*
X172150000Y-143500000D03*
%TD*%
%TO.C,D14*%
X146800000Y-152100000D03*
D13*
X139000000Y-152100000D03*
D14*
X141325000Y-152100000D03*
X144475000Y-152100000D03*
%TD*%
%TO.C,D15*%
X157075000Y-152800000D03*
X153925000Y-152800000D03*
D13*
X151600000Y-152800000D03*
D12*
X159400000Y-152800000D03*
%TD*%
%TO.C,D16*%
X172000000Y-152100000D03*
D13*
X164200000Y-152100000D03*
D14*
X166525000Y-152100000D03*
X169675000Y-152100000D03*
%TD*%
%TO.C,R1*%
G36*
G01*
X146450001Y-92204999D02*
X145549999Y-92204999D01*
G75*
G02*
X145300000Y-91955000I0J249999D01*
G01*
X145300000Y-91254998D01*
G75*
G02*
X145549999Y-91004999I249999J0D01*
G01*
X146450001Y-91004999D01*
G75*
G02*
X146700000Y-91254998I0J-249999D01*
G01*
X146700000Y-91955000D01*
G75*
G02*
X146450001Y-92204999I-249999J0D01*
G01*
G37*
G36*
G01*
X146450001Y-90204999D02*
X145549999Y-90204999D01*
G75*
G02*
X145300000Y-89955000I0J249999D01*
G01*
X145300000Y-89254998D01*
G75*
G02*
X145549999Y-89004999I249999J0D01*
G01*
X146450001Y-89004999D01*
G75*
G02*
X146700000Y-89254998I0J-249999D01*
G01*
X146700000Y-89955000D01*
G75*
G02*
X146450001Y-90204999I-249999J0D01*
G01*
G37*
%TD*%
%TO.C,R2*%
G36*
G01*
X167149999Y-79700000D02*
X168050001Y-79700000D01*
G75*
G02*
X168300000Y-79949999I0J-249999D01*
G01*
X168300000Y-80650001D01*
G75*
G02*
X168050001Y-80900000I-249999J0D01*
G01*
X167149999Y-80900000D01*
G75*
G02*
X166900000Y-80650001I0J249999D01*
G01*
X166900000Y-79949999D01*
G75*
G02*
X167149999Y-79700000I249999J0D01*
G01*
G37*
G36*
G01*
X167149999Y-77700000D02*
X168050001Y-77700000D01*
G75*
G02*
X168300000Y-77949999I0J-249999D01*
G01*
X168300000Y-78650001D01*
G75*
G02*
X168050001Y-78900000I-249999J0D01*
G01*
X167149999Y-78900000D01*
G75*
G02*
X166900000Y-78650001I0J249999D01*
G01*
X166900000Y-77949999D01*
G75*
G02*
X167149999Y-77700000I249999J0D01*
G01*
G37*
%TD*%
%TO.C,R3*%
G36*
G01*
X141850001Y-76300000D02*
X140949999Y-76300000D01*
G75*
G02*
X140700000Y-76050001I0J249999D01*
G01*
X140700000Y-75349999D01*
G75*
G02*
X140949999Y-75100000I249999J0D01*
G01*
X141850001Y-75100000D01*
G75*
G02*
X142100000Y-75349999I0J-249999D01*
G01*
X142100000Y-76050001D01*
G75*
G02*
X141850001Y-76300000I-249999J0D01*
G01*
G37*
G36*
G01*
X141850001Y-74300000D02*
X140949999Y-74300000D01*
G75*
G02*
X140700000Y-74050001I0J249999D01*
G01*
X140700000Y-73349999D01*
G75*
G02*
X140949999Y-73100000I249999J0D01*
G01*
X141850001Y-73100000D01*
G75*
G02*
X142100000Y-73349999I0J-249999D01*
G01*
X142100000Y-74050001D01*
G75*
G02*
X141850001Y-74300000I-249999J0D01*
G01*
G37*
%TD*%
%TO.C,R4*%
G36*
G01*
X141850001Y-81900000D02*
X140949999Y-81900000D01*
G75*
G02*
X140700000Y-81650001I0J249999D01*
G01*
X140700000Y-80949999D01*
G75*
G02*
X140949999Y-80700000I249999J0D01*
G01*
X141850001Y-80700000D01*
G75*
G02*
X142100000Y-80949999I0J-249999D01*
G01*
X142100000Y-81650001D01*
G75*
G02*
X141850001Y-81900000I-249999J0D01*
G01*
G37*
G36*
G01*
X141850001Y-79900000D02*
X140949999Y-79900000D01*
G75*
G02*
X140700000Y-79650001I0J249999D01*
G01*
X140700000Y-78949999D01*
G75*
G02*
X140949999Y-78700000I249999J0D01*
G01*
X141850001Y-78700000D01*
G75*
G02*
X142100000Y-78949999I0J-249999D01*
G01*
X142100000Y-79650001D01*
G75*
G02*
X141850001Y-79900000I-249999J0D01*
G01*
G37*
%TD*%
D15*
%TO.C,U1*%
X150400000Y-83250000D03*
X150400000Y-82450000D03*
X150400000Y-81650000D03*
X150400000Y-80850000D03*
X150400000Y-80050000D03*
X150400000Y-79250000D03*
X150400000Y-78450000D03*
X150400000Y-77650000D03*
X150400000Y-76850000D03*
X150400000Y-76050000D03*
X150400000Y-75250000D03*
D16*
X152100000Y-73550000D03*
X152900000Y-73550000D03*
X153700000Y-73550000D03*
X154500000Y-73550000D03*
X155300000Y-73550000D03*
X156100000Y-73550000D03*
X156900000Y-73550000D03*
X157700000Y-73550000D03*
X158500000Y-73550000D03*
X159300000Y-73550000D03*
X160100000Y-73550000D03*
D15*
X161800000Y-75250000D03*
X161800000Y-76050000D03*
X161800000Y-76850000D03*
X161800000Y-77650000D03*
X161800000Y-78450000D03*
X161800000Y-79250000D03*
X161800000Y-80050000D03*
X161800000Y-80850000D03*
X161800000Y-81650000D03*
X161800000Y-82450000D03*
X161800000Y-83250000D03*
D16*
X160100000Y-84950000D03*
X159300000Y-84950000D03*
X158500000Y-84950000D03*
X157700000Y-84950000D03*
X156900000Y-84950000D03*
X156100000Y-84950000D03*
X155300000Y-84950000D03*
X154500000Y-84950000D03*
X153700000Y-84950000D03*
X152900000Y-84950000D03*
X152100000Y-84950000D03*
%TD*%
D17*
%TO.C,X1*%
G36*
X155993934Y-70275305D02*
G01*
X155145406Y-69426777D01*
X156135356Y-68436827D01*
X156983884Y-69285355D01*
X155993934Y-70275305D01*
G37*
G36*
X157690990Y-68578249D02*
G01*
X156842462Y-67729721D01*
X157832412Y-66739771D01*
X158680940Y-67588299D01*
X157690990Y-68578249D01*
G37*
G36*
X154791852Y-69073223D02*
G01*
X153943324Y-68224695D01*
X154933274Y-67234745D01*
X155781802Y-68083273D01*
X154791852Y-69073223D01*
G37*
G36*
X156488908Y-67376167D02*
G01*
X155640380Y-66527639D01*
X156630330Y-65537689D01*
X157478858Y-66386217D01*
X156488908Y-67376167D01*
G37*
%TD*%
D18*
%TO.C,J1*%
X159820000Y-54350000D03*
D19*
X158390000Y-58000000D03*
D18*
X151180000Y-54350000D03*
D19*
X152610000Y-58000000D03*
D20*
X151180000Y-58530000D03*
X159820000Y-58530000D03*
D21*
X155250000Y-59445000D03*
X157250000Y-59445000D03*
X156750000Y-59445000D03*
X156250000Y-59445000D03*
X155750000Y-59445000D03*
X154750000Y-59445000D03*
X154250000Y-59445000D03*
X153750000Y-59445000D03*
D22*
X158750000Y-59445000D03*
X157950000Y-59445000D03*
X153050000Y-59445000D03*
X152250000Y-59445000D03*
X152250000Y-59445000D03*
X153050000Y-59445000D03*
X157950000Y-59445000D03*
X158750000Y-59445000D03*
%TD*%
M02*
