M48
; DRILL file {KiCad (5.1.9)-1} date 01/14/21 19:29:29
; FORMAT={-:-/ absolute / inch / decimal}
; #@! TF.CreationDate,2021-01-14T19:29:29+00:00
; #@! TF.GenerationSoftware,Kicad,Pcbnew,(5.1.9)-1
; #@! TF.FileFunction,Plated,1,2,PTH
FMAT,2
INCH
T1C0.0157
T2C0.0236
T3C0.0276
%
G90
G05
T1
X5.5669Y-2.5709
X5.5906Y-4.9213
X5.6142Y-5.5413
X5.6299Y-5.2362
X5.6299Y-5.8563
X5.6398Y-4.4764
X5.6614Y-3.1417
X5.6614Y-3.2717
X5.7717Y-2.6024
X5.811Y-3.0866
X5.8425Y-3.1496
X5.8465Y-2.8819
X5.9882Y-3.1654
X6.0118Y-2.811
X6.0197Y-3.2598
X6.0512Y-2.9803
X6.0512Y-3.4055
X6.0827Y-3.6496
X6.1142Y-3.6063
X6.122Y-4.3307
X6.122Y-4.9606
X6.122Y-5.2756
X6.122Y-5.5906
X6.122Y-5.9055
X6.1457Y-3.563
X6.2008Y-3.1614
X6.2283Y-3.0591
X6.3268Y-4.2913
X6.3543Y-4.3228
X6.3799Y-4.5965
X6.3898Y-4.3543
X6.4207Y-3.3051
X6.4331Y-3.3425
X6.5128Y-4.0354
X6.5276Y-3.2559
X6.5394Y-3.3425
X6.5522Y-4.0354
X6.5945Y-4.0551
X6.6142Y-5.2362
X6.6142Y-5.8563
X6.6299Y-5.5413
X6.6457Y-4.4193
X6.6535Y-4.9114
X6.8425Y-5.5
X6.8543Y-5.2126
T3
X5.437Y-5.0394
X5.4567Y-5.6417
X5.4724Y-5.9882
X5.4803Y-5.3583
X5.4921Y-4.3465
X5.7441Y-5.0394
X5.7638Y-5.6417
X5.7795Y-5.9882
X5.7874Y-5.3583
X5.7992Y-4.3465
X5.9567Y-4.248
X5.9646Y-5.0669
X5.9685Y-5.3858
X5.9685Y-5.7087
X5.9685Y-6.0157
X6.2244Y-4.7008
X6.2638Y-4.248
X6.2717Y-5.0669
X6.2756Y-5.3858
X6.2756Y-5.7087
X6.2756Y-6.0157
X6.4606Y-5.3504
X6.4646Y-5.9882
X6.4705Y-5.6496
X6.4843Y-4.311
X6.4961Y-5.0118
X6.5315Y-4.7008
X6.7677Y-5.3504
X6.7717Y-5.9882
X6.7776Y-5.6496
X6.7913Y-4.311
X6.8031Y-5.0118
T2
G00X5.952Y-2.128
M15
G01X5.952Y-2.1516
M16
G05
G00X5.952Y-2.2827
M15
G01X5.952Y-2.326
M16
G05
G00X6.2921Y-2.128
M15
G01X6.2921Y-2.1516
M16
G05
G00X6.2921Y-2.2827
M15
G01X6.2921Y-2.326
M16
G05
T0
M30
