%TF.GenerationSoftware,KiCad,Pcbnew,(5.1.9)-1*%
%TF.CreationDate,2021-01-14T19:29:22+00:00*%
%TF.ProjectId,Nokia_3310_Controller,4e6f6b69-615f-4333-9331-305f436f6e74,rev?*%
%TF.SameCoordinates,Original*%
%TF.FileFunction,Legend,Bot*%
%TF.FilePolarity,Positive*%
%FSLAX46Y46*%
G04 Gerber Fmt 4.6, Leading zero omitted, Abs format (unit mm)*
G04 Created by KiCad (PCBNEW (5.1.9)-1) date 2021-01-14 19:29:22*
%MOMM*%
%LPD*%
G01*
G04 APERTURE LIST*
%ADD10C,0.120000*%
%ADD11C,0.200000*%
%ADD12C,0.150000*%
G04 APERTURE END LIST*
D10*
%TO.C,SW_RST1*%
X154550000Y-101150000D02*
X157050000Y-101150000D01*
X153050000Y-99400000D02*
X153050000Y-97400000D01*
X154550000Y-95650000D02*
X157050000Y-95650000D01*
X158550000Y-99400000D02*
X158550000Y-97400000D01*
X154100000Y-100700000D02*
X154550000Y-101150000D01*
X157500000Y-100700000D02*
X157050000Y-101150000D01*
X157500000Y-96100000D02*
X157050000Y-95650000D01*
X154100000Y-96100000D02*
X154550000Y-95650000D01*
%TO.C,R6*%
X168135000Y-68027064D02*
X168135000Y-67572936D01*
X166665000Y-68027064D02*
X166665000Y-67572936D01*
%TO.C,R5*%
X142135000Y-68227064D02*
X142135000Y-67772936D01*
X140665000Y-68227064D02*
X140665000Y-67772936D01*
%TO.C,C1*%
X150115000Y-68223752D02*
X150115000Y-67701248D01*
X151585000Y-68223752D02*
X151585000Y-67701248D01*
%TO.C,C2*%
X162585000Y-68011252D02*
X162585000Y-67488748D01*
X161115000Y-68011252D02*
X161115000Y-67488748D01*
%TO.C,C3*%
X168335000Y-84201248D02*
X168335000Y-84723752D01*
X166865000Y-84201248D02*
X166865000Y-84723752D01*
%TO.C,C4*%
X166865000Y-73951248D02*
X166865000Y-74473752D01*
X168335000Y-73951248D02*
X168335000Y-74473752D01*
%TO.C,C5*%
X145365000Y-74473752D02*
X145365000Y-73951248D01*
X146835000Y-74473752D02*
X146835000Y-73951248D01*
%TO.C,C6*%
X146585000Y-68298752D02*
X146585000Y-67776248D01*
X145115000Y-68298752D02*
X145115000Y-67776248D01*
%TO.C,C7*%
X145365000Y-84548752D02*
X145365000Y-84026248D01*
X146835000Y-84548752D02*
X146835000Y-84026248D01*
%TO.C,C8*%
X146835000Y-79353751D02*
X146835000Y-78831247D01*
X145365000Y-79353751D02*
X145365000Y-78831247D01*
D11*
%TO.C,D1*%
X141125000Y-111600000D02*
X141125000Y-109200000D01*
X140950000Y-111600000D02*
X140950000Y-109200000D01*
X140775000Y-111600000D02*
X140775000Y-109200000D01*
X140375000Y-109200000D02*
X140375000Y-111600000D01*
X140600000Y-111600000D02*
X140600000Y-109200000D01*
X140475000Y-111600000D02*
X140475000Y-109200000D01*
X140400000Y-111600000D02*
X146200000Y-111600000D01*
X146200000Y-111600000D02*
X146200000Y-109200000D01*
X146200000Y-109200000D02*
X140400000Y-109200000D01*
%TO.C,D2*%
X158000000Y-106700000D02*
X152200000Y-106700000D01*
X158000000Y-109100000D02*
X158000000Y-106700000D01*
X152200000Y-109100000D02*
X158000000Y-109100000D01*
X152275000Y-109100000D02*
X152275000Y-106700000D01*
X152400000Y-109100000D02*
X152400000Y-106700000D01*
X152175000Y-106700000D02*
X152175000Y-109100000D01*
X152575000Y-109100000D02*
X152575000Y-106700000D01*
X152750000Y-109100000D02*
X152750000Y-106700000D01*
X152925000Y-109100000D02*
X152925000Y-106700000D01*
%TO.C,D3*%
X166325000Y-110700000D02*
X166325000Y-108300000D01*
X166150000Y-110700000D02*
X166150000Y-108300000D01*
X165975000Y-110700000D02*
X165975000Y-108300000D01*
X165575000Y-108300000D02*
X165575000Y-110700000D01*
X165800000Y-110700000D02*
X165800000Y-108300000D01*
X165675000Y-110700000D02*
X165675000Y-108300000D01*
X165600000Y-110700000D02*
X171400000Y-110700000D01*
X171400000Y-110700000D02*
X171400000Y-108300000D01*
X171400000Y-108300000D02*
X165600000Y-108300000D01*
%TO.C,D4*%
X164800000Y-118200000D02*
X159000000Y-118200000D01*
X164800000Y-120600000D02*
X164800000Y-118200000D01*
X159000000Y-120600000D02*
X164800000Y-120600000D01*
X159075000Y-120600000D02*
X159075000Y-118200000D01*
X159200000Y-120600000D02*
X159200000Y-118200000D01*
X158975000Y-118200000D02*
X158975000Y-120600000D01*
X159375000Y-120600000D02*
X159375000Y-118200000D01*
X159550000Y-120600000D02*
X159550000Y-118200000D01*
X159725000Y-120600000D02*
X159725000Y-118200000D01*
%TO.C,D5*%
X139725000Y-129200000D02*
X139725000Y-126800000D01*
X139550000Y-129200000D02*
X139550000Y-126800000D01*
X139375000Y-129200000D02*
X139375000Y-126800000D01*
X138975000Y-126800000D02*
X138975000Y-129200000D01*
X139200000Y-129200000D02*
X139200000Y-126800000D01*
X139075000Y-129200000D02*
X139075000Y-126800000D01*
X139000000Y-129200000D02*
X144800000Y-129200000D01*
X144800000Y-129200000D02*
X144800000Y-126800000D01*
X144800000Y-126800000D02*
X139000000Y-126800000D01*
%TO.C,D6*%
X158200000Y-127500000D02*
X152400000Y-127500000D01*
X158200000Y-129900000D02*
X158200000Y-127500000D01*
X152400000Y-129900000D02*
X158200000Y-129900000D01*
X152475000Y-129900000D02*
X152475000Y-127500000D01*
X152600000Y-129900000D02*
X152600000Y-127500000D01*
X152375000Y-127500000D02*
X152375000Y-129900000D01*
X152775000Y-129900000D02*
X152775000Y-127500000D01*
X152950000Y-129900000D02*
X152950000Y-127500000D01*
X153125000Y-129900000D02*
X153125000Y-127500000D01*
%TO.C,D7*%
X166625000Y-128500000D02*
X166625000Y-126100000D01*
X166450000Y-128500000D02*
X166450000Y-126100000D01*
X166275000Y-128500000D02*
X166275000Y-126100000D01*
X165875000Y-126100000D02*
X165875000Y-128500000D01*
X166100000Y-128500000D02*
X166100000Y-126100000D01*
X165975000Y-128500000D02*
X165975000Y-126100000D01*
X165900000Y-128500000D02*
X171700000Y-128500000D01*
X171700000Y-128500000D02*
X171700000Y-126100000D01*
X171700000Y-126100000D02*
X165900000Y-126100000D01*
%TO.C,D8*%
X145900000Y-134900000D02*
X140100000Y-134900000D01*
X145900000Y-137300000D02*
X145900000Y-134900000D01*
X140100000Y-137300000D02*
X145900000Y-137300000D01*
X140175000Y-137300000D02*
X140175000Y-134900000D01*
X140300000Y-137300000D02*
X140300000Y-134900000D01*
X140075000Y-134900000D02*
X140075000Y-137300000D01*
X140475000Y-137300000D02*
X140475000Y-134900000D01*
X140650000Y-137300000D02*
X140650000Y-134900000D01*
X140825000Y-137300000D02*
X140825000Y-134900000D01*
%TO.C,D9*%
X153225000Y-138000000D02*
X153225000Y-135600000D01*
X153050000Y-138000000D02*
X153050000Y-135600000D01*
X152875000Y-138000000D02*
X152875000Y-135600000D01*
X152475000Y-135600000D02*
X152475000Y-138000000D01*
X152700000Y-138000000D02*
X152700000Y-135600000D01*
X152575000Y-138000000D02*
X152575000Y-135600000D01*
X152500000Y-138000000D02*
X158300000Y-138000000D01*
X158300000Y-138000000D02*
X158300000Y-135600000D01*
X158300000Y-135600000D02*
X152500000Y-135600000D01*
%TO.C,D10*%
X170800000Y-134700000D02*
X165000000Y-134700000D01*
X170800000Y-137100000D02*
X170800000Y-134700000D01*
X165000000Y-137100000D02*
X170800000Y-137100000D01*
X165075000Y-137100000D02*
X165075000Y-134700000D01*
X165200000Y-137100000D02*
X165200000Y-134700000D01*
X164975000Y-134700000D02*
X164975000Y-137100000D01*
X165375000Y-137100000D02*
X165375000Y-134700000D01*
X165550000Y-137100000D02*
X165550000Y-134700000D01*
X165725000Y-137100000D02*
X165725000Y-134700000D01*
%TO.C,D11*%
X145300000Y-142100000D02*
X139500000Y-142100000D01*
X145300000Y-144500000D02*
X145300000Y-142100000D01*
X139500000Y-144500000D02*
X145300000Y-144500000D01*
X139575000Y-144500000D02*
X139575000Y-142100000D01*
X139700000Y-144500000D02*
X139700000Y-142100000D01*
X139475000Y-142100000D02*
X139475000Y-144500000D01*
X139875000Y-144500000D02*
X139875000Y-142100000D01*
X140050000Y-144500000D02*
X140050000Y-142100000D01*
X140225000Y-144500000D02*
X140225000Y-142100000D01*
%TO.C,D12*%
X153225000Y-146200000D02*
X153225000Y-143800000D01*
X153050000Y-146200000D02*
X153050000Y-143800000D01*
X152875000Y-146200000D02*
X152875000Y-143800000D01*
X152475000Y-143800000D02*
X152475000Y-146200000D01*
X152700000Y-146200000D02*
X152700000Y-143800000D01*
X152575000Y-146200000D02*
X152575000Y-143800000D01*
X152500000Y-146200000D02*
X158300000Y-146200000D01*
X158300000Y-146200000D02*
X158300000Y-143800000D01*
X158300000Y-143800000D02*
X152500000Y-143800000D01*
%TO.C,D13*%
X171050000Y-142300000D02*
X165250000Y-142300000D01*
X171050000Y-144700000D02*
X171050000Y-142300000D01*
X165250000Y-144700000D02*
X171050000Y-144700000D01*
X165325000Y-144700000D02*
X165325000Y-142300000D01*
X165450000Y-144700000D02*
X165450000Y-142300000D01*
X165225000Y-142300000D02*
X165225000Y-144700000D01*
X165625000Y-144700000D02*
X165625000Y-142300000D01*
X165800000Y-144700000D02*
X165800000Y-142300000D01*
X165975000Y-144700000D02*
X165975000Y-142300000D01*
%TO.C,D14*%
X140625000Y-153300000D02*
X140625000Y-150900000D01*
X140450000Y-153300000D02*
X140450000Y-150900000D01*
X140275000Y-153300000D02*
X140275000Y-150900000D01*
X139875000Y-150900000D02*
X139875000Y-153300000D01*
X140100000Y-153300000D02*
X140100000Y-150900000D01*
X139975000Y-153300000D02*
X139975000Y-150900000D01*
X139900000Y-153300000D02*
X145700000Y-153300000D01*
X145700000Y-153300000D02*
X145700000Y-150900000D01*
X145700000Y-150900000D02*
X139900000Y-150900000D01*
%TO.C,D15*%
X158300000Y-151600000D02*
X152500000Y-151600000D01*
X158300000Y-154000000D02*
X158300000Y-151600000D01*
X152500000Y-154000000D02*
X158300000Y-154000000D01*
X152575000Y-154000000D02*
X152575000Y-151600000D01*
X152700000Y-154000000D02*
X152700000Y-151600000D01*
X152475000Y-151600000D02*
X152475000Y-154000000D01*
X152875000Y-154000000D02*
X152875000Y-151600000D01*
X153050000Y-154000000D02*
X153050000Y-151600000D01*
X153225000Y-154000000D02*
X153225000Y-151600000D01*
%TO.C,D16*%
X165825000Y-153300000D02*
X165825000Y-150900000D01*
X165650000Y-153300000D02*
X165650000Y-150900000D01*
X165475000Y-153300000D02*
X165475000Y-150900000D01*
X165075000Y-150900000D02*
X165075000Y-153300000D01*
X165300000Y-153300000D02*
X165300000Y-150900000D01*
X165175000Y-153300000D02*
X165175000Y-150900000D01*
X165100000Y-153300000D02*
X170900000Y-153300000D01*
X170900000Y-153300000D02*
X170900000Y-150900000D01*
X170900000Y-150900000D02*
X165100000Y-150900000D01*
D10*
%TO.C,R1*%
X145265000Y-90832063D02*
X145265000Y-90377935D01*
X146735000Y-90832063D02*
X146735000Y-90377935D01*
%TO.C,R2*%
X166865000Y-79072936D02*
X166865000Y-79527064D01*
X168335000Y-79072936D02*
X168335000Y-79527064D01*
%TO.C,R3*%
X140665000Y-74927064D02*
X140665000Y-74472936D01*
X142135000Y-74927064D02*
X142135000Y-74472936D01*
%TO.C,R4*%
X140665000Y-80527064D02*
X140665000Y-80072936D01*
X142135000Y-80527064D02*
X142135000Y-80072936D01*
D12*
%TO.C,U1*%
X150925000Y-83850000D02*
X149650000Y-83850000D01*
X161275000Y-84425000D02*
X160600000Y-84425000D01*
X161275000Y-74075000D02*
X160600000Y-74075000D01*
X150925000Y-74075000D02*
X151600000Y-74075000D01*
X150925000Y-84425000D02*
X151600000Y-84425000D01*
X150925000Y-74075000D02*
X150925000Y-74750000D01*
X161275000Y-74075000D02*
X161275000Y-74750000D01*
X161275000Y-84425000D02*
X161275000Y-83750000D01*
X150925000Y-84425000D02*
X150925000Y-83850000D01*
D11*
%TO.C,X1*%
X156665685Y-64901293D02*
X153306928Y-68260050D01*
X159317336Y-67552944D02*
X156665685Y-64901293D01*
X155958579Y-70911701D02*
X159317336Y-67552944D01*
X153306928Y-68260050D02*
X155958579Y-70911701D01*
D10*
%TO.C,J1*%
X150800000Y-51500000D02*
X160200000Y-51500000D01*
X160200000Y-57300000D02*
X160200000Y-55300000D01*
X160200000Y-53400000D02*
X160200000Y-51500000D01*
X150800000Y-57300000D02*
X150800000Y-55300000D01*
X150800000Y-53400000D02*
X150800000Y-51500000D01*
%TO.C,SW_RST1*%
D12*
X158871428Y-102554761D02*
X158728571Y-102602380D01*
X158490476Y-102602380D01*
X158395238Y-102554761D01*
X158347619Y-102507142D01*
X158300000Y-102411904D01*
X158300000Y-102316666D01*
X158347619Y-102221428D01*
X158395238Y-102173809D01*
X158490476Y-102126190D01*
X158680952Y-102078571D01*
X158776190Y-102030952D01*
X158823809Y-101983333D01*
X158871428Y-101888095D01*
X158871428Y-101792857D01*
X158823809Y-101697619D01*
X158776190Y-101650000D01*
X158680952Y-101602380D01*
X158442857Y-101602380D01*
X158300000Y-101650000D01*
X157966666Y-101602380D02*
X157728571Y-102602380D01*
X157538095Y-101888095D01*
X157347619Y-102602380D01*
X157109523Y-101602380D01*
X156966666Y-102697619D02*
X156204761Y-102697619D01*
X155395238Y-102602380D02*
X155728571Y-102126190D01*
X155966666Y-102602380D02*
X155966666Y-101602380D01*
X155585714Y-101602380D01*
X155490476Y-101650000D01*
X155442857Y-101697619D01*
X155395238Y-101792857D01*
X155395238Y-101935714D01*
X155442857Y-102030952D01*
X155490476Y-102078571D01*
X155585714Y-102126190D01*
X155966666Y-102126190D01*
X155014285Y-102554761D02*
X154871428Y-102602380D01*
X154633333Y-102602380D01*
X154538095Y-102554761D01*
X154490476Y-102507142D01*
X154442857Y-102411904D01*
X154442857Y-102316666D01*
X154490476Y-102221428D01*
X154538095Y-102173809D01*
X154633333Y-102126190D01*
X154823809Y-102078571D01*
X154919047Y-102030952D01*
X154966666Y-101983333D01*
X155014285Y-101888095D01*
X155014285Y-101792857D01*
X154966666Y-101697619D01*
X154919047Y-101650000D01*
X154823809Y-101602380D01*
X154585714Y-101602380D01*
X154442857Y-101650000D01*
X154157142Y-101602380D02*
X153585714Y-101602380D01*
X153871428Y-102602380D02*
X153871428Y-101602380D01*
X152728571Y-102602380D02*
X153300000Y-102602380D01*
X153014285Y-102602380D02*
X153014285Y-101602380D01*
X153109523Y-101745238D01*
X153204761Y-101840476D01*
X153300000Y-101888095D01*
%TO.C,R6*%
X169502380Y-67633333D02*
X169026190Y-67300000D01*
X169502380Y-67061904D02*
X168502380Y-67061904D01*
X168502380Y-67442857D01*
X168550000Y-67538095D01*
X168597619Y-67585714D01*
X168692857Y-67633333D01*
X168835714Y-67633333D01*
X168930952Y-67585714D01*
X168978571Y-67538095D01*
X169026190Y-67442857D01*
X169026190Y-67061904D01*
X168502380Y-68490476D02*
X168502380Y-68300000D01*
X168550000Y-68204761D01*
X168597619Y-68157142D01*
X168740476Y-68061904D01*
X168930952Y-68014285D01*
X169311904Y-68014285D01*
X169407142Y-68061904D01*
X169454761Y-68109523D01*
X169502380Y-68204761D01*
X169502380Y-68395238D01*
X169454761Y-68490476D01*
X169407142Y-68538095D01*
X169311904Y-68585714D01*
X169073809Y-68585714D01*
X168978571Y-68538095D01*
X168930952Y-68490476D01*
X168883333Y-68395238D01*
X168883333Y-68204761D01*
X168930952Y-68109523D01*
X168978571Y-68061904D01*
X169073809Y-68014285D01*
%TO.C,R5*%
X143502380Y-67833333D02*
X143026190Y-67500000D01*
X143502380Y-67261904D02*
X142502380Y-67261904D01*
X142502380Y-67642857D01*
X142550000Y-67738095D01*
X142597619Y-67785714D01*
X142692857Y-67833333D01*
X142835714Y-67833333D01*
X142930952Y-67785714D01*
X142978571Y-67738095D01*
X143026190Y-67642857D01*
X143026190Y-67261904D01*
X142502380Y-68738095D02*
X142502380Y-68261904D01*
X142978571Y-68214285D01*
X142930952Y-68261904D01*
X142883333Y-68357142D01*
X142883333Y-68595238D01*
X142930952Y-68690476D01*
X142978571Y-68738095D01*
X143073809Y-68785714D01*
X143311904Y-68785714D01*
X143407142Y-68738095D01*
X143454761Y-68690476D01*
X143502380Y-68595238D01*
X143502380Y-68357142D01*
X143454761Y-68261904D01*
X143407142Y-68214285D01*
%TO.C,C1*%
X152887142Y-67795833D02*
X152934761Y-67748214D01*
X152982380Y-67605357D01*
X152982380Y-67510119D01*
X152934761Y-67367261D01*
X152839523Y-67272023D01*
X152744285Y-67224404D01*
X152553809Y-67176785D01*
X152410952Y-67176785D01*
X152220476Y-67224404D01*
X152125238Y-67272023D01*
X152030000Y-67367261D01*
X151982380Y-67510119D01*
X151982380Y-67605357D01*
X152030000Y-67748214D01*
X152077619Y-67795833D01*
X152982380Y-68748214D02*
X152982380Y-68176785D01*
X152982380Y-68462500D02*
X151982380Y-68462500D01*
X152125238Y-68367261D01*
X152220476Y-68272023D01*
X152268095Y-68176785D01*
%TO.C,C2*%
X163887142Y-67583333D02*
X163934761Y-67535714D01*
X163982380Y-67392857D01*
X163982380Y-67297619D01*
X163934761Y-67154761D01*
X163839523Y-67059523D01*
X163744285Y-67011904D01*
X163553809Y-66964285D01*
X163410952Y-66964285D01*
X163220476Y-67011904D01*
X163125238Y-67059523D01*
X163030000Y-67154761D01*
X162982380Y-67297619D01*
X162982380Y-67392857D01*
X163030000Y-67535714D01*
X163077619Y-67583333D01*
X163077619Y-67964285D02*
X163030000Y-68011904D01*
X162982380Y-68107142D01*
X162982380Y-68345238D01*
X163030000Y-68440476D01*
X163077619Y-68488095D01*
X163172857Y-68535714D01*
X163268095Y-68535714D01*
X163410952Y-68488095D01*
X163982380Y-67916666D01*
X163982380Y-68535714D01*
%TO.C,C3*%
X166277142Y-84295833D02*
X166324761Y-84248214D01*
X166372380Y-84105357D01*
X166372380Y-84010119D01*
X166324761Y-83867261D01*
X166229523Y-83772023D01*
X166134285Y-83724404D01*
X165943809Y-83676785D01*
X165800952Y-83676785D01*
X165610476Y-83724404D01*
X165515238Y-83772023D01*
X165420000Y-83867261D01*
X165372380Y-84010119D01*
X165372380Y-84105357D01*
X165420000Y-84248214D01*
X165467619Y-84295833D01*
X165372380Y-84629166D02*
X165372380Y-85248214D01*
X165753333Y-84914880D01*
X165753333Y-85057738D01*
X165800952Y-85152976D01*
X165848571Y-85200595D01*
X165943809Y-85248214D01*
X166181904Y-85248214D01*
X166277142Y-85200595D01*
X166324761Y-85152976D01*
X166372380Y-85057738D01*
X166372380Y-84772023D01*
X166324761Y-84676785D01*
X166277142Y-84629166D01*
%TO.C,C4*%
X166277142Y-74045833D02*
X166324761Y-73998214D01*
X166372380Y-73855357D01*
X166372380Y-73760119D01*
X166324761Y-73617261D01*
X166229523Y-73522023D01*
X166134285Y-73474404D01*
X165943809Y-73426785D01*
X165800952Y-73426785D01*
X165610476Y-73474404D01*
X165515238Y-73522023D01*
X165420000Y-73617261D01*
X165372380Y-73760119D01*
X165372380Y-73855357D01*
X165420000Y-73998214D01*
X165467619Y-74045833D01*
X165705714Y-74902976D02*
X166372380Y-74902976D01*
X165324761Y-74664880D02*
X166039047Y-74426785D01*
X166039047Y-75045833D01*
%TO.C,C5*%
X148137142Y-74045833D02*
X148184761Y-73998214D01*
X148232380Y-73855357D01*
X148232380Y-73760119D01*
X148184761Y-73617261D01*
X148089523Y-73522023D01*
X147994285Y-73474404D01*
X147803809Y-73426785D01*
X147660952Y-73426785D01*
X147470476Y-73474404D01*
X147375238Y-73522023D01*
X147280000Y-73617261D01*
X147232380Y-73760119D01*
X147232380Y-73855357D01*
X147280000Y-73998214D01*
X147327619Y-74045833D01*
X147232380Y-74950595D02*
X147232380Y-74474404D01*
X147708571Y-74426785D01*
X147660952Y-74474404D01*
X147613333Y-74569642D01*
X147613333Y-74807738D01*
X147660952Y-74902976D01*
X147708571Y-74950595D01*
X147803809Y-74998214D01*
X148041904Y-74998214D01*
X148137142Y-74950595D01*
X148184761Y-74902976D01*
X148232380Y-74807738D01*
X148232380Y-74569642D01*
X148184761Y-74474404D01*
X148137142Y-74426785D01*
%TO.C,C6*%
X147887142Y-67870833D02*
X147934761Y-67823214D01*
X147982380Y-67680357D01*
X147982380Y-67585119D01*
X147934761Y-67442261D01*
X147839523Y-67347023D01*
X147744285Y-67299404D01*
X147553809Y-67251785D01*
X147410952Y-67251785D01*
X147220476Y-67299404D01*
X147125238Y-67347023D01*
X147030000Y-67442261D01*
X146982380Y-67585119D01*
X146982380Y-67680357D01*
X147030000Y-67823214D01*
X147077619Y-67870833D01*
X146982380Y-68727976D02*
X146982380Y-68537500D01*
X147030000Y-68442261D01*
X147077619Y-68394642D01*
X147220476Y-68299404D01*
X147410952Y-68251785D01*
X147791904Y-68251785D01*
X147887142Y-68299404D01*
X147934761Y-68347023D01*
X147982380Y-68442261D01*
X147982380Y-68632738D01*
X147934761Y-68727976D01*
X147887142Y-68775595D01*
X147791904Y-68823214D01*
X147553809Y-68823214D01*
X147458571Y-68775595D01*
X147410952Y-68727976D01*
X147363333Y-68632738D01*
X147363333Y-68442261D01*
X147410952Y-68347023D01*
X147458571Y-68299404D01*
X147553809Y-68251785D01*
%TO.C,C7*%
X148137142Y-84120833D02*
X148184761Y-84073214D01*
X148232380Y-83930357D01*
X148232380Y-83835119D01*
X148184761Y-83692261D01*
X148089523Y-83597023D01*
X147994285Y-83549404D01*
X147803809Y-83501785D01*
X147660952Y-83501785D01*
X147470476Y-83549404D01*
X147375238Y-83597023D01*
X147280000Y-83692261D01*
X147232380Y-83835119D01*
X147232380Y-83930357D01*
X147280000Y-84073214D01*
X147327619Y-84120833D01*
X147232380Y-84454166D02*
X147232380Y-85120833D01*
X148232380Y-84692261D01*
%TO.C,C8*%
X148137142Y-78925832D02*
X148184761Y-78878213D01*
X148232380Y-78735356D01*
X148232380Y-78640118D01*
X148184761Y-78497260D01*
X148089523Y-78402022D01*
X147994285Y-78354403D01*
X147803809Y-78306784D01*
X147660952Y-78306784D01*
X147470476Y-78354403D01*
X147375238Y-78402022D01*
X147280000Y-78497260D01*
X147232380Y-78640118D01*
X147232380Y-78735356D01*
X147280000Y-78878213D01*
X147327619Y-78925832D01*
X147660952Y-79497260D02*
X147613333Y-79402022D01*
X147565714Y-79354403D01*
X147470476Y-79306784D01*
X147422857Y-79306784D01*
X147327619Y-79354403D01*
X147280000Y-79402022D01*
X147232380Y-79497260D01*
X147232380Y-79687737D01*
X147280000Y-79782975D01*
X147327619Y-79830594D01*
X147422857Y-79878213D01*
X147470476Y-79878213D01*
X147565714Y-79830594D01*
X147613333Y-79782975D01*
X147660952Y-79687737D01*
X147660952Y-79497260D01*
X147708571Y-79402022D01*
X147756190Y-79354403D01*
X147851428Y-79306784D01*
X148041904Y-79306784D01*
X148137142Y-79354403D01*
X148184761Y-79402022D01*
X148232380Y-79497260D01*
X148232380Y-79687737D01*
X148184761Y-79782975D01*
X148137142Y-79830594D01*
X148041904Y-79878213D01*
X147851428Y-79878213D01*
X147756190Y-79830594D01*
X147708571Y-79782975D01*
X147660952Y-79687737D01*
%TO.C,D1*%
X143990476Y-108836904D02*
X143990476Y-108036904D01*
X143800000Y-108036904D01*
X143685714Y-108075000D01*
X143609523Y-108151190D01*
X143571428Y-108227380D01*
X143533333Y-108379761D01*
X143533333Y-108494047D01*
X143571428Y-108646428D01*
X143609523Y-108722619D01*
X143685714Y-108798809D01*
X143800000Y-108836904D01*
X143990476Y-108836904D01*
X142771428Y-108836904D02*
X143228571Y-108836904D01*
X143000000Y-108836904D02*
X143000000Y-108036904D01*
X143076190Y-108151190D01*
X143152380Y-108227380D01*
X143228571Y-108265476D01*
%TO.C,D2*%
X155790476Y-106336904D02*
X155790476Y-105536904D01*
X155600000Y-105536904D01*
X155485714Y-105575000D01*
X155409523Y-105651190D01*
X155371428Y-105727380D01*
X155333333Y-105879761D01*
X155333333Y-105994047D01*
X155371428Y-106146428D01*
X155409523Y-106222619D01*
X155485714Y-106298809D01*
X155600000Y-106336904D01*
X155790476Y-106336904D01*
X155028571Y-105613095D02*
X154990476Y-105575000D01*
X154914285Y-105536904D01*
X154723809Y-105536904D01*
X154647619Y-105575000D01*
X154609523Y-105613095D01*
X154571428Y-105689285D01*
X154571428Y-105765476D01*
X154609523Y-105879761D01*
X155066666Y-106336904D01*
X154571428Y-106336904D01*
%TO.C,D3*%
X169190476Y-107936904D02*
X169190476Y-107136904D01*
X169000000Y-107136904D01*
X168885714Y-107175000D01*
X168809523Y-107251190D01*
X168771428Y-107327380D01*
X168733333Y-107479761D01*
X168733333Y-107594047D01*
X168771428Y-107746428D01*
X168809523Y-107822619D01*
X168885714Y-107898809D01*
X169000000Y-107936904D01*
X169190476Y-107936904D01*
X168466666Y-107136904D02*
X167971428Y-107136904D01*
X168238095Y-107441666D01*
X168123809Y-107441666D01*
X168047619Y-107479761D01*
X168009523Y-107517857D01*
X167971428Y-107594047D01*
X167971428Y-107784523D01*
X168009523Y-107860714D01*
X168047619Y-107898809D01*
X168123809Y-107936904D01*
X168352380Y-107936904D01*
X168428571Y-107898809D01*
X168466666Y-107860714D01*
%TO.C,D4*%
X162590476Y-117836904D02*
X162590476Y-117036904D01*
X162400000Y-117036904D01*
X162285714Y-117075000D01*
X162209523Y-117151190D01*
X162171428Y-117227380D01*
X162133333Y-117379761D01*
X162133333Y-117494047D01*
X162171428Y-117646428D01*
X162209523Y-117722619D01*
X162285714Y-117798809D01*
X162400000Y-117836904D01*
X162590476Y-117836904D01*
X161447619Y-117303571D02*
X161447619Y-117836904D01*
X161638095Y-116998809D02*
X161828571Y-117570238D01*
X161333333Y-117570238D01*
%TO.C,D5*%
X142590476Y-126436904D02*
X142590476Y-125636904D01*
X142400000Y-125636904D01*
X142285714Y-125675000D01*
X142209523Y-125751190D01*
X142171428Y-125827380D01*
X142133333Y-125979761D01*
X142133333Y-126094047D01*
X142171428Y-126246428D01*
X142209523Y-126322619D01*
X142285714Y-126398809D01*
X142400000Y-126436904D01*
X142590476Y-126436904D01*
X141409523Y-125636904D02*
X141790476Y-125636904D01*
X141828571Y-126017857D01*
X141790476Y-125979761D01*
X141714285Y-125941666D01*
X141523809Y-125941666D01*
X141447619Y-125979761D01*
X141409523Y-126017857D01*
X141371428Y-126094047D01*
X141371428Y-126284523D01*
X141409523Y-126360714D01*
X141447619Y-126398809D01*
X141523809Y-126436904D01*
X141714285Y-126436904D01*
X141790476Y-126398809D01*
X141828571Y-126360714D01*
%TO.C,D6*%
X155990476Y-127136904D02*
X155990476Y-126336904D01*
X155800000Y-126336904D01*
X155685714Y-126375000D01*
X155609523Y-126451190D01*
X155571428Y-126527380D01*
X155533333Y-126679761D01*
X155533333Y-126794047D01*
X155571428Y-126946428D01*
X155609523Y-127022619D01*
X155685714Y-127098809D01*
X155800000Y-127136904D01*
X155990476Y-127136904D01*
X154847619Y-126336904D02*
X155000000Y-126336904D01*
X155076190Y-126375000D01*
X155114285Y-126413095D01*
X155190476Y-126527380D01*
X155228571Y-126679761D01*
X155228571Y-126984523D01*
X155190476Y-127060714D01*
X155152380Y-127098809D01*
X155076190Y-127136904D01*
X154923809Y-127136904D01*
X154847619Y-127098809D01*
X154809523Y-127060714D01*
X154771428Y-126984523D01*
X154771428Y-126794047D01*
X154809523Y-126717857D01*
X154847619Y-126679761D01*
X154923809Y-126641666D01*
X155076190Y-126641666D01*
X155152380Y-126679761D01*
X155190476Y-126717857D01*
X155228571Y-126794047D01*
%TO.C,D7*%
X169490476Y-125736904D02*
X169490476Y-124936904D01*
X169300000Y-124936904D01*
X169185714Y-124975000D01*
X169109523Y-125051190D01*
X169071428Y-125127380D01*
X169033333Y-125279761D01*
X169033333Y-125394047D01*
X169071428Y-125546428D01*
X169109523Y-125622619D01*
X169185714Y-125698809D01*
X169300000Y-125736904D01*
X169490476Y-125736904D01*
X168766666Y-124936904D02*
X168233333Y-124936904D01*
X168576190Y-125736904D01*
%TO.C,D8*%
X143690476Y-134536904D02*
X143690476Y-133736904D01*
X143500000Y-133736904D01*
X143385714Y-133775000D01*
X143309523Y-133851190D01*
X143271428Y-133927380D01*
X143233333Y-134079761D01*
X143233333Y-134194047D01*
X143271428Y-134346428D01*
X143309523Y-134422619D01*
X143385714Y-134498809D01*
X143500000Y-134536904D01*
X143690476Y-134536904D01*
X142776190Y-134079761D02*
X142852380Y-134041666D01*
X142890476Y-134003571D01*
X142928571Y-133927380D01*
X142928571Y-133889285D01*
X142890476Y-133813095D01*
X142852380Y-133775000D01*
X142776190Y-133736904D01*
X142623809Y-133736904D01*
X142547619Y-133775000D01*
X142509523Y-133813095D01*
X142471428Y-133889285D01*
X142471428Y-133927380D01*
X142509523Y-134003571D01*
X142547619Y-134041666D01*
X142623809Y-134079761D01*
X142776190Y-134079761D01*
X142852380Y-134117857D01*
X142890476Y-134155952D01*
X142928571Y-134232142D01*
X142928571Y-134384523D01*
X142890476Y-134460714D01*
X142852380Y-134498809D01*
X142776190Y-134536904D01*
X142623809Y-134536904D01*
X142547619Y-134498809D01*
X142509523Y-134460714D01*
X142471428Y-134384523D01*
X142471428Y-134232142D01*
X142509523Y-134155952D01*
X142547619Y-134117857D01*
X142623809Y-134079761D01*
%TO.C,D9*%
X156090476Y-135236904D02*
X156090476Y-134436904D01*
X155900000Y-134436904D01*
X155785714Y-134475000D01*
X155709523Y-134551190D01*
X155671428Y-134627380D01*
X155633333Y-134779761D01*
X155633333Y-134894047D01*
X155671428Y-135046428D01*
X155709523Y-135122619D01*
X155785714Y-135198809D01*
X155900000Y-135236904D01*
X156090476Y-135236904D01*
X155252380Y-135236904D02*
X155100000Y-135236904D01*
X155023809Y-135198809D01*
X154985714Y-135160714D01*
X154909523Y-135046428D01*
X154871428Y-134894047D01*
X154871428Y-134589285D01*
X154909523Y-134513095D01*
X154947619Y-134475000D01*
X155023809Y-134436904D01*
X155176190Y-134436904D01*
X155252380Y-134475000D01*
X155290476Y-134513095D01*
X155328571Y-134589285D01*
X155328571Y-134779761D01*
X155290476Y-134855952D01*
X155252380Y-134894047D01*
X155176190Y-134932142D01*
X155023809Y-134932142D01*
X154947619Y-134894047D01*
X154909523Y-134855952D01*
X154871428Y-134779761D01*
%TO.C,D10*%
X168971428Y-134336904D02*
X168971428Y-133536904D01*
X168780952Y-133536904D01*
X168666666Y-133575000D01*
X168590476Y-133651190D01*
X168552380Y-133727380D01*
X168514285Y-133879761D01*
X168514285Y-133994047D01*
X168552380Y-134146428D01*
X168590476Y-134222619D01*
X168666666Y-134298809D01*
X168780952Y-134336904D01*
X168971428Y-134336904D01*
X167752380Y-134336904D02*
X168209523Y-134336904D01*
X167980952Y-134336904D02*
X167980952Y-133536904D01*
X168057142Y-133651190D01*
X168133333Y-133727380D01*
X168209523Y-133765476D01*
X167257142Y-133536904D02*
X167180952Y-133536904D01*
X167104761Y-133575000D01*
X167066666Y-133613095D01*
X167028571Y-133689285D01*
X166990476Y-133841666D01*
X166990476Y-134032142D01*
X167028571Y-134184523D01*
X167066666Y-134260714D01*
X167104761Y-134298809D01*
X167180952Y-134336904D01*
X167257142Y-134336904D01*
X167333333Y-134298809D01*
X167371428Y-134260714D01*
X167409523Y-134184523D01*
X167447619Y-134032142D01*
X167447619Y-133841666D01*
X167409523Y-133689285D01*
X167371428Y-133613095D01*
X167333333Y-133575000D01*
X167257142Y-133536904D01*
%TO.C,D11*%
X143471428Y-141736904D02*
X143471428Y-140936904D01*
X143280952Y-140936904D01*
X143166666Y-140975000D01*
X143090476Y-141051190D01*
X143052380Y-141127380D01*
X143014285Y-141279761D01*
X143014285Y-141394047D01*
X143052380Y-141546428D01*
X143090476Y-141622619D01*
X143166666Y-141698809D01*
X143280952Y-141736904D01*
X143471428Y-141736904D01*
X142252380Y-141736904D02*
X142709523Y-141736904D01*
X142480952Y-141736904D02*
X142480952Y-140936904D01*
X142557142Y-141051190D01*
X142633333Y-141127380D01*
X142709523Y-141165476D01*
X141490476Y-141736904D02*
X141947619Y-141736904D01*
X141719047Y-141736904D02*
X141719047Y-140936904D01*
X141795238Y-141051190D01*
X141871428Y-141127380D01*
X141947619Y-141165476D01*
%TO.C,D12*%
X156471428Y-143436904D02*
X156471428Y-142636904D01*
X156280952Y-142636904D01*
X156166666Y-142675000D01*
X156090476Y-142751190D01*
X156052380Y-142827380D01*
X156014285Y-142979761D01*
X156014285Y-143094047D01*
X156052380Y-143246428D01*
X156090476Y-143322619D01*
X156166666Y-143398809D01*
X156280952Y-143436904D01*
X156471428Y-143436904D01*
X155252380Y-143436904D02*
X155709523Y-143436904D01*
X155480952Y-143436904D02*
X155480952Y-142636904D01*
X155557142Y-142751190D01*
X155633333Y-142827380D01*
X155709523Y-142865476D01*
X154947619Y-142713095D02*
X154909523Y-142675000D01*
X154833333Y-142636904D01*
X154642857Y-142636904D01*
X154566666Y-142675000D01*
X154528571Y-142713095D01*
X154490476Y-142789285D01*
X154490476Y-142865476D01*
X154528571Y-142979761D01*
X154985714Y-143436904D01*
X154490476Y-143436904D01*
%TO.C,D13*%
X169221428Y-141936904D02*
X169221428Y-141136904D01*
X169030952Y-141136904D01*
X168916666Y-141175000D01*
X168840476Y-141251190D01*
X168802380Y-141327380D01*
X168764285Y-141479761D01*
X168764285Y-141594047D01*
X168802380Y-141746428D01*
X168840476Y-141822619D01*
X168916666Y-141898809D01*
X169030952Y-141936904D01*
X169221428Y-141936904D01*
X168002380Y-141936904D02*
X168459523Y-141936904D01*
X168230952Y-141936904D02*
X168230952Y-141136904D01*
X168307142Y-141251190D01*
X168383333Y-141327380D01*
X168459523Y-141365476D01*
X167735714Y-141136904D02*
X167240476Y-141136904D01*
X167507142Y-141441666D01*
X167392857Y-141441666D01*
X167316666Y-141479761D01*
X167278571Y-141517857D01*
X167240476Y-141594047D01*
X167240476Y-141784523D01*
X167278571Y-141860714D01*
X167316666Y-141898809D01*
X167392857Y-141936904D01*
X167621428Y-141936904D01*
X167697619Y-141898809D01*
X167735714Y-141860714D01*
%TO.C,D14*%
X143871428Y-150536904D02*
X143871428Y-149736904D01*
X143680952Y-149736904D01*
X143566666Y-149775000D01*
X143490476Y-149851190D01*
X143452380Y-149927380D01*
X143414285Y-150079761D01*
X143414285Y-150194047D01*
X143452380Y-150346428D01*
X143490476Y-150422619D01*
X143566666Y-150498809D01*
X143680952Y-150536904D01*
X143871428Y-150536904D01*
X142652380Y-150536904D02*
X143109523Y-150536904D01*
X142880952Y-150536904D02*
X142880952Y-149736904D01*
X142957142Y-149851190D01*
X143033333Y-149927380D01*
X143109523Y-149965476D01*
X141966666Y-150003571D02*
X141966666Y-150536904D01*
X142157142Y-149698809D02*
X142347619Y-150270238D01*
X141852380Y-150270238D01*
%TO.C,D15*%
X156471428Y-151236904D02*
X156471428Y-150436904D01*
X156280952Y-150436904D01*
X156166666Y-150475000D01*
X156090476Y-150551190D01*
X156052380Y-150627380D01*
X156014285Y-150779761D01*
X156014285Y-150894047D01*
X156052380Y-151046428D01*
X156090476Y-151122619D01*
X156166666Y-151198809D01*
X156280952Y-151236904D01*
X156471428Y-151236904D01*
X155252380Y-151236904D02*
X155709523Y-151236904D01*
X155480952Y-151236904D02*
X155480952Y-150436904D01*
X155557142Y-150551190D01*
X155633333Y-150627380D01*
X155709523Y-150665476D01*
X154528571Y-150436904D02*
X154909523Y-150436904D01*
X154947619Y-150817857D01*
X154909523Y-150779761D01*
X154833333Y-150741666D01*
X154642857Y-150741666D01*
X154566666Y-150779761D01*
X154528571Y-150817857D01*
X154490476Y-150894047D01*
X154490476Y-151084523D01*
X154528571Y-151160714D01*
X154566666Y-151198809D01*
X154642857Y-151236904D01*
X154833333Y-151236904D01*
X154909523Y-151198809D01*
X154947619Y-151160714D01*
%TO.C,D16*%
X169071428Y-150536904D02*
X169071428Y-149736904D01*
X168880952Y-149736904D01*
X168766666Y-149775000D01*
X168690476Y-149851190D01*
X168652380Y-149927380D01*
X168614285Y-150079761D01*
X168614285Y-150194047D01*
X168652380Y-150346428D01*
X168690476Y-150422619D01*
X168766666Y-150498809D01*
X168880952Y-150536904D01*
X169071428Y-150536904D01*
X167852380Y-150536904D02*
X168309523Y-150536904D01*
X168080952Y-150536904D02*
X168080952Y-149736904D01*
X168157142Y-149851190D01*
X168233333Y-149927380D01*
X168309523Y-149965476D01*
X167166666Y-149736904D02*
X167319047Y-149736904D01*
X167395238Y-149775000D01*
X167433333Y-149813095D01*
X167509523Y-149927380D01*
X167547619Y-150079761D01*
X167547619Y-150384523D01*
X167509523Y-150460714D01*
X167471428Y-150498809D01*
X167395238Y-150536904D01*
X167242857Y-150536904D01*
X167166666Y-150498809D01*
X167128571Y-150460714D01*
X167090476Y-150384523D01*
X167090476Y-150194047D01*
X167128571Y-150117857D01*
X167166666Y-150079761D01*
X167242857Y-150041666D01*
X167395238Y-150041666D01*
X167471428Y-150079761D01*
X167509523Y-150117857D01*
X167547619Y-150194047D01*
%TO.C,R1*%
X148102380Y-90438332D02*
X147626190Y-90104999D01*
X148102380Y-89866903D02*
X147102380Y-89866903D01*
X147102380Y-90247856D01*
X147150000Y-90343094D01*
X147197619Y-90390713D01*
X147292857Y-90438332D01*
X147435714Y-90438332D01*
X147530952Y-90390713D01*
X147578571Y-90343094D01*
X147626190Y-90247856D01*
X147626190Y-89866903D01*
X148102380Y-91390713D02*
X148102380Y-90819284D01*
X148102380Y-91104999D02*
X147102380Y-91104999D01*
X147245238Y-91009760D01*
X147340476Y-90914522D01*
X147388095Y-90819284D01*
%TO.C,R2*%
X166402380Y-79133333D02*
X165926190Y-78800000D01*
X166402380Y-78561904D02*
X165402380Y-78561904D01*
X165402380Y-78942857D01*
X165450000Y-79038095D01*
X165497619Y-79085714D01*
X165592857Y-79133333D01*
X165735714Y-79133333D01*
X165830952Y-79085714D01*
X165878571Y-79038095D01*
X165926190Y-78942857D01*
X165926190Y-78561904D01*
X165497619Y-79514285D02*
X165450000Y-79561904D01*
X165402380Y-79657142D01*
X165402380Y-79895238D01*
X165450000Y-79990476D01*
X165497619Y-80038095D01*
X165592857Y-80085714D01*
X165688095Y-80085714D01*
X165830952Y-80038095D01*
X166402380Y-79466666D01*
X166402380Y-80085714D01*
%TO.C,R3*%
X143502380Y-74533333D02*
X143026190Y-74200000D01*
X143502380Y-73961904D02*
X142502380Y-73961904D01*
X142502380Y-74342857D01*
X142550000Y-74438095D01*
X142597619Y-74485714D01*
X142692857Y-74533333D01*
X142835714Y-74533333D01*
X142930952Y-74485714D01*
X142978571Y-74438095D01*
X143026190Y-74342857D01*
X143026190Y-73961904D01*
X142502380Y-74866666D02*
X142502380Y-75485714D01*
X142883333Y-75152380D01*
X142883333Y-75295238D01*
X142930952Y-75390476D01*
X142978571Y-75438095D01*
X143073809Y-75485714D01*
X143311904Y-75485714D01*
X143407142Y-75438095D01*
X143454761Y-75390476D01*
X143502380Y-75295238D01*
X143502380Y-75009523D01*
X143454761Y-74914285D01*
X143407142Y-74866666D01*
%TO.C,R4*%
X143502380Y-80133333D02*
X143026190Y-79800000D01*
X143502380Y-79561904D02*
X142502380Y-79561904D01*
X142502380Y-79942857D01*
X142550000Y-80038095D01*
X142597619Y-80085714D01*
X142692857Y-80133333D01*
X142835714Y-80133333D01*
X142930952Y-80085714D01*
X142978571Y-80038095D01*
X143026190Y-79942857D01*
X143026190Y-79561904D01*
X142835714Y-80990476D02*
X143502380Y-80990476D01*
X142454761Y-80752380D02*
X143169047Y-80514285D01*
X143169047Y-81133333D01*
%TO.C,U1*%
X156861904Y-86152380D02*
X156861904Y-86961904D01*
X156814285Y-87057142D01*
X156766666Y-87104761D01*
X156671428Y-87152380D01*
X156480952Y-87152380D01*
X156385714Y-87104761D01*
X156338095Y-87057142D01*
X156290476Y-86961904D01*
X156290476Y-86152380D01*
X155290476Y-87152380D02*
X155861904Y-87152380D01*
X155576190Y-87152380D02*
X155576190Y-86152380D01*
X155671428Y-86295238D01*
X155766666Y-86390476D01*
X155861904Y-86438095D01*
%TO.C,J1*%
X155833333Y-60497380D02*
X155833333Y-61211666D01*
X155880952Y-61354523D01*
X155976190Y-61449761D01*
X156119047Y-61497380D01*
X156214285Y-61497380D01*
X154833333Y-61497380D02*
X155404761Y-61497380D01*
X155119047Y-61497380D02*
X155119047Y-60497380D01*
X155214285Y-60640238D01*
X155309523Y-60735476D01*
X155404761Y-60783095D01*
%TD*%
M02*
