%TF.GenerationSoftware,KiCad,Pcbnew,(5.1.9)-1*%
%TF.CreationDate,2021-01-14T19:29:22+00:00*%
%TF.ProjectId,Nokia_3310_Controller,4e6f6b69-615f-4333-9331-305f436f6e74,rev?*%
%TF.SameCoordinates,Original*%
%TF.FileFunction,Copper,L2,Bot*%
%TF.FilePolarity,Positive*%
%FSLAX46Y46*%
G04 Gerber Fmt 4.6, Leading zero omitted, Abs format (unit mm)*
G04 Created by KiCad (PCBNEW (5.1.9)-1) date 2021-01-14 19:29:22*
%MOMM*%
%LPD*%
G01*
G04 APERTURE LIST*
%TA.AperFunction,SMDPad,CuDef*%
%ADD10R,1.700000X1.000000*%
%TD*%
%TA.AperFunction,SMDPad,CuDef*%
%ADD11R,2.500000X0.500000*%
%TD*%
%TA.AperFunction,ComponentPad*%
%ADD12C,1.600000*%
%TD*%
%TA.AperFunction,ComponentPad*%
%ADD13R,1.600000X1.600000*%
%TD*%
%TA.AperFunction,SMDPad,CuDef*%
%ADD14R,1.200000X1.200000*%
%TD*%
%TA.AperFunction,SMDPad,CuDef*%
%ADD15R,1.500000X0.550000*%
%TD*%
%TA.AperFunction,SMDPad,CuDef*%
%ADD16R,0.550000X1.500000*%
%TD*%
%TA.AperFunction,SMDPad,CuDef*%
%ADD17C,0.100000*%
%TD*%
%TA.AperFunction,ComponentPad*%
%ADD18O,1.000000X1.600000*%
%TD*%
%TA.AperFunction,ComponentPad*%
%ADD19O,1.000000X2.100000*%
%TD*%
%TA.AperFunction,SMDPad,CuDef*%
%ADD20R,0.300000X1.450000*%
%TD*%
%TA.AperFunction,SMDPad,CuDef*%
%ADD21R,0.600000X1.450000*%
%TD*%
%TA.AperFunction,ViaPad*%
%ADD22C,0.800000*%
%TD*%
%TA.AperFunction,Conductor*%
%ADD23C,0.250000*%
%TD*%
%TA.AperFunction,Conductor*%
%ADD24C,0.254000*%
%TD*%
%TA.AperFunction,Conductor*%
%ADD25C,0.100000*%
%TD*%
G04 APERTURE END LIST*
D10*
%TO.P,SW_RST1,1*%
%TO.N,GND*%
X152650000Y-100300000D03*
X158950000Y-100300000D03*
%TO.P,SW_RST1,2*%
%TO.N,Net-(R1-Pad1)*%
X152650000Y-96500000D03*
X158950000Y-96500000D03*
%TD*%
%TO.P,R6,2*%
%TO.N,Net-(J1-PadB5)*%
%TA.AperFunction,SMDPad,CuDef*%
G36*
G01*
X167850001Y-67400000D02*
X166949999Y-67400000D01*
G75*
G02*
X166700000Y-67150001I0J249999D01*
G01*
X166700000Y-66449999D01*
G75*
G02*
X166949999Y-66200000I249999J0D01*
G01*
X167850001Y-66200000D01*
G75*
G02*
X168100000Y-66449999I0J-249999D01*
G01*
X168100000Y-67150001D01*
G75*
G02*
X167850001Y-67400000I-249999J0D01*
G01*
G37*
%TD.AperFunction*%
%TO.P,R6,1*%
%TO.N,GND*%
%TA.AperFunction,SMDPad,CuDef*%
G36*
G01*
X167850001Y-69400000D02*
X166949999Y-69400000D01*
G75*
G02*
X166700000Y-69150001I0J249999D01*
G01*
X166700000Y-68449999D01*
G75*
G02*
X166949999Y-68200000I249999J0D01*
G01*
X167850001Y-68200000D01*
G75*
G02*
X168100000Y-68449999I0J-249999D01*
G01*
X168100000Y-69150001D01*
G75*
G02*
X167850001Y-69400000I-249999J0D01*
G01*
G37*
%TD.AperFunction*%
%TD*%
%TO.P,R5,2*%
%TO.N,Net-(J1-PadA5)*%
%TA.AperFunction,SMDPad,CuDef*%
G36*
G01*
X141850001Y-67600000D02*
X140949999Y-67600000D01*
G75*
G02*
X140700000Y-67350001I0J249999D01*
G01*
X140700000Y-66649999D01*
G75*
G02*
X140949999Y-66400000I249999J0D01*
G01*
X141850001Y-66400000D01*
G75*
G02*
X142100000Y-66649999I0J-249999D01*
G01*
X142100000Y-67350001D01*
G75*
G02*
X141850001Y-67600000I-249999J0D01*
G01*
G37*
%TD.AperFunction*%
%TO.P,R5,1*%
%TO.N,GND*%
%TA.AperFunction,SMDPad,CuDef*%
G36*
G01*
X141850001Y-69600000D02*
X140949999Y-69600000D01*
G75*
G02*
X140700000Y-69350001I0J249999D01*
G01*
X140700000Y-68649999D01*
G75*
G02*
X140949999Y-68400000I249999J0D01*
G01*
X141850001Y-68400000D01*
G75*
G02*
X142100000Y-68649999I0J-249999D01*
G01*
X142100000Y-69350001D01*
G75*
G02*
X141850001Y-69600000I-249999J0D01*
G01*
G37*
%TD.AperFunction*%
%TD*%
%TO.P,C1,1*%
%TO.N,Net-(C1-Pad1)*%
%TA.AperFunction,SMDPad,CuDef*%
G36*
G01*
X151325000Y-69587500D02*
X150375000Y-69587500D01*
G75*
G02*
X150125000Y-69337500I0J250000D01*
G01*
X150125000Y-68662500D01*
G75*
G02*
X150375000Y-68412500I250000J0D01*
G01*
X151325000Y-68412500D01*
G75*
G02*
X151575000Y-68662500I0J-250000D01*
G01*
X151575000Y-69337500D01*
G75*
G02*
X151325000Y-69587500I-250000J0D01*
G01*
G37*
%TD.AperFunction*%
%TO.P,C1,2*%
%TO.N,GND*%
%TA.AperFunction,SMDPad,CuDef*%
G36*
G01*
X151325000Y-67512500D02*
X150375000Y-67512500D01*
G75*
G02*
X150125000Y-67262500I0J250000D01*
G01*
X150125000Y-66587500D01*
G75*
G02*
X150375000Y-66337500I250000J0D01*
G01*
X151325000Y-66337500D01*
G75*
G02*
X151575000Y-66587500I0J-250000D01*
G01*
X151575000Y-67262500D01*
G75*
G02*
X151325000Y-67512500I-250000J0D01*
G01*
G37*
%TD.AperFunction*%
%TD*%
%TO.P,C2,2*%
%TO.N,GND*%
%TA.AperFunction,SMDPad,CuDef*%
G36*
G01*
X162325000Y-67300000D02*
X161375000Y-67300000D01*
G75*
G02*
X161125000Y-67050000I0J250000D01*
G01*
X161125000Y-66375000D01*
G75*
G02*
X161375000Y-66125000I250000J0D01*
G01*
X162325000Y-66125000D01*
G75*
G02*
X162575000Y-66375000I0J-250000D01*
G01*
X162575000Y-67050000D01*
G75*
G02*
X162325000Y-67300000I-250000J0D01*
G01*
G37*
%TD.AperFunction*%
%TO.P,C2,1*%
%TO.N,Net-(C2-Pad1)*%
%TA.AperFunction,SMDPad,CuDef*%
G36*
G01*
X162325000Y-69375000D02*
X161375000Y-69375000D01*
G75*
G02*
X161125000Y-69125000I0J250000D01*
G01*
X161125000Y-68450000D01*
G75*
G02*
X161375000Y-68200000I250000J0D01*
G01*
X162325000Y-68200000D01*
G75*
G02*
X162575000Y-68450000I0J-250000D01*
G01*
X162575000Y-69125000D01*
G75*
G02*
X162325000Y-69375000I-250000J0D01*
G01*
G37*
%TD.AperFunction*%
%TD*%
%TO.P,C3,1*%
%TO.N,VCC*%
%TA.AperFunction,SMDPad,CuDef*%
G36*
G01*
X167125000Y-82837500D02*
X168075000Y-82837500D01*
G75*
G02*
X168325000Y-83087500I0J-250000D01*
G01*
X168325000Y-83762500D01*
G75*
G02*
X168075000Y-84012500I-250000J0D01*
G01*
X167125000Y-84012500D01*
G75*
G02*
X166875000Y-83762500I0J250000D01*
G01*
X166875000Y-83087500D01*
G75*
G02*
X167125000Y-82837500I250000J0D01*
G01*
G37*
%TD.AperFunction*%
%TO.P,C3,2*%
%TO.N,GND*%
%TA.AperFunction,SMDPad,CuDef*%
G36*
G01*
X167125000Y-84912500D02*
X168075000Y-84912500D01*
G75*
G02*
X168325000Y-85162500I0J-250000D01*
G01*
X168325000Y-85837500D01*
G75*
G02*
X168075000Y-86087500I-250000J0D01*
G01*
X167125000Y-86087500D01*
G75*
G02*
X166875000Y-85837500I0J250000D01*
G01*
X166875000Y-85162500D01*
G75*
G02*
X167125000Y-84912500I250000J0D01*
G01*
G37*
%TD.AperFunction*%
%TD*%
%TO.P,C4,2*%
%TO.N,GND*%
%TA.AperFunction,SMDPad,CuDef*%
G36*
G01*
X167125000Y-74662500D02*
X168075000Y-74662500D01*
G75*
G02*
X168325000Y-74912500I0J-250000D01*
G01*
X168325000Y-75587500D01*
G75*
G02*
X168075000Y-75837500I-250000J0D01*
G01*
X167125000Y-75837500D01*
G75*
G02*
X166875000Y-75587500I0J250000D01*
G01*
X166875000Y-74912500D01*
G75*
G02*
X167125000Y-74662500I250000J0D01*
G01*
G37*
%TD.AperFunction*%
%TO.P,C4,1*%
%TO.N,VCC*%
%TA.AperFunction,SMDPad,CuDef*%
G36*
G01*
X167125000Y-72587500D02*
X168075000Y-72587500D01*
G75*
G02*
X168325000Y-72837500I0J-250000D01*
G01*
X168325000Y-73512500D01*
G75*
G02*
X168075000Y-73762500I-250000J0D01*
G01*
X167125000Y-73762500D01*
G75*
G02*
X166875000Y-73512500I0J250000D01*
G01*
X166875000Y-72837500D01*
G75*
G02*
X167125000Y-72587500I250000J0D01*
G01*
G37*
%TD.AperFunction*%
%TD*%
%TO.P,C5,1*%
%TO.N,VCC*%
%TA.AperFunction,SMDPad,CuDef*%
G36*
G01*
X146575000Y-75837500D02*
X145625000Y-75837500D01*
G75*
G02*
X145375000Y-75587500I0J250000D01*
G01*
X145375000Y-74912500D01*
G75*
G02*
X145625000Y-74662500I250000J0D01*
G01*
X146575000Y-74662500D01*
G75*
G02*
X146825000Y-74912500I0J-250000D01*
G01*
X146825000Y-75587500D01*
G75*
G02*
X146575000Y-75837500I-250000J0D01*
G01*
G37*
%TD.AperFunction*%
%TO.P,C5,2*%
%TO.N,GND*%
%TA.AperFunction,SMDPad,CuDef*%
G36*
G01*
X146575000Y-73762500D02*
X145625000Y-73762500D01*
G75*
G02*
X145375000Y-73512500I0J250000D01*
G01*
X145375000Y-72837500D01*
G75*
G02*
X145625000Y-72587500I250000J0D01*
G01*
X146575000Y-72587500D01*
G75*
G02*
X146825000Y-72837500I0J-250000D01*
G01*
X146825000Y-73512500D01*
G75*
G02*
X146575000Y-73762500I-250000J0D01*
G01*
G37*
%TD.AperFunction*%
%TD*%
%TO.P,C6,2*%
%TO.N,GND*%
%TA.AperFunction,SMDPad,CuDef*%
G36*
G01*
X146325000Y-67587500D02*
X145375000Y-67587500D01*
G75*
G02*
X145125000Y-67337500I0J250000D01*
G01*
X145125000Y-66662500D01*
G75*
G02*
X145375000Y-66412500I250000J0D01*
G01*
X146325000Y-66412500D01*
G75*
G02*
X146575000Y-66662500I0J-250000D01*
G01*
X146575000Y-67337500D01*
G75*
G02*
X146325000Y-67587500I-250000J0D01*
G01*
G37*
%TD.AperFunction*%
%TO.P,C6,1*%
%TO.N,VCC*%
%TA.AperFunction,SMDPad,CuDef*%
G36*
G01*
X146325000Y-69662500D02*
X145375000Y-69662500D01*
G75*
G02*
X145125000Y-69412500I0J250000D01*
G01*
X145125000Y-68737500D01*
G75*
G02*
X145375000Y-68487500I250000J0D01*
G01*
X146325000Y-68487500D01*
G75*
G02*
X146575000Y-68737500I0J-250000D01*
G01*
X146575000Y-69412500D01*
G75*
G02*
X146325000Y-69662500I-250000J0D01*
G01*
G37*
%TD.AperFunction*%
%TD*%
%TO.P,C7,1*%
%TO.N,VCC*%
%TA.AperFunction,SMDPad,CuDef*%
G36*
G01*
X146575000Y-85912500D02*
X145625000Y-85912500D01*
G75*
G02*
X145375000Y-85662500I0J250000D01*
G01*
X145375000Y-84987500D01*
G75*
G02*
X145625000Y-84737500I250000J0D01*
G01*
X146575000Y-84737500D01*
G75*
G02*
X146825000Y-84987500I0J-250000D01*
G01*
X146825000Y-85662500D01*
G75*
G02*
X146575000Y-85912500I-250000J0D01*
G01*
G37*
%TD.AperFunction*%
%TO.P,C7,2*%
%TO.N,GND*%
%TA.AperFunction,SMDPad,CuDef*%
G36*
G01*
X146575000Y-83837500D02*
X145625000Y-83837500D01*
G75*
G02*
X145375000Y-83587500I0J250000D01*
G01*
X145375000Y-82912500D01*
G75*
G02*
X145625000Y-82662500I250000J0D01*
G01*
X146575000Y-82662500D01*
G75*
G02*
X146825000Y-82912500I0J-250000D01*
G01*
X146825000Y-83587500D01*
G75*
G02*
X146575000Y-83837500I-250000J0D01*
G01*
G37*
%TD.AperFunction*%
%TD*%
%TO.P,C8,2*%
%TO.N,GND*%
%TA.AperFunction,SMDPad,CuDef*%
G36*
G01*
X146575000Y-78642499D02*
X145625000Y-78642499D01*
G75*
G02*
X145375000Y-78392499I0J250000D01*
G01*
X145375000Y-77717499D01*
G75*
G02*
X145625000Y-77467499I250000J0D01*
G01*
X146575000Y-77467499D01*
G75*
G02*
X146825000Y-77717499I0J-250000D01*
G01*
X146825000Y-78392499D01*
G75*
G02*
X146575000Y-78642499I-250000J0D01*
G01*
G37*
%TD.AperFunction*%
%TO.P,C8,1*%
%TO.N,Net-(C8-Pad1)*%
%TA.AperFunction,SMDPad,CuDef*%
G36*
G01*
X146575000Y-80717499D02*
X145625000Y-80717499D01*
G75*
G02*
X145375000Y-80467499I0J250000D01*
G01*
X145375000Y-79792499D01*
G75*
G02*
X145625000Y-79542499I250000J0D01*
G01*
X146575000Y-79542499D01*
G75*
G02*
X146825000Y-79792499I0J-250000D01*
G01*
X146825000Y-80467499D01*
G75*
G02*
X146575000Y-80717499I-250000J0D01*
G01*
G37*
%TD.AperFunction*%
%TD*%
D11*
%TO.P,D1,2*%
%TO.N,Net-(D1-Pad2)*%
X146100000Y-110400000D03*
%TO.P,D1,1*%
%TO.N,/row0*%
X140700000Y-110400000D03*
D12*
%TO.P,D1,2*%
%TO.N,Net-(D1-Pad2)*%
X147300000Y-110400000D03*
D13*
%TO.P,D1,1*%
%TO.N,/row0*%
X139500000Y-110400000D03*
D14*
X141825000Y-110400000D03*
%TO.P,D1,2*%
%TO.N,Net-(D1-Pad2)*%
X144975000Y-110400000D03*
%TD*%
%TO.P,D2,2*%
%TO.N,Net-(D2-Pad2)*%
X156775000Y-107900000D03*
%TO.P,D2,1*%
%TO.N,/row0*%
X153625000Y-107900000D03*
D13*
X151300000Y-107900000D03*
D12*
%TO.P,D2,2*%
%TO.N,Net-(D2-Pad2)*%
X159100000Y-107900000D03*
D11*
%TO.P,D2,1*%
%TO.N,/row0*%
X152500000Y-107900000D03*
%TO.P,D2,2*%
%TO.N,Net-(D2-Pad2)*%
X157900000Y-107900000D03*
%TD*%
%TO.P,D3,2*%
%TO.N,Net-(D3-Pad2)*%
X171300000Y-109500000D03*
%TO.P,D3,1*%
%TO.N,/row0*%
X165900000Y-109500000D03*
D12*
%TO.P,D3,2*%
%TO.N,Net-(D3-Pad2)*%
X172500000Y-109500000D03*
D13*
%TO.P,D3,1*%
%TO.N,/row0*%
X164700000Y-109500000D03*
D14*
X167025000Y-109500000D03*
%TO.P,D3,2*%
%TO.N,Net-(D3-Pad2)*%
X170175000Y-109500000D03*
%TD*%
%TO.P,D4,2*%
%TO.N,Net-(D4-Pad2)*%
X163575000Y-119400000D03*
%TO.P,D4,1*%
%TO.N,/row1*%
X160425000Y-119400000D03*
D13*
X158100000Y-119400000D03*
D12*
%TO.P,D4,2*%
%TO.N,Net-(D4-Pad2)*%
X165900000Y-119400000D03*
D11*
%TO.P,D4,1*%
%TO.N,/row1*%
X159300000Y-119400000D03*
%TO.P,D4,2*%
%TO.N,Net-(D4-Pad2)*%
X164700000Y-119400000D03*
%TD*%
%TO.P,D5,2*%
%TO.N,Net-(D5-Pad2)*%
X144700000Y-128000000D03*
%TO.P,D5,1*%
%TO.N,/row2*%
X139300000Y-128000000D03*
D12*
%TO.P,D5,2*%
%TO.N,Net-(D5-Pad2)*%
X145900000Y-128000000D03*
D13*
%TO.P,D5,1*%
%TO.N,/row2*%
X138100000Y-128000000D03*
D14*
X140425000Y-128000000D03*
%TO.P,D5,2*%
%TO.N,Net-(D5-Pad2)*%
X143575000Y-128000000D03*
%TD*%
%TO.P,D6,2*%
%TO.N,Net-(D6-Pad2)*%
X156975000Y-128700000D03*
%TO.P,D6,1*%
%TO.N,/row2*%
X153825000Y-128700000D03*
D13*
X151500000Y-128700000D03*
D12*
%TO.P,D6,2*%
%TO.N,Net-(D6-Pad2)*%
X159300000Y-128700000D03*
D11*
%TO.P,D6,1*%
%TO.N,/row2*%
X152700000Y-128700000D03*
%TO.P,D6,2*%
%TO.N,Net-(D6-Pad2)*%
X158100000Y-128700000D03*
%TD*%
%TO.P,D7,2*%
%TO.N,Net-(D7-Pad2)*%
X171600000Y-127300000D03*
%TO.P,D7,1*%
%TO.N,/row2*%
X166200000Y-127300000D03*
D12*
%TO.P,D7,2*%
%TO.N,Net-(D7-Pad2)*%
X172800000Y-127300000D03*
D13*
%TO.P,D7,1*%
%TO.N,/row2*%
X165000000Y-127300000D03*
D14*
X167325000Y-127300000D03*
%TO.P,D7,2*%
%TO.N,Net-(D7-Pad2)*%
X170475000Y-127300000D03*
%TD*%
%TO.P,D8,2*%
%TO.N,Net-(D8-Pad2)*%
X144675000Y-136100000D03*
%TO.P,D8,1*%
%TO.N,/row3*%
X141525000Y-136100000D03*
D13*
X139200000Y-136100000D03*
D12*
%TO.P,D8,2*%
%TO.N,Net-(D8-Pad2)*%
X147000000Y-136100000D03*
D11*
%TO.P,D8,1*%
%TO.N,/row3*%
X140400000Y-136100000D03*
%TO.P,D8,2*%
%TO.N,Net-(D8-Pad2)*%
X145800000Y-136100000D03*
%TD*%
%TO.P,D9,2*%
%TO.N,Net-(D9-Pad2)*%
X158200000Y-136800000D03*
%TO.P,D9,1*%
%TO.N,/row3*%
X152800000Y-136800000D03*
D12*
%TO.P,D9,2*%
%TO.N,Net-(D9-Pad2)*%
X159400000Y-136800000D03*
D13*
%TO.P,D9,1*%
%TO.N,/row3*%
X151600000Y-136800000D03*
D14*
X153925000Y-136800000D03*
%TO.P,D9,2*%
%TO.N,Net-(D9-Pad2)*%
X157075000Y-136800000D03*
%TD*%
%TO.P,D10,2*%
%TO.N,Net-(D10-Pad2)*%
X169575000Y-135900000D03*
%TO.P,D10,1*%
%TO.N,/row3*%
X166425000Y-135900000D03*
D13*
X164100000Y-135900000D03*
D12*
%TO.P,D10,2*%
%TO.N,Net-(D10-Pad2)*%
X171900000Y-135900000D03*
D11*
%TO.P,D10,1*%
%TO.N,/row3*%
X165300000Y-135900000D03*
%TO.P,D10,2*%
%TO.N,Net-(D10-Pad2)*%
X170700000Y-135900000D03*
%TD*%
D14*
%TO.P,D11,2*%
%TO.N,Net-(D11-Pad2)*%
X144075000Y-143300000D03*
%TO.P,D11,1*%
%TO.N,/row4*%
X140925000Y-143300000D03*
D13*
X138600000Y-143300000D03*
D12*
%TO.P,D11,2*%
%TO.N,Net-(D11-Pad2)*%
X146400000Y-143300000D03*
D11*
%TO.P,D11,1*%
%TO.N,/row4*%
X139800000Y-143300000D03*
%TO.P,D11,2*%
%TO.N,Net-(D11-Pad2)*%
X145200000Y-143300000D03*
%TD*%
%TO.P,D12,2*%
%TO.N,Net-(D12-Pad2)*%
X158200000Y-145000000D03*
%TO.P,D12,1*%
%TO.N,/row4*%
X152800000Y-145000000D03*
D12*
%TO.P,D12,2*%
%TO.N,Net-(D12-Pad2)*%
X159400000Y-145000000D03*
D13*
%TO.P,D12,1*%
%TO.N,/row4*%
X151600000Y-145000000D03*
D14*
X153925000Y-145000000D03*
%TO.P,D12,2*%
%TO.N,Net-(D12-Pad2)*%
X157075000Y-145000000D03*
%TD*%
%TO.P,D13,2*%
%TO.N,Net-(D13-Pad2)*%
X169825000Y-143500000D03*
%TO.P,D13,1*%
%TO.N,/row4*%
X166675000Y-143500000D03*
D13*
X164350000Y-143500000D03*
D12*
%TO.P,D13,2*%
%TO.N,Net-(D13-Pad2)*%
X172150000Y-143500000D03*
D11*
%TO.P,D13,1*%
%TO.N,/row4*%
X165550000Y-143500000D03*
%TO.P,D13,2*%
%TO.N,Net-(D13-Pad2)*%
X170950000Y-143500000D03*
%TD*%
%TO.P,D14,2*%
%TO.N,Net-(D14-Pad2)*%
X145600000Y-152100000D03*
%TO.P,D14,1*%
%TO.N,/row5*%
X140200000Y-152100000D03*
D12*
%TO.P,D14,2*%
%TO.N,Net-(D14-Pad2)*%
X146800000Y-152100000D03*
D13*
%TO.P,D14,1*%
%TO.N,/row5*%
X139000000Y-152100000D03*
D14*
X141325000Y-152100000D03*
%TO.P,D14,2*%
%TO.N,Net-(D14-Pad2)*%
X144475000Y-152100000D03*
%TD*%
%TO.P,D15,2*%
%TO.N,Net-(D15-Pad2)*%
X157075000Y-152800000D03*
%TO.P,D15,1*%
%TO.N,/row5*%
X153925000Y-152800000D03*
D13*
X151600000Y-152800000D03*
D12*
%TO.P,D15,2*%
%TO.N,Net-(D15-Pad2)*%
X159400000Y-152800000D03*
D11*
%TO.P,D15,1*%
%TO.N,/row5*%
X152800000Y-152800000D03*
%TO.P,D15,2*%
%TO.N,Net-(D15-Pad2)*%
X158200000Y-152800000D03*
%TD*%
%TO.P,D16,2*%
%TO.N,Net-(D16-Pad2)*%
X170800000Y-152100000D03*
%TO.P,D16,1*%
%TO.N,/row5*%
X165400000Y-152100000D03*
D12*
%TO.P,D16,2*%
%TO.N,Net-(D16-Pad2)*%
X172000000Y-152100000D03*
D13*
%TO.P,D16,1*%
%TO.N,/row5*%
X164200000Y-152100000D03*
D14*
X166525000Y-152100000D03*
%TO.P,D16,2*%
%TO.N,Net-(D16-Pad2)*%
X169675000Y-152100000D03*
%TD*%
%TO.P,R1,1*%
%TO.N,Net-(R1-Pad1)*%
%TA.AperFunction,SMDPad,CuDef*%
G36*
G01*
X146450001Y-92204999D02*
X145549999Y-92204999D01*
G75*
G02*
X145300000Y-91955000I0J249999D01*
G01*
X145300000Y-91254998D01*
G75*
G02*
X145549999Y-91004999I249999J0D01*
G01*
X146450001Y-91004999D01*
G75*
G02*
X146700000Y-91254998I0J-249999D01*
G01*
X146700000Y-91955000D01*
G75*
G02*
X146450001Y-92204999I-249999J0D01*
G01*
G37*
%TD.AperFunction*%
%TO.P,R1,2*%
%TO.N,VCC*%
%TA.AperFunction,SMDPad,CuDef*%
G36*
G01*
X146450001Y-90204999D02*
X145549999Y-90204999D01*
G75*
G02*
X145300000Y-89955000I0J249999D01*
G01*
X145300000Y-89254998D01*
G75*
G02*
X145549999Y-89004999I249999J0D01*
G01*
X146450001Y-89004999D01*
G75*
G02*
X146700000Y-89254998I0J-249999D01*
G01*
X146700000Y-89955000D01*
G75*
G02*
X146450001Y-90204999I-249999J0D01*
G01*
G37*
%TD.AperFunction*%
%TD*%
%TO.P,R2,2*%
%TO.N,Net-(R2-Pad2)*%
%TA.AperFunction,SMDPad,CuDef*%
G36*
G01*
X167149999Y-79700000D02*
X168050001Y-79700000D01*
G75*
G02*
X168300000Y-79949999I0J-249999D01*
G01*
X168300000Y-80650001D01*
G75*
G02*
X168050001Y-80900000I-249999J0D01*
G01*
X167149999Y-80900000D01*
G75*
G02*
X166900000Y-80650001I0J249999D01*
G01*
X166900000Y-79949999D01*
G75*
G02*
X167149999Y-79700000I249999J0D01*
G01*
G37*
%TD.AperFunction*%
%TO.P,R2,1*%
%TO.N,GND*%
%TA.AperFunction,SMDPad,CuDef*%
G36*
G01*
X167149999Y-77700000D02*
X168050001Y-77700000D01*
G75*
G02*
X168300000Y-77949999I0J-249999D01*
G01*
X168300000Y-78650001D01*
G75*
G02*
X168050001Y-78900000I-249999J0D01*
G01*
X167149999Y-78900000D01*
G75*
G02*
X166900000Y-78650001I0J249999D01*
G01*
X166900000Y-77949999D01*
G75*
G02*
X167149999Y-77700000I249999J0D01*
G01*
G37*
%TD.AperFunction*%
%TD*%
%TO.P,R3,1*%
%TO.N,Net-(R3-Pad1)*%
%TA.AperFunction,SMDPad,CuDef*%
G36*
G01*
X141850001Y-76300000D02*
X140949999Y-76300000D01*
G75*
G02*
X140700000Y-76050001I0J249999D01*
G01*
X140700000Y-75349999D01*
G75*
G02*
X140949999Y-75100000I249999J0D01*
G01*
X141850001Y-75100000D01*
G75*
G02*
X142100000Y-75349999I0J-249999D01*
G01*
X142100000Y-76050001D01*
G75*
G02*
X141850001Y-76300000I-249999J0D01*
G01*
G37*
%TD.AperFunction*%
%TO.P,R3,2*%
%TO.N,Net-(J1-PadA7)*%
%TA.AperFunction,SMDPad,CuDef*%
G36*
G01*
X141850001Y-74300000D02*
X140949999Y-74300000D01*
G75*
G02*
X140700000Y-74050001I0J249999D01*
G01*
X140700000Y-73349999D01*
G75*
G02*
X140949999Y-73100000I249999J0D01*
G01*
X141850001Y-73100000D01*
G75*
G02*
X142100000Y-73349999I0J-249999D01*
G01*
X142100000Y-74050001D01*
G75*
G02*
X141850001Y-74300000I-249999J0D01*
G01*
G37*
%TD.AperFunction*%
%TD*%
%TO.P,R4,1*%
%TO.N,Net-(R4-Pad1)*%
%TA.AperFunction,SMDPad,CuDef*%
G36*
G01*
X141850001Y-81900000D02*
X140949999Y-81900000D01*
G75*
G02*
X140700000Y-81650001I0J249999D01*
G01*
X140700000Y-80949999D01*
G75*
G02*
X140949999Y-80700000I249999J0D01*
G01*
X141850001Y-80700000D01*
G75*
G02*
X142100000Y-80949999I0J-249999D01*
G01*
X142100000Y-81650001D01*
G75*
G02*
X141850001Y-81900000I-249999J0D01*
G01*
G37*
%TD.AperFunction*%
%TO.P,R4,2*%
%TO.N,Net-(J1-PadA6)*%
%TA.AperFunction,SMDPad,CuDef*%
G36*
G01*
X141850001Y-79900000D02*
X140949999Y-79900000D01*
G75*
G02*
X140700000Y-79650001I0J249999D01*
G01*
X140700000Y-78949999D01*
G75*
G02*
X140949999Y-78700000I249999J0D01*
G01*
X141850001Y-78700000D01*
G75*
G02*
X142100000Y-78949999I0J-249999D01*
G01*
X142100000Y-79650001D01*
G75*
G02*
X141850001Y-79900000I-249999J0D01*
G01*
G37*
%TD.AperFunction*%
%TD*%
D15*
%TO.P,U1,1*%
%TO.N,Net-(U1-Pad1)*%
X150400000Y-83250000D03*
%TO.P,U1,2*%
%TO.N,VCC*%
X150400000Y-82450000D03*
%TO.P,U1,3*%
%TO.N,Net-(R3-Pad1)*%
X150400000Y-81650000D03*
%TO.P,U1,4*%
%TO.N,Net-(R4-Pad1)*%
X150400000Y-80850000D03*
%TO.P,U1,5*%
%TO.N,GND*%
X150400000Y-80050000D03*
%TO.P,U1,6*%
%TO.N,Net-(C8-Pad1)*%
X150400000Y-79250000D03*
%TO.P,U1,7*%
%TO.N,VCC*%
X150400000Y-78450000D03*
%TO.P,U1,8*%
%TO.N,Net-(U1-Pad8)*%
X150400000Y-77650000D03*
%TO.P,U1,9*%
%TO.N,Net-(U1-Pad9)*%
X150400000Y-76850000D03*
%TO.P,U1,10*%
%TO.N,Net-(U1-Pad10)*%
X150400000Y-76050000D03*
%TO.P,U1,11*%
%TO.N,Net-(U1-Pad11)*%
X150400000Y-75250000D03*
D16*
%TO.P,U1,12*%
%TO.N,Net-(U1-Pad12)*%
X152100000Y-73550000D03*
%TO.P,U1,13*%
%TO.N,Net-(R1-Pad1)*%
X152900000Y-73550000D03*
%TO.P,U1,14*%
%TO.N,VCC*%
X153700000Y-73550000D03*
%TO.P,U1,15*%
%TO.N,GND*%
X154500000Y-73550000D03*
%TO.P,U1,16*%
%TO.N,Net-(C1-Pad1)*%
X155300000Y-73550000D03*
%TO.P,U1,17*%
%TO.N,Net-(C2-Pad1)*%
X156100000Y-73550000D03*
%TO.P,U1,18*%
%TO.N,Net-(U1-Pad18)*%
X156900000Y-73550000D03*
%TO.P,U1,19*%
%TO.N,Net-(U1-Pad19)*%
X157700000Y-73550000D03*
%TO.P,U1,20*%
%TO.N,Net-(U1-Pad20)*%
X158500000Y-73550000D03*
%TO.P,U1,21*%
%TO.N,Net-(U1-Pad21)*%
X159300000Y-73550000D03*
%TO.P,U1,22*%
%TO.N,Net-(U1-Pad22)*%
X160100000Y-73550000D03*
D15*
%TO.P,U1,23*%
%TO.N,GND*%
X161800000Y-75250000D03*
%TO.P,U1,24*%
%TO.N,VCC*%
X161800000Y-76050000D03*
%TO.P,U1,25*%
%TO.N,Net-(U1-Pad25)*%
X161800000Y-76850000D03*
%TO.P,U1,26*%
%TO.N,Net-(U1-Pad26)*%
X161800000Y-77650000D03*
%TO.P,U1,27*%
%TO.N,Net-(U1-Pad27)*%
X161800000Y-78450000D03*
%TO.P,U1,28*%
%TO.N,Net-(U1-Pad28)*%
X161800000Y-79250000D03*
%TO.P,U1,29*%
%TO.N,Net-(U1-Pad29)*%
X161800000Y-80050000D03*
%TO.P,U1,30*%
%TO.N,/row5*%
X161800000Y-80850000D03*
%TO.P,U1,31*%
%TO.N,/row4*%
X161800000Y-81650000D03*
%TO.P,U1,32*%
%TO.N,/row3*%
X161800000Y-82450000D03*
%TO.P,U1,33*%
%TO.N,Net-(R2-Pad2)*%
X161800000Y-83250000D03*
D16*
%TO.P,U1,34*%
%TO.N,VCC*%
X160100000Y-84950000D03*
%TO.P,U1,35*%
%TO.N,GND*%
X159300000Y-84950000D03*
%TO.P,U1,36*%
%TO.N,/row2*%
X158500000Y-84950000D03*
%TO.P,U1,37*%
%TO.N,/row1*%
X157700000Y-84950000D03*
%TO.P,U1,38*%
%TO.N,/row0*%
X156900000Y-84950000D03*
%TO.P,U1,39*%
%TO.N,/col2*%
X156100000Y-84950000D03*
%TO.P,U1,40*%
%TO.N,/col1*%
X155300000Y-84950000D03*
%TO.P,U1,41*%
%TO.N,/col0*%
X154500000Y-84950000D03*
%TO.P,U1,42*%
%TO.N,Net-(U1-Pad42)*%
X153700000Y-84950000D03*
%TO.P,U1,43*%
%TO.N,GND*%
X152900000Y-84950000D03*
%TO.P,U1,44*%
%TO.N,VCC*%
X152100000Y-84950000D03*
%TD*%
%TA.AperFunction,SMDPad,CuDef*%
D17*
%TO.P,X1,3*%
%TO.N,GND*%
G36*
X155993934Y-70275305D02*
G01*
X155145406Y-69426777D01*
X156135356Y-68436827D01*
X156983884Y-69285355D01*
X155993934Y-70275305D01*
G37*
%TD.AperFunction*%
%TA.AperFunction,SMDPad,CuDef*%
%TO.P,X1,2*%
%TO.N,Net-(C2-Pad1)*%
G36*
X157690990Y-68578249D02*
G01*
X156842462Y-67729721D01*
X157832412Y-66739771D01*
X158680940Y-67588299D01*
X157690990Y-68578249D01*
G37*
%TD.AperFunction*%
%TA.AperFunction,SMDPad,CuDef*%
%TO.P,X1,1*%
%TO.N,Net-(C1-Pad1)*%
G36*
X154791852Y-69073223D02*
G01*
X153943324Y-68224695D01*
X154933274Y-67234745D01*
X155781802Y-68083273D01*
X154791852Y-69073223D01*
G37*
%TD.AperFunction*%
%TA.AperFunction,SMDPad,CuDef*%
%TO.P,X1,3*%
%TO.N,GND*%
G36*
X156488908Y-67376167D02*
G01*
X155640380Y-66527639D01*
X156630330Y-65537689D01*
X157478858Y-66386217D01*
X156488908Y-67376167D01*
G37*
%TD.AperFunction*%
%TD*%
D18*
%TO.P,J1,S1*%
%TO.N,GND*%
X159820000Y-54350000D03*
X151180000Y-54350000D03*
D19*
X151180000Y-58530000D03*
X159820000Y-58530000D03*
D20*
%TO.P,J1,A6*%
%TO.N,Net-(J1-PadA6)*%
X155250000Y-59445000D03*
%TO.P,J1,B5*%
%TO.N,Net-(J1-PadB5)*%
X157250000Y-59445000D03*
%TO.P,J1,A8*%
%TO.N,Net-(J1-PadA8)*%
X156750000Y-59445000D03*
%TO.P,J1,B6*%
%TO.N,Net-(J1-PadA6)*%
X156250000Y-59445000D03*
%TO.P,J1,A7*%
%TO.N,Net-(J1-PadA7)*%
X155750000Y-59445000D03*
%TO.P,J1,B7*%
X154750000Y-59445000D03*
%TO.P,J1,A5*%
%TO.N,Net-(J1-PadA5)*%
X154250000Y-59445000D03*
%TO.P,J1,B8*%
%TO.N,Net-(J1-PadB8)*%
X153750000Y-59445000D03*
D21*
%TO.P,J1,A12*%
%TO.N,GND*%
X158750000Y-59445000D03*
%TO.P,J1,B4*%
%TO.N,VCC*%
X157950000Y-59445000D03*
%TO.P,J1,A4*%
X153050000Y-59445000D03*
%TO.P,J1,A1*%
%TO.N,GND*%
X152250000Y-59445000D03*
%TO.P,J1,B12*%
X152250000Y-59445000D03*
%TO.P,J1,B9*%
%TO.N,VCC*%
X153050000Y-59445000D03*
%TO.P,J1,A9*%
X157950000Y-59445000D03*
%TO.P,J1,B1*%
%TO.N,GND*%
X158750000Y-59445000D03*
%TD*%
D22*
%TO.N,GND*%
X152700000Y-71400000D03*
X148500000Y-73200000D03*
X146600000Y-66100000D03*
X141400000Y-65300000D03*
X143800000Y-79800000D03*
X143800000Y-83100000D03*
X148400000Y-80000000D03*
X147600000Y-78400000D03*
X152100000Y-80400000D03*
X152900000Y-82800000D03*
X158200000Y-77700000D03*
X157500000Y-80300000D03*
%TO.N,VCC*%
X166100000Y-84900000D03*
X163400000Y-84900000D03*
%TO.N,Net-(D1-Pad2)*%
X143250000Y-113700000D03*
%TO.N,Net-(D2-Pad2)*%
X155500000Y-110000000D03*
%TO.N,Net-(D3-Pad2)*%
X168800000Y-112250000D03*
%TO.N,Net-(D4-Pad2)*%
X162050000Y-116750000D03*
%TO.N,/row1*%
X160700000Y-109000000D03*
X165425000Y-102500000D03*
%TO.N,Net-(D5-Pad2)*%
X142000000Y-125000000D03*
%TO.N,/row2*%
X161400000Y-109800000D03*
X166425003Y-102500000D03*
%TO.N,Net-(D6-Pad2)*%
X155500000Y-126000000D03*
%TO.N,Net-(D7-Pad2)*%
X169000000Y-124750000D03*
%TO.N,Net-(D8-Pad2)*%
X143000000Y-133000000D03*
%TO.N,/row3*%
X162300000Y-110600000D03*
X167500000Y-103000000D03*
%TO.N,Net-(D9-Pad2)*%
X155500000Y-134000000D03*
%TO.N,Net-(D10-Pad2)*%
X168000000Y-133000000D03*
%TO.N,Net-(D11-Pad2)*%
X142600000Y-140750000D03*
%TO.N,Net-(D12-Pad2)*%
X155500000Y-142000000D03*
%TO.N,Net-(D13-Pad2)*%
X168400000Y-140750000D03*
%TO.N,Net-(D14-Pad2)*%
X143000000Y-148750000D03*
%TO.N,/row5*%
X173800000Y-139700000D03*
X174100000Y-132400000D03*
%TO.N,Net-(D15-Pad2)*%
X155500000Y-150000000D03*
%TO.N,Net-(D16-Pad2)*%
X168000000Y-148750000D03*
%TO.N,Net-(R1-Pad1)*%
X153700000Y-86500000D03*
X153700000Y-75700000D03*
%TO.N,Net-(R2-Pad2)*%
X165800000Y-82700000D03*
X163085453Y-83950757D03*
%TO.N,/col0*%
X154500000Y-92700000D03*
%TO.N,/col1*%
X155300000Y-91600000D03*
%TO.N,/col2*%
X156100000Y-90500000D03*
%TD*%
D23*
%TO.N,Net-(C1-Pad1)*%
X154820396Y-72260394D02*
X155300000Y-72739998D01*
X154820396Y-68266862D02*
X154820396Y-72260394D01*
X155300000Y-72739998D02*
X155300000Y-73550000D01*
X154968629Y-68118629D02*
X154820396Y-68266862D01*
X151731371Y-68118629D02*
X150850000Y-69000000D01*
X154968629Y-68118629D02*
X151731371Y-68118629D01*
%TO.N,GND*%
X156517452Y-66569806D02*
X156517452Y-67082548D01*
X156524264Y-66562994D02*
X156517452Y-66569806D01*
X156517452Y-67082548D02*
X156350000Y-67250000D01*
X156350000Y-69000000D02*
X156100000Y-69250000D01*
X156350000Y-67250000D02*
X156350000Y-69000000D01*
X152650000Y-100300000D02*
X158950000Y-100300000D01*
X159665000Y-58530000D02*
X158750000Y-59445000D01*
X159820000Y-58530000D02*
X159665000Y-58530000D01*
X159820000Y-58530000D02*
X159820000Y-54350000D01*
X159820000Y-54350000D02*
X151180000Y-54350000D01*
X151180000Y-54350000D02*
X151180000Y-58530000D01*
X151335000Y-58530000D02*
X152250000Y-59445000D01*
X151180000Y-58530000D02*
X151335000Y-58530000D01*
X153160002Y-71400000D02*
X152700000Y-71400000D01*
X154500000Y-72739998D02*
X153160002Y-71400000D01*
X154500000Y-73550000D02*
X154500000Y-72739998D01*
X145850000Y-66850000D02*
X146600000Y-66100000D01*
X145850000Y-67000000D02*
X145850000Y-66850000D01*
X145545001Y-78054999D02*
X143800000Y-79800000D01*
X146100000Y-78054999D02*
X145545001Y-78054999D01*
X148450000Y-80050000D02*
X148400000Y-80000000D01*
X150400000Y-80050000D02*
X148450000Y-80050000D01*
X146445001Y-78400000D02*
X146100000Y-78054999D01*
X147600000Y-78400000D02*
X146445001Y-78400000D01*
X152900000Y-84139998D02*
X152900000Y-84950000D01*
X153164999Y-83874999D02*
X152900000Y-84139998D01*
X159224999Y-83874999D02*
X153164999Y-83874999D01*
X159300000Y-83950000D02*
X159224999Y-83874999D01*
X159300000Y-84950000D02*
X159300000Y-83950000D01*
X151750000Y-80050000D02*
X152100000Y-80400000D01*
X150400000Y-80050000D02*
X151750000Y-80050000D01*
X152900000Y-82800000D02*
X152900000Y-84950000D01*
X160650000Y-75250000D02*
X158200000Y-77700000D01*
X161800000Y-75250000D02*
X160650000Y-75250000D01*
%TO.N,Net-(C2-Pad1)*%
X156100000Y-72550000D02*
X156100000Y-73550000D01*
X157655635Y-70994365D02*
X156100000Y-72550000D01*
X157655635Y-67694365D02*
X157655635Y-70994365D01*
X160756865Y-67694365D02*
X161850000Y-68787500D01*
X157655635Y-67694365D02*
X160756865Y-67694365D01*
%TO.N,VCC*%
X148712500Y-78450000D02*
X150400000Y-78450000D01*
X146100000Y-75837500D02*
X148712500Y-78450000D01*
X146100000Y-75250000D02*
X146100000Y-75837500D01*
X160989998Y-76050000D02*
X161800000Y-76050000D01*
X158589998Y-78450000D02*
X160989998Y-76050000D01*
X153350000Y-80500000D02*
X153350000Y-78450000D01*
X150400000Y-82450000D02*
X151400000Y-82450000D01*
X153350000Y-78450000D02*
X158589998Y-78450000D01*
X150400000Y-78450000D02*
X153350000Y-78450000D01*
X164725000Y-76050000D02*
X161800000Y-76050000D01*
X167600000Y-73175000D02*
X164725000Y-76050000D01*
X148975000Y-82450000D02*
X150400000Y-82450000D01*
X146100000Y-85325000D02*
X148975000Y-82450000D01*
X146100000Y-89504999D02*
X146000000Y-89604999D01*
X146100000Y-85325000D02*
X146100000Y-89504999D01*
X153700000Y-72739998D02*
X153700000Y-73550000D01*
X153435001Y-72474999D02*
X153700000Y-72739998D01*
X149249999Y-72474999D02*
X153435001Y-72474999D01*
X145850000Y-69075000D02*
X149249999Y-72474999D01*
X153274999Y-58725001D02*
X153274999Y-56925001D01*
X153050000Y-58950000D02*
X153274999Y-58725001D01*
X153050000Y-59445000D02*
X153050000Y-58950000D01*
X153274999Y-56925001D02*
X153500000Y-56700000D01*
X153500000Y-56700000D02*
X157400000Y-56700000D01*
X157400000Y-56700000D02*
X157600000Y-56900000D01*
X157950000Y-58522002D02*
X157950000Y-59445000D01*
X157600000Y-58172002D02*
X157950000Y-58522002D01*
X157600000Y-56900000D02*
X157600000Y-58172002D01*
X167575000Y-83425000D02*
X166100000Y-84900000D01*
X167600000Y-83425000D02*
X167575000Y-83425000D01*
X160150000Y-84900000D02*
X160100000Y-84950000D01*
X163400000Y-84900000D02*
X160150000Y-84900000D01*
X154425001Y-75351999D02*
X154425001Y-77374999D01*
X153700000Y-74626998D02*
X154425001Y-75351999D01*
X154425001Y-77374999D02*
X153350000Y-78450000D01*
X153700000Y-73550000D02*
X153700000Y-74626998D01*
X160100000Y-79960002D02*
X158589998Y-78450000D01*
X160100000Y-84950000D02*
X160100000Y-79960002D01*
X152100000Y-81750000D02*
X152125000Y-81725000D01*
X152100000Y-84950000D02*
X152100000Y-81750000D01*
X152125000Y-81725000D02*
X153350000Y-80500000D01*
X151400000Y-82450000D02*
X152125000Y-81725000D01*
X146100000Y-85325000D02*
X140825000Y-85325000D01*
X140825000Y-85325000D02*
X138600000Y-83100000D01*
X153050000Y-60255002D02*
X153050000Y-59445000D01*
X152810001Y-60495001D02*
X153050000Y-60255002D01*
X138600000Y-67026998D02*
X145131997Y-60495001D01*
X145131997Y-60495001D02*
X152810001Y-60495001D01*
X138600000Y-83100000D02*
X138600000Y-67026998D01*
%TO.N,Net-(C8-Pad1)*%
X146979999Y-79250000D02*
X150400000Y-79250000D01*
X146100000Y-80129999D02*
X146979999Y-79250000D01*
%TO.N,Net-(D1-Pad2)*%
X147300000Y-110400000D02*
X147300000Y-111800000D01*
X145400000Y-113700000D02*
X143250000Y-113700000D01*
X147300000Y-111800000D02*
X145400000Y-113700000D01*
%TO.N,/row0*%
X142000000Y-107900000D02*
X151300000Y-107900000D01*
X139500000Y-110400000D02*
X142000000Y-107900000D01*
X161974999Y-106774999D02*
X164700000Y-109500000D01*
X151375001Y-106774999D02*
X161974999Y-106774999D01*
X151300000Y-106850000D02*
X151375001Y-106774999D01*
X151300000Y-107900000D02*
X151300000Y-106850000D01*
X156900000Y-92514998D02*
X164700000Y-100314998D01*
X164700000Y-100314998D02*
X164700000Y-109500000D01*
X156900000Y-84950000D02*
X156900000Y-92514998D01*
%TO.N,Net-(D2-Pad2)*%
X159100000Y-107900000D02*
X159100000Y-109300000D01*
X158400000Y-110000000D02*
X155500000Y-110000000D01*
X159100000Y-109300000D02*
X158400000Y-110000000D01*
%TO.N,Net-(D3-Pad2)*%
X172500000Y-109500000D02*
X172500000Y-111200000D01*
X171450000Y-112250000D02*
X168800000Y-112250000D01*
X172500000Y-111200000D02*
X171450000Y-112250000D01*
%TO.N,Net-(D4-Pad2)*%
X165900000Y-119400000D02*
X165900000Y-118200000D01*
X164450000Y-116750000D02*
X162050000Y-116750000D01*
X165900000Y-118200000D02*
X164450000Y-116750000D01*
%TO.N,/row1*%
X158100000Y-111600000D02*
X160700000Y-109000000D01*
X158100000Y-119400000D02*
X158100000Y-111600000D01*
X165425000Y-102500000D02*
X165425000Y-98525000D01*
X157700000Y-90800000D02*
X157700000Y-84950000D01*
X165425000Y-98525000D02*
X157700000Y-90800000D01*
%TO.N,Net-(D5-Pad2)*%
X142900000Y-125000000D02*
X142000000Y-125000000D01*
X145900000Y-128000000D02*
X142900000Y-125000000D01*
%TO.N,/row2*%
X151074999Y-129125001D02*
X151500000Y-128700000D01*
X139225001Y-129125001D02*
X151074999Y-129125001D01*
X138100000Y-128000000D02*
X139225001Y-129125001D01*
X162474999Y-129825001D02*
X165000000Y-127300000D01*
X152625001Y-129825001D02*
X162474999Y-129825001D01*
X151500000Y-128700000D02*
X152625001Y-129825001D01*
X161350001Y-124700001D02*
X161350001Y-117850001D01*
X163950000Y-127300000D02*
X161350001Y-124700001D01*
X165000000Y-127300000D02*
X163950000Y-127300000D01*
X161324999Y-109875001D02*
X161400000Y-109800000D01*
X161324999Y-117824999D02*
X161324999Y-109875001D01*
X161350001Y-117850001D02*
X161324999Y-117824999D01*
X166425003Y-102500000D02*
X166425003Y-98425003D01*
X158500000Y-90500000D02*
X158500000Y-84950000D01*
X166425003Y-98425003D02*
X158500000Y-90500000D01*
%TO.N,Net-(D6-Pad2)*%
X156600000Y-126000000D02*
X155500000Y-126000000D01*
X159300000Y-128700000D02*
X156600000Y-126000000D01*
%TO.N,Net-(D7-Pad2)*%
X172800000Y-127300000D02*
X172800000Y-126000000D01*
X171550000Y-124750000D02*
X169000000Y-124750000D01*
X172800000Y-126000000D02*
X171550000Y-124750000D01*
%TO.N,Net-(D8-Pad2)*%
X143900000Y-133000000D02*
X143000000Y-133000000D01*
X147000000Y-136100000D02*
X143900000Y-133000000D01*
%TO.N,/row3*%
X151174999Y-137225001D02*
X151600000Y-136800000D01*
X140325001Y-137225001D02*
X151174999Y-137225001D01*
X139200000Y-136100000D02*
X140325001Y-137225001D01*
X162074999Y-137925001D02*
X164100000Y-135900000D01*
X152725001Y-137925001D02*
X162074999Y-137925001D01*
X151600000Y-136800000D02*
X152725001Y-137925001D01*
X168250001Y-128160001D02*
X168250001Y-125550001D01*
X164100000Y-132310002D02*
X168250001Y-128160001D01*
X164100000Y-135900000D02*
X164100000Y-132310002D01*
X168250001Y-116550001D02*
X162300000Y-110600000D01*
X168250001Y-125550001D02*
X168250001Y-116550001D01*
X167500000Y-103000000D02*
X167500000Y-91100000D01*
X167500000Y-91100000D02*
X164200000Y-87800000D01*
X162610002Y-82450000D02*
X161800000Y-82450000D01*
X164200000Y-84039998D02*
X162610002Y-82450000D01*
X164200000Y-87800000D02*
X164200000Y-84039998D01*
%TO.N,Net-(D9-Pad2)*%
X156600000Y-134000000D02*
X155500000Y-134000000D01*
X159400000Y-136800000D02*
X156600000Y-134000000D01*
%TO.N,Net-(D10-Pad2)*%
X169000000Y-133000000D02*
X168000000Y-133000000D01*
X171900000Y-135900000D02*
X169000000Y-133000000D01*
%TO.N,Net-(D11-Pad2)*%
X146400000Y-143300000D02*
X146400000Y-142000000D01*
X145150000Y-140750000D02*
X142600000Y-140750000D01*
X146400000Y-142000000D02*
X145150000Y-140750000D01*
%TO.N,/row4*%
X140300000Y-145000000D02*
X151600000Y-145000000D01*
X138600000Y-143300000D02*
X140300000Y-145000000D01*
X161724999Y-146125001D02*
X164350000Y-143500000D01*
X152725001Y-146125001D02*
X161724999Y-146125001D01*
X151600000Y-145000000D02*
X152725001Y-146125001D01*
X173174999Y-128590003D02*
X173925001Y-127840001D01*
X173174999Y-136290003D02*
X173174999Y-128590003D01*
X172440001Y-137025001D02*
X173174999Y-136290003D01*
X170824999Y-137025001D02*
X172440001Y-137025001D01*
X173925001Y-127840001D02*
X173925001Y-96888591D01*
X164350000Y-143500000D02*
X170824999Y-137025001D01*
X164650010Y-83500010D02*
X162800000Y-81650000D01*
X164650010Y-87613600D02*
X164650010Y-83500010D01*
X162800000Y-81650000D02*
X161800000Y-81650000D01*
X173925001Y-96888591D02*
X164650010Y-87613600D01*
%TO.N,Net-(D12-Pad2)*%
X156400000Y-142000000D02*
X155500000Y-142000000D01*
X159400000Y-145000000D02*
X156400000Y-142000000D01*
%TO.N,Net-(D13-Pad2)*%
X169400000Y-140750000D02*
X168400000Y-140750000D01*
X172150000Y-143500000D02*
X169400000Y-140750000D01*
%TO.N,Net-(D14-Pad2)*%
X143450000Y-148750000D02*
X143000000Y-148750000D01*
X146800000Y-152100000D02*
X143450000Y-148750000D01*
%TO.N,/row5*%
X151174999Y-153225001D02*
X151600000Y-152800000D01*
X140125001Y-153225001D02*
X151174999Y-153225001D01*
X139000000Y-152100000D02*
X140125001Y-153225001D01*
X162374999Y-153925001D02*
X164200000Y-152100000D01*
X152725001Y-153925001D02*
X162374999Y-153925001D01*
X151600000Y-152800000D02*
X152725001Y-153925001D01*
X173800000Y-143515002D02*
X173800000Y-139700000D01*
X172690001Y-144625001D02*
X173800000Y-143515002D01*
X164200000Y-149300000D02*
X168874999Y-144625001D01*
X168874999Y-144625001D02*
X172690001Y-144625001D01*
X164200000Y-152100000D02*
X164200000Y-149300000D01*
X174100000Y-132400000D02*
X174500000Y-132000000D01*
X174500000Y-96800000D02*
X165200000Y-87500000D01*
X174500000Y-132000000D02*
X174500000Y-96800000D01*
X162876998Y-80850000D02*
X161800000Y-80850000D01*
X165200000Y-83173002D02*
X162876998Y-80850000D01*
X165200000Y-87500000D02*
X165200000Y-83173002D01*
%TO.N,Net-(D15-Pad2)*%
X156600000Y-150000000D02*
X155500000Y-150000000D01*
X159400000Y-152800000D02*
X156600000Y-150000000D01*
%TO.N,Net-(D16-Pad2)*%
X168650000Y-148750000D02*
X168000000Y-148750000D01*
X172000000Y-152100000D02*
X168650000Y-148750000D01*
%TO.N,Net-(R1-Pad1)*%
X150895001Y-96500000D02*
X146000000Y-91604999D01*
X152650000Y-96500000D02*
X150895001Y-96500000D01*
X152650000Y-96500000D02*
X158950000Y-96500000D01*
X153700000Y-92973002D02*
X153700000Y-86500000D01*
X157226998Y-96500000D02*
X153700000Y-92973002D01*
X158950000Y-96500000D02*
X157226998Y-96500000D01*
X152900000Y-74900000D02*
X152900000Y-73550000D01*
X153700000Y-75700000D02*
X152900000Y-74900000D01*
%TO.N,Net-(R2-Pad2)*%
X167600000Y-80900000D02*
X165800000Y-82700000D01*
X167600000Y-80300000D02*
X167600000Y-80900000D01*
X162500757Y-83950757D02*
X161800000Y-83250000D01*
X163085453Y-83950757D02*
X162500757Y-83950757D01*
%TO.N,Net-(R3-Pad1)*%
X140374990Y-76725010D02*
X141400000Y-75700000D01*
X140374990Y-81888180D02*
X140374990Y-76725010D01*
X140711820Y-82225010D02*
X140374990Y-81888180D01*
X142088180Y-82225010D02*
X140711820Y-82225010D01*
X149050010Y-81999990D02*
X142313200Y-81999990D01*
X142313200Y-81999990D02*
X142088180Y-82225010D01*
X149400000Y-81650000D02*
X149050010Y-81999990D01*
X150400000Y-81650000D02*
X149400000Y-81650000D01*
%TO.N,Net-(R4-Pad1)*%
X148950000Y-81300000D02*
X141400000Y-81300000D01*
X149400000Y-80850000D02*
X148950000Y-81300000D01*
X150400000Y-80850000D02*
X149400000Y-80850000D01*
%TO.N,/col0*%
X154500000Y-92700000D02*
X154500000Y-84950000D01*
%TO.N,/col1*%
X155300000Y-91600000D02*
X155300000Y-84950000D01*
%TO.N,/col2*%
X156100000Y-90500000D02*
X156100000Y-84950000D01*
%TO.N,Net-(J1-PadA5)*%
X154225001Y-60430001D02*
X154225001Y-59469999D01*
X154225001Y-59469999D02*
X154250000Y-59445000D01*
X151404992Y-63250010D02*
X154225001Y-60430001D01*
X145149990Y-63250010D02*
X151404992Y-63250010D01*
X141400000Y-67000000D02*
X145149990Y-63250010D01*
%TO.N,Net-(J1-PadA7)*%
X154750000Y-60541412D02*
X154750000Y-59445000D01*
X151591393Y-63700019D02*
X154750000Y-60541412D01*
X146887880Y-63700020D02*
X151591393Y-63700019D01*
X142425010Y-68162890D02*
X146887880Y-63700020D01*
X142425010Y-72674990D02*
X142425010Y-68162890D01*
X141400000Y-73700000D02*
X142425010Y-72674990D01*
X155750000Y-58484998D02*
X155750000Y-59445000D01*
X155660001Y-58394999D02*
X155750000Y-58484998D01*
X154825001Y-58394999D02*
X155660001Y-58394999D01*
X154750000Y-58470000D02*
X154825001Y-58394999D01*
X154750000Y-59445000D02*
X154750000Y-58470000D01*
%TO.N,Net-(J1-PadA6)*%
X144799990Y-66424320D02*
X146624310Y-64600000D01*
X144799990Y-75900010D02*
X144799990Y-66424320D01*
X141400000Y-79300000D02*
X144799990Y-75900010D01*
X156250000Y-60405002D02*
X156250000Y-59445000D01*
X152055002Y-64600000D02*
X156250000Y-60405002D01*
X146624310Y-64600000D02*
X152055002Y-64600000D01*
X155339999Y-60495001D02*
X156160001Y-60495001D01*
X155250000Y-60405002D02*
X155339999Y-60495001D01*
X156160001Y-60495001D02*
X156250000Y-60405002D01*
X155250000Y-59445000D02*
X155250000Y-60405002D01*
%TO.N,Net-(J1-PadB5)*%
X157250000Y-60355002D02*
X157250000Y-59445000D01*
X163694998Y-66800000D02*
X157250000Y-60355002D01*
X167400000Y-66800000D02*
X163694998Y-66800000D01*
%TD*%
D24*
%TO.N,GND*%
X158731585Y-53704013D02*
X158685000Y-53923000D01*
X158685000Y-54223000D01*
X159693000Y-54223000D01*
X159693000Y-54203000D01*
X159947000Y-54203000D01*
X159947000Y-54223000D01*
X159967000Y-54223000D01*
X159967000Y-54477000D01*
X159947000Y-54477000D01*
X159947000Y-55617954D01*
X160121874Y-55744119D01*
X160344976Y-55664276D01*
X160532764Y-55542369D01*
X160693161Y-55386169D01*
X160820003Y-55201678D01*
X160908415Y-54995987D01*
X160955000Y-54777000D01*
X160955000Y-54660000D01*
X173461335Y-54660000D01*
X173715674Y-55903435D01*
X173542252Y-55730013D01*
X173274463Y-55551082D01*
X172976912Y-55427832D01*
X172661033Y-55365000D01*
X172338967Y-55365000D01*
X172023088Y-55427832D01*
X171725537Y-55551082D01*
X171457748Y-55730013D01*
X171230013Y-55957748D01*
X171051082Y-56225537D01*
X170927832Y-56523088D01*
X170865000Y-56838967D01*
X170865000Y-57161033D01*
X170927832Y-57476912D01*
X171051082Y-57774463D01*
X171230013Y-58042252D01*
X171457748Y-58269987D01*
X171725537Y-58448918D01*
X172023088Y-58572168D01*
X172338967Y-58635000D01*
X172661033Y-58635000D01*
X172976912Y-58572168D01*
X173274463Y-58448918D01*
X173542252Y-58269987D01*
X173769987Y-58042252D01*
X173948918Y-57774463D01*
X174048975Y-57532906D01*
X175590001Y-65066817D01*
X175590000Y-133777761D01*
X175542252Y-133730013D01*
X175274463Y-133551082D01*
X174976912Y-133427832D01*
X174661033Y-133365000D01*
X174474869Y-133365000D01*
X174590256Y-133317205D01*
X174759774Y-133203937D01*
X174903937Y-133059774D01*
X175017205Y-132890256D01*
X175095226Y-132701898D01*
X175135000Y-132501939D01*
X175135000Y-132424227D01*
X175205546Y-132292247D01*
X175249003Y-132148986D01*
X175260000Y-132037333D01*
X175260000Y-132037324D01*
X175263676Y-132000001D01*
X175260000Y-131962678D01*
X175260000Y-96837322D01*
X175263676Y-96799999D01*
X175260000Y-96762676D01*
X175260000Y-96762667D01*
X175249003Y-96651014D01*
X175205546Y-96507753D01*
X175182327Y-96464314D01*
X175134974Y-96375723D01*
X175063799Y-96288997D01*
X175040001Y-96259999D01*
X175011003Y-96236201D01*
X165960000Y-87185199D01*
X165960000Y-85927429D01*
X165998061Y-85935000D01*
X166201939Y-85935000D01*
X166238555Y-85927717D01*
X166236928Y-86087500D01*
X166249188Y-86211982D01*
X166285498Y-86331680D01*
X166344463Y-86441994D01*
X166423815Y-86538685D01*
X166520506Y-86618037D01*
X166630820Y-86677002D01*
X166750518Y-86713312D01*
X166875000Y-86725572D01*
X167314250Y-86722500D01*
X167473000Y-86563750D01*
X167473000Y-85627000D01*
X167727000Y-85627000D01*
X167727000Y-86563750D01*
X167885750Y-86722500D01*
X168325000Y-86725572D01*
X168449482Y-86713312D01*
X168569180Y-86677002D01*
X168679494Y-86618037D01*
X168776185Y-86538685D01*
X168855537Y-86441994D01*
X168914502Y-86331680D01*
X168950812Y-86211982D01*
X168963072Y-86087500D01*
X168960000Y-85785750D01*
X168801250Y-85627000D01*
X167727000Y-85627000D01*
X167473000Y-85627000D01*
X167453000Y-85627000D01*
X167453000Y-85373000D01*
X167473000Y-85373000D01*
X167473000Y-85353000D01*
X167727000Y-85353000D01*
X167727000Y-85373000D01*
X168801250Y-85373000D01*
X168960000Y-85214250D01*
X168963072Y-84912500D01*
X168950812Y-84788018D01*
X168914502Y-84668320D01*
X168855537Y-84558006D01*
X168776185Y-84461315D01*
X168696406Y-84395842D01*
X168702962Y-84390462D01*
X168813405Y-84255886D01*
X168895472Y-84102350D01*
X168946008Y-83935754D01*
X168963072Y-83762500D01*
X168963072Y-83087500D01*
X168946008Y-82914246D01*
X168895472Y-82747650D01*
X168813405Y-82594114D01*
X168702962Y-82459538D01*
X168568386Y-82349095D01*
X168414850Y-82267028D01*
X168248254Y-82216492D01*
X168075000Y-82199428D01*
X167375374Y-82199428D01*
X168036731Y-81538072D01*
X168050001Y-81538072D01*
X168223255Y-81521008D01*
X168389851Y-81470472D01*
X168543387Y-81388405D01*
X168677962Y-81277962D01*
X168788405Y-81143387D01*
X168870472Y-80989851D01*
X168921008Y-80823255D01*
X168938072Y-80650001D01*
X168938072Y-79949999D01*
X168921008Y-79776745D01*
X168870472Y-79610149D01*
X168788405Y-79456613D01*
X168721724Y-79375363D01*
X168751185Y-79351185D01*
X168830537Y-79254494D01*
X168889502Y-79144180D01*
X168925812Y-79024482D01*
X168938072Y-78900000D01*
X168935000Y-78585750D01*
X168776250Y-78427000D01*
X167727000Y-78427000D01*
X167727000Y-78447000D01*
X167473000Y-78447000D01*
X167473000Y-78427000D01*
X166423750Y-78427000D01*
X166265000Y-78585750D01*
X166261928Y-78900000D01*
X166274188Y-79024482D01*
X166310498Y-79144180D01*
X166369463Y-79254494D01*
X166448815Y-79351185D01*
X166478276Y-79375363D01*
X166411595Y-79456613D01*
X166329528Y-79610149D01*
X166278992Y-79776745D01*
X166261928Y-79949999D01*
X166261928Y-80650001D01*
X166278992Y-80823255D01*
X166329528Y-80989851D01*
X166366388Y-81058810D01*
X165760198Y-81665000D01*
X165698061Y-81665000D01*
X165498102Y-81704774D01*
X165309744Y-81782795D01*
X165140226Y-81896063D01*
X165069044Y-81967245D01*
X163440802Y-80339003D01*
X163416999Y-80309999D01*
X163301274Y-80215026D01*
X163188072Y-80154517D01*
X163188072Y-79775000D01*
X163175812Y-79650518D01*
X163175655Y-79650000D01*
X163175812Y-79649482D01*
X163188072Y-79525000D01*
X163188072Y-78975000D01*
X163175812Y-78850518D01*
X163175655Y-78850000D01*
X163175812Y-78849482D01*
X163188072Y-78725000D01*
X163188072Y-78175000D01*
X163175812Y-78050518D01*
X163175655Y-78050000D01*
X163175812Y-78049482D01*
X163188072Y-77925000D01*
X163188072Y-77700000D01*
X166261928Y-77700000D01*
X166265000Y-78014250D01*
X166423750Y-78173000D01*
X167473000Y-78173000D01*
X167473000Y-77223750D01*
X167727000Y-77223750D01*
X167727000Y-78173000D01*
X168776250Y-78173000D01*
X168935000Y-78014250D01*
X168938072Y-77700000D01*
X168925812Y-77575518D01*
X168889502Y-77455820D01*
X168830537Y-77345506D01*
X168751185Y-77248815D01*
X168654494Y-77169463D01*
X168544180Y-77110498D01*
X168424482Y-77074188D01*
X168300000Y-77061928D01*
X167885750Y-77065000D01*
X167727000Y-77223750D01*
X167473000Y-77223750D01*
X167314250Y-77065000D01*
X166900000Y-77061928D01*
X166775518Y-77074188D01*
X166655820Y-77110498D01*
X166545506Y-77169463D01*
X166448815Y-77248815D01*
X166369463Y-77345506D01*
X166310498Y-77455820D01*
X166274188Y-77575518D01*
X166261928Y-77700000D01*
X163188072Y-77700000D01*
X163188072Y-77375000D01*
X163175812Y-77250518D01*
X163175655Y-77250000D01*
X163175812Y-77249482D01*
X163188072Y-77125000D01*
X163188072Y-76810000D01*
X164687678Y-76810000D01*
X164725000Y-76813676D01*
X164762322Y-76810000D01*
X164762333Y-76810000D01*
X164873986Y-76799003D01*
X165017247Y-76755546D01*
X165149276Y-76684974D01*
X165265001Y-76590001D01*
X165288804Y-76560997D01*
X166239238Y-75610563D01*
X166236928Y-75837500D01*
X166249188Y-75961982D01*
X166285498Y-76081680D01*
X166344463Y-76191994D01*
X166423815Y-76288685D01*
X166520506Y-76368037D01*
X166630820Y-76427002D01*
X166750518Y-76463312D01*
X166875000Y-76475572D01*
X167314250Y-76472500D01*
X167473000Y-76313750D01*
X167473000Y-75377000D01*
X167727000Y-75377000D01*
X167727000Y-76313750D01*
X167885750Y-76472500D01*
X168325000Y-76475572D01*
X168449482Y-76463312D01*
X168569180Y-76427002D01*
X168679494Y-76368037D01*
X168776185Y-76288685D01*
X168855537Y-76191994D01*
X168914502Y-76081680D01*
X168950812Y-75961982D01*
X168963072Y-75837500D01*
X168960000Y-75535750D01*
X168801250Y-75377000D01*
X167727000Y-75377000D01*
X167473000Y-75377000D01*
X167453000Y-75377000D01*
X167453000Y-75123000D01*
X167473000Y-75123000D01*
X167473000Y-75103000D01*
X167727000Y-75103000D01*
X167727000Y-75123000D01*
X168801250Y-75123000D01*
X168960000Y-74964250D01*
X168963072Y-74662500D01*
X168950812Y-74538018D01*
X168914502Y-74418320D01*
X168855537Y-74308006D01*
X168776185Y-74211315D01*
X168696406Y-74145842D01*
X168702962Y-74140462D01*
X168813405Y-74005886D01*
X168895472Y-73852350D01*
X168946008Y-73685754D01*
X168963072Y-73512500D01*
X168963072Y-72837500D01*
X168946008Y-72664246D01*
X168895472Y-72497650D01*
X168813405Y-72344114D01*
X168702962Y-72209538D01*
X168568386Y-72099095D01*
X168414850Y-72017028D01*
X168248254Y-71966492D01*
X168075000Y-71949428D01*
X167125000Y-71949428D01*
X166951746Y-71966492D01*
X166785150Y-72017028D01*
X166631614Y-72099095D01*
X166497038Y-72209538D01*
X166386595Y-72344114D01*
X166304528Y-72497650D01*
X166253992Y-72664246D01*
X166236928Y-72837500D01*
X166236928Y-73463270D01*
X164410199Y-75290000D01*
X162959981Y-75290000D01*
X162904494Y-75244463D01*
X162794180Y-75185498D01*
X162674482Y-75149188D01*
X162550000Y-75136928D01*
X161050000Y-75136928D01*
X160925518Y-75149188D01*
X160805820Y-75185498D01*
X160695506Y-75244463D01*
X160598815Y-75323815D01*
X160519463Y-75420506D01*
X160507083Y-75443667D01*
X160415000Y-75535750D01*
X160416120Y-75549076D01*
X158275197Y-77690000D01*
X155118385Y-77690000D01*
X155130547Y-77667246D01*
X155137458Y-77644463D01*
X155174004Y-77523985D01*
X155185001Y-77412332D01*
X155185001Y-77412322D01*
X155188677Y-77374999D01*
X155185001Y-77337677D01*
X155185001Y-75389321D01*
X155188677Y-75351998D01*
X155185001Y-75314675D01*
X155185001Y-75314666D01*
X155174004Y-75203013D01*
X155130547Y-75059752D01*
X155065507Y-74938072D01*
X155575000Y-74938072D01*
X155699482Y-74925812D01*
X155700000Y-74925655D01*
X155700518Y-74925812D01*
X155825000Y-74938072D01*
X156375000Y-74938072D01*
X156499482Y-74925812D01*
X156500000Y-74925655D01*
X156500518Y-74925812D01*
X156625000Y-74938072D01*
X157175000Y-74938072D01*
X157299482Y-74925812D01*
X157300000Y-74925655D01*
X157300518Y-74925812D01*
X157425000Y-74938072D01*
X157975000Y-74938072D01*
X158099482Y-74925812D01*
X158100000Y-74925655D01*
X158100518Y-74925812D01*
X158225000Y-74938072D01*
X158775000Y-74938072D01*
X158899482Y-74925812D01*
X158900000Y-74925655D01*
X158900518Y-74925812D01*
X159025000Y-74938072D01*
X159575000Y-74938072D01*
X159699482Y-74925812D01*
X159700000Y-74925655D01*
X159700518Y-74925812D01*
X159825000Y-74938072D01*
X160375000Y-74938072D01*
X160417552Y-74933881D01*
X160415000Y-74964250D01*
X160573750Y-75123000D01*
X161673000Y-75123000D01*
X161673000Y-74498750D01*
X161927000Y-74498750D01*
X161927000Y-75123000D01*
X163026250Y-75123000D01*
X163185000Y-74964250D01*
X163175177Y-74847369D01*
X163138265Y-74727855D01*
X163078746Y-74617839D01*
X162998908Y-74521549D01*
X162901818Y-74442684D01*
X162791208Y-74384276D01*
X162671329Y-74348570D01*
X162546787Y-74336936D01*
X162085750Y-74340000D01*
X161927000Y-74498750D01*
X161673000Y-74498750D01*
X161514250Y-74340000D01*
X161053213Y-74336936D01*
X161009028Y-74341064D01*
X161013072Y-74300000D01*
X161013072Y-72800000D01*
X161000812Y-72675518D01*
X160964502Y-72555820D01*
X160905537Y-72445506D01*
X160826185Y-72348815D01*
X160729494Y-72269463D01*
X160619180Y-72210498D01*
X160499482Y-72174188D01*
X160375000Y-72161928D01*
X159825000Y-72161928D01*
X159700518Y-72174188D01*
X159700000Y-72174345D01*
X159699482Y-72174188D01*
X159575000Y-72161928D01*
X159025000Y-72161928D01*
X158900518Y-72174188D01*
X158900000Y-72174345D01*
X158899482Y-72174188D01*
X158775000Y-72161928D01*
X158225000Y-72161928D01*
X158100518Y-72174188D01*
X158100000Y-72174345D01*
X158099482Y-72174188D01*
X157975000Y-72161928D01*
X157562874Y-72161928D01*
X158166638Y-71558164D01*
X158195636Y-71534366D01*
X158226533Y-71496718D01*
X158290609Y-71418642D01*
X158361181Y-71286612D01*
X158404638Y-71143351D01*
X158415635Y-71031698D01*
X158415635Y-71031689D01*
X158419311Y-70994366D01*
X158415635Y-70957043D01*
X158415635Y-68755974D01*
X158717244Y-68454365D01*
X160442064Y-68454365D01*
X160486928Y-68499229D01*
X160486928Y-69125000D01*
X160503992Y-69298254D01*
X160554528Y-69464850D01*
X160636595Y-69618386D01*
X160747038Y-69752962D01*
X160881614Y-69863405D01*
X161035150Y-69945472D01*
X161201746Y-69996008D01*
X161375000Y-70013072D01*
X162325000Y-70013072D01*
X162498254Y-69996008D01*
X162664850Y-69945472D01*
X162818386Y-69863405D01*
X162952962Y-69752962D01*
X163063405Y-69618386D01*
X163145472Y-69464850D01*
X163165143Y-69400000D01*
X166061928Y-69400000D01*
X166074188Y-69524482D01*
X166110498Y-69644180D01*
X166169463Y-69754494D01*
X166248815Y-69851185D01*
X166345506Y-69930537D01*
X166455820Y-69989502D01*
X166575518Y-70025812D01*
X166700000Y-70038072D01*
X167114250Y-70035000D01*
X167273000Y-69876250D01*
X167273000Y-68927000D01*
X167527000Y-68927000D01*
X167527000Y-69876250D01*
X167685750Y-70035000D01*
X168100000Y-70038072D01*
X168224482Y-70025812D01*
X168344180Y-69989502D01*
X168454494Y-69930537D01*
X168551185Y-69851185D01*
X168630537Y-69754494D01*
X168689502Y-69644180D01*
X168725812Y-69524482D01*
X168738072Y-69400000D01*
X168735000Y-69085750D01*
X168576250Y-68927000D01*
X167527000Y-68927000D01*
X167273000Y-68927000D01*
X166223750Y-68927000D01*
X166065000Y-69085750D01*
X166061928Y-69400000D01*
X163165143Y-69400000D01*
X163196008Y-69298254D01*
X163213072Y-69125000D01*
X163213072Y-68450000D01*
X163196008Y-68276746D01*
X163145472Y-68110150D01*
X163063405Y-67956614D01*
X162952962Y-67822038D01*
X162946406Y-67816658D01*
X163026185Y-67751185D01*
X163105537Y-67654494D01*
X163164502Y-67544180D01*
X163200812Y-67424482D01*
X163205084Y-67381106D01*
X163270722Y-67434974D01*
X163402751Y-67505546D01*
X163546012Y-67549003D01*
X163694998Y-67563677D01*
X163732331Y-67560000D01*
X166167024Y-67560000D01*
X166211595Y-67643387D01*
X166278276Y-67724637D01*
X166248815Y-67748815D01*
X166169463Y-67845506D01*
X166110498Y-67955820D01*
X166074188Y-68075518D01*
X166061928Y-68200000D01*
X166065000Y-68514250D01*
X166223750Y-68673000D01*
X167273000Y-68673000D01*
X167273000Y-68653000D01*
X167527000Y-68653000D01*
X167527000Y-68673000D01*
X168576250Y-68673000D01*
X168735000Y-68514250D01*
X168738072Y-68200000D01*
X168725812Y-68075518D01*
X168689502Y-67955820D01*
X168630537Y-67845506D01*
X168551185Y-67748815D01*
X168521724Y-67724637D01*
X168588405Y-67643387D01*
X168670472Y-67489851D01*
X168721008Y-67323255D01*
X168738072Y-67150001D01*
X168738072Y-66449999D01*
X168721008Y-66276745D01*
X168670472Y-66110149D01*
X168588405Y-65956613D01*
X168477962Y-65822038D01*
X168343387Y-65711595D01*
X168189851Y-65629528D01*
X168023255Y-65578992D01*
X167850001Y-65561928D01*
X166949999Y-65561928D01*
X166776745Y-65578992D01*
X166610149Y-65629528D01*
X166456613Y-65711595D01*
X166322038Y-65822038D01*
X166211595Y-65956613D01*
X166167024Y-66040000D01*
X164009800Y-66040000D01*
X158774800Y-60805000D01*
X158877002Y-60805000D01*
X158877002Y-60646252D01*
X159035750Y-60805000D01*
X159050000Y-60808072D01*
X159174482Y-60795812D01*
X159294180Y-60759502D01*
X159404494Y-60700537D01*
X159501185Y-60621185D01*
X159580537Y-60524494D01*
X159639502Y-60414180D01*
X159675812Y-60294482D01*
X159688072Y-60170000D01*
X159687247Y-60052104D01*
X159693000Y-60047954D01*
X159693000Y-58657000D01*
X159947000Y-58657000D01*
X159947000Y-60047954D01*
X160121874Y-60174119D01*
X160344976Y-60094276D01*
X160532764Y-59972369D01*
X160693161Y-59816169D01*
X160820003Y-59631678D01*
X160908415Y-59425987D01*
X160955000Y-59207000D01*
X160955000Y-58657000D01*
X159947000Y-58657000D01*
X159693000Y-58657000D01*
X159681867Y-58657000D01*
X159675812Y-58595518D01*
X159673000Y-58586248D01*
X159673000Y-58403000D01*
X159693000Y-58403000D01*
X159693000Y-57012046D01*
X159947000Y-57012046D01*
X159947000Y-58403000D01*
X160955000Y-58403000D01*
X160955000Y-57853000D01*
X160908415Y-57634013D01*
X160820003Y-57428322D01*
X160693161Y-57243831D01*
X160532764Y-57087631D01*
X160344976Y-56965724D01*
X160121874Y-56885881D01*
X159947000Y-57012046D01*
X159693000Y-57012046D01*
X159518126Y-56885881D01*
X159295024Y-56965724D01*
X159107236Y-57087631D01*
X158962884Y-57228206D01*
X158844731Y-57149259D01*
X158670022Y-57076892D01*
X158484552Y-57040000D01*
X158360000Y-57040000D01*
X158360000Y-56937325D01*
X158363676Y-56900000D01*
X158360000Y-56862675D01*
X158360000Y-56862667D01*
X158349003Y-56751014D01*
X158305546Y-56607753D01*
X158234974Y-56475724D01*
X158140001Y-56359999D01*
X158110998Y-56336197D01*
X157963804Y-56189003D01*
X157940001Y-56159999D01*
X157824276Y-56065026D01*
X157692247Y-55994454D01*
X157548986Y-55950997D01*
X157437333Y-55940000D01*
X157437322Y-55940000D01*
X157400000Y-55936324D01*
X157362678Y-55940000D01*
X153537322Y-55940000D01*
X153499999Y-55936324D01*
X153462676Y-55940000D01*
X153462667Y-55940000D01*
X153351014Y-55950997D01*
X153207753Y-55994454D01*
X153075724Y-56065026D01*
X152959999Y-56159999D01*
X152936200Y-56188998D01*
X152763996Y-56361203D01*
X152734999Y-56385000D01*
X152711201Y-56413998D01*
X152711200Y-56413999D01*
X152640025Y-56500725D01*
X152569453Y-56632755D01*
X152525997Y-56776016D01*
X152511323Y-56925001D01*
X152515000Y-56962333D01*
X152515000Y-57040089D01*
X152329978Y-57076892D01*
X152155269Y-57149259D01*
X152037116Y-57228206D01*
X151892764Y-57087631D01*
X151704976Y-56965724D01*
X151481874Y-56885881D01*
X151307000Y-57012046D01*
X151307000Y-58403000D01*
X151327000Y-58403000D01*
X151327000Y-58586248D01*
X151324188Y-58595518D01*
X151318133Y-58657000D01*
X151307000Y-58657000D01*
X151307000Y-58677000D01*
X151053000Y-58677000D01*
X151053000Y-58657000D01*
X150045000Y-58657000D01*
X150045000Y-59207000D01*
X150091585Y-59425987D01*
X150179997Y-59631678D01*
X150251034Y-59735001D01*
X145169322Y-59735001D01*
X145131997Y-59731325D01*
X145094672Y-59735001D01*
X145094664Y-59735001D01*
X144983011Y-59745998D01*
X144839750Y-59789455D01*
X144707721Y-59860027D01*
X144591996Y-59955000D01*
X144568198Y-59983998D01*
X138088998Y-66463199D01*
X138060000Y-66486997D01*
X138036202Y-66515995D01*
X138036201Y-66515996D01*
X137965026Y-66602722D01*
X137894454Y-66734752D01*
X137883211Y-66771818D01*
X137852519Y-66873000D01*
X137850998Y-66878013D01*
X137836324Y-67026998D01*
X137840001Y-67064331D01*
X137840000Y-83062678D01*
X137836324Y-83100000D01*
X137840000Y-83137322D01*
X137840000Y-83137332D01*
X137850997Y-83248985D01*
X137889829Y-83377000D01*
X137894454Y-83392246D01*
X137965026Y-83524276D01*
X137974443Y-83535750D01*
X138059999Y-83640001D01*
X138089003Y-83663804D01*
X140261201Y-85836003D01*
X140284999Y-85865001D01*
X140400724Y-85959974D01*
X140532753Y-86030546D01*
X140676014Y-86074003D01*
X140787667Y-86085000D01*
X140787676Y-86085000D01*
X140824999Y-86088676D01*
X140862322Y-86085000D01*
X144848706Y-86085000D01*
X144886595Y-86155886D01*
X144997038Y-86290462D01*
X145131614Y-86400905D01*
X145285150Y-86482972D01*
X145340000Y-86499611D01*
X145340001Y-88395137D01*
X145210149Y-88434527D01*
X145056613Y-88516594D01*
X144922038Y-88627037D01*
X144811595Y-88761612D01*
X144729528Y-88915148D01*
X144678992Y-89081744D01*
X144661928Y-89254998D01*
X144661928Y-89955000D01*
X144678992Y-90128254D01*
X144729528Y-90294850D01*
X144811595Y-90448386D01*
X144922038Y-90582961D01*
X144948891Y-90604999D01*
X144922038Y-90627037D01*
X144811595Y-90761612D01*
X144729528Y-90915148D01*
X144678992Y-91081744D01*
X144661928Y-91254998D01*
X144661928Y-91955000D01*
X144678992Y-92128254D01*
X144729528Y-92294850D01*
X144811595Y-92448386D01*
X144922038Y-92582961D01*
X145056613Y-92693404D01*
X145210149Y-92775471D01*
X145376745Y-92826007D01*
X145549999Y-92843071D01*
X146163271Y-92843071D01*
X150331202Y-97011003D01*
X150355000Y-97040001D01*
X150470725Y-97134974D01*
X150602754Y-97205546D01*
X150746015Y-97249003D01*
X150857668Y-97260000D01*
X150857678Y-97260000D01*
X150895001Y-97263676D01*
X150932324Y-97260000D01*
X151218954Y-97260000D01*
X151269463Y-97354494D01*
X151348815Y-97451185D01*
X151445506Y-97530537D01*
X151555820Y-97589502D01*
X151675518Y-97625812D01*
X151800000Y-97638072D01*
X153500000Y-97638072D01*
X153624482Y-97625812D01*
X153744180Y-97589502D01*
X153854494Y-97530537D01*
X153951185Y-97451185D01*
X154030537Y-97354494D01*
X154081046Y-97260000D01*
X157189674Y-97260000D01*
X157226997Y-97263676D01*
X157264320Y-97260000D01*
X157518954Y-97260000D01*
X157569463Y-97354494D01*
X157648815Y-97451185D01*
X157745506Y-97530537D01*
X157855820Y-97589502D01*
X157975518Y-97625812D01*
X158100000Y-97638072D01*
X159800000Y-97638072D01*
X159924482Y-97625812D01*
X160044180Y-97589502D01*
X160154494Y-97530537D01*
X160251185Y-97451185D01*
X160330537Y-97354494D01*
X160389502Y-97244180D01*
X160425812Y-97124482D01*
X160426607Y-97116407D01*
X163940000Y-100629800D01*
X163940001Y-107665199D01*
X162538803Y-106264002D01*
X162515000Y-106234998D01*
X162399275Y-106140025D01*
X162267246Y-106069453D01*
X162123985Y-106025996D01*
X162012332Y-106014999D01*
X162012321Y-106014999D01*
X161974999Y-106011323D01*
X161937677Y-106014999D01*
X151412323Y-106014999D01*
X151375000Y-106011323D01*
X151337678Y-106014999D01*
X151337668Y-106014999D01*
X151226015Y-106025996D01*
X151082754Y-106069453D01*
X150950725Y-106140025D01*
X150835000Y-106234998D01*
X150811200Y-106263998D01*
X150788996Y-106286203D01*
X150760000Y-106309999D01*
X150736202Y-106338997D01*
X150736201Y-106338998D01*
X150665026Y-106425724D01*
X150645674Y-106461928D01*
X150500000Y-106461928D01*
X150375518Y-106474188D01*
X150255820Y-106510498D01*
X150145506Y-106569463D01*
X150048815Y-106648815D01*
X149969463Y-106745506D01*
X149910498Y-106855820D01*
X149874188Y-106975518D01*
X149861928Y-107100000D01*
X149861928Y-107140000D01*
X142037323Y-107140000D01*
X142000000Y-107136324D01*
X141962677Y-107140000D01*
X141962667Y-107140000D01*
X141851014Y-107150997D01*
X141707753Y-107194454D01*
X141575723Y-107265026D01*
X141533108Y-107300000D01*
X141459999Y-107359999D01*
X141436201Y-107388997D01*
X139863271Y-108961928D01*
X138700000Y-108961928D01*
X138575518Y-108974188D01*
X138455820Y-109010498D01*
X138345506Y-109069463D01*
X138248815Y-109148815D01*
X138169463Y-109245506D01*
X138110498Y-109355820D01*
X138074188Y-109475518D01*
X138061928Y-109600000D01*
X138061928Y-111200000D01*
X138074188Y-111324482D01*
X138110498Y-111444180D01*
X138169463Y-111554494D01*
X138248815Y-111651185D01*
X138345506Y-111730537D01*
X138455820Y-111789502D01*
X138575518Y-111825812D01*
X138700000Y-111838072D01*
X140300000Y-111838072D01*
X140424482Y-111825812D01*
X140544180Y-111789502D01*
X140654494Y-111730537D01*
X140751185Y-111651185D01*
X140830537Y-111554494D01*
X140851625Y-111515042D01*
X140870506Y-111530537D01*
X140980820Y-111589502D01*
X141100518Y-111625812D01*
X141225000Y-111638072D01*
X142425000Y-111638072D01*
X142549482Y-111625812D01*
X142669180Y-111589502D01*
X142779494Y-111530537D01*
X142876185Y-111451185D01*
X142955537Y-111354494D01*
X143014502Y-111244180D01*
X143050812Y-111124482D01*
X143063072Y-111000000D01*
X143063072Y-109800000D01*
X143050812Y-109675518D01*
X143014502Y-109555820D01*
X142955537Y-109445506D01*
X142876185Y-109348815D01*
X142779494Y-109269463D01*
X142669180Y-109210498D01*
X142549482Y-109174188D01*
X142425000Y-109161928D01*
X141812874Y-109161928D01*
X142314802Y-108660000D01*
X149861928Y-108660000D01*
X149861928Y-108700000D01*
X149874188Y-108824482D01*
X149910498Y-108944180D01*
X149969463Y-109054494D01*
X150048815Y-109151185D01*
X150145506Y-109230537D01*
X150255820Y-109289502D01*
X150375518Y-109325812D01*
X150500000Y-109338072D01*
X152100000Y-109338072D01*
X152224482Y-109325812D01*
X152344180Y-109289502D01*
X152454494Y-109230537D01*
X152551185Y-109151185D01*
X152630537Y-109054494D01*
X152651625Y-109015042D01*
X152670506Y-109030537D01*
X152780820Y-109089502D01*
X152900518Y-109125812D01*
X153025000Y-109138072D01*
X154225000Y-109138072D01*
X154349482Y-109125812D01*
X154469180Y-109089502D01*
X154579494Y-109030537D01*
X154676185Y-108951185D01*
X154755537Y-108854494D01*
X154814502Y-108744180D01*
X154850812Y-108624482D01*
X154863072Y-108500000D01*
X154863072Y-107534999D01*
X155536928Y-107534999D01*
X155536928Y-108500000D01*
X155549188Y-108624482D01*
X155585498Y-108744180D01*
X155644463Y-108854494D01*
X155723815Y-108951185D01*
X155785024Y-109001418D01*
X155601939Y-108965000D01*
X155398061Y-108965000D01*
X155198102Y-109004774D01*
X155009744Y-109082795D01*
X154840226Y-109196063D01*
X154696063Y-109340226D01*
X154582795Y-109509744D01*
X154504774Y-109698102D01*
X154465000Y-109898061D01*
X154465000Y-110101939D01*
X154504774Y-110301898D01*
X154582795Y-110490256D01*
X154696063Y-110659774D01*
X154840226Y-110803937D01*
X155009744Y-110917205D01*
X155198102Y-110995226D01*
X155398061Y-111035000D01*
X155601939Y-111035000D01*
X155801898Y-110995226D01*
X155990256Y-110917205D01*
X156159774Y-110803937D01*
X156203711Y-110760000D01*
X157865199Y-110760000D01*
X157588998Y-111036201D01*
X157560000Y-111059999D01*
X157536202Y-111088997D01*
X157536201Y-111088998D01*
X157465026Y-111175724D01*
X157394454Y-111307754D01*
X157350998Y-111451015D01*
X157336324Y-111600000D01*
X157340001Y-111637332D01*
X157340000Y-117961928D01*
X157300000Y-117961928D01*
X157175518Y-117974188D01*
X157055820Y-118010498D01*
X156945506Y-118069463D01*
X156848815Y-118148815D01*
X156769463Y-118245506D01*
X156710498Y-118355820D01*
X156674188Y-118475518D01*
X156661928Y-118600000D01*
X156661928Y-120200000D01*
X156674188Y-120324482D01*
X156710498Y-120444180D01*
X156769463Y-120554494D01*
X156848815Y-120651185D01*
X156945506Y-120730537D01*
X157055820Y-120789502D01*
X157175518Y-120825812D01*
X157300000Y-120838072D01*
X158900000Y-120838072D01*
X159024482Y-120825812D01*
X159144180Y-120789502D01*
X159254494Y-120730537D01*
X159351185Y-120651185D01*
X159430537Y-120554494D01*
X159451625Y-120515042D01*
X159470506Y-120530537D01*
X159580820Y-120589502D01*
X159700518Y-120625812D01*
X159825000Y-120638072D01*
X160590002Y-120638072D01*
X160590001Y-124662678D01*
X160586325Y-124700001D01*
X160590001Y-124737323D01*
X160590001Y-124737333D01*
X160600998Y-124848986D01*
X160636190Y-124965000D01*
X160644455Y-124992247D01*
X160715027Y-125124277D01*
X160754872Y-125172827D01*
X160810000Y-125240002D01*
X160839004Y-125263805D01*
X163386201Y-127811003D01*
X163398820Y-127826379D01*
X162160198Y-129065001D01*
X160690509Y-129065001D01*
X160735000Y-128841335D01*
X160735000Y-128558665D01*
X160679853Y-128281426D01*
X160571680Y-128020273D01*
X160414637Y-127785241D01*
X160214759Y-127585363D01*
X159979727Y-127428320D01*
X159718574Y-127320147D01*
X159441335Y-127265000D01*
X159158665Y-127265000D01*
X158976114Y-127301312D01*
X157163804Y-125489003D01*
X157140001Y-125459999D01*
X157024276Y-125365026D01*
X156892247Y-125294454D01*
X156748986Y-125250997D01*
X156637333Y-125240000D01*
X156637322Y-125240000D01*
X156600000Y-125236324D01*
X156562678Y-125240000D01*
X156203711Y-125240000D01*
X156159774Y-125196063D01*
X155990256Y-125082795D01*
X155801898Y-125004774D01*
X155601939Y-124965000D01*
X155398061Y-124965000D01*
X155198102Y-125004774D01*
X155009744Y-125082795D01*
X154840226Y-125196063D01*
X154696063Y-125340226D01*
X154582795Y-125509744D01*
X154504774Y-125698102D01*
X154465000Y-125898061D01*
X154465000Y-126101939D01*
X154504774Y-126301898D01*
X154582795Y-126490256D01*
X154696063Y-126659774D01*
X154840226Y-126803937D01*
X155009744Y-126917205D01*
X155198102Y-126995226D01*
X155398061Y-127035000D01*
X155601939Y-127035000D01*
X155801898Y-126995226D01*
X155990256Y-126917205D01*
X156159774Y-126803937D01*
X156203711Y-126760000D01*
X156285199Y-126760000D01*
X156987127Y-127461928D01*
X156375000Y-127461928D01*
X156250518Y-127474188D01*
X156130820Y-127510498D01*
X156020506Y-127569463D01*
X155923815Y-127648815D01*
X155844463Y-127745506D01*
X155785498Y-127855820D01*
X155749188Y-127975518D01*
X155736928Y-128100000D01*
X155736928Y-129065001D01*
X155063072Y-129065001D01*
X155063072Y-128100000D01*
X155050812Y-127975518D01*
X155014502Y-127855820D01*
X154955537Y-127745506D01*
X154876185Y-127648815D01*
X154779494Y-127569463D01*
X154669180Y-127510498D01*
X154549482Y-127474188D01*
X154425000Y-127461928D01*
X153225000Y-127461928D01*
X153100518Y-127474188D01*
X152980820Y-127510498D01*
X152870506Y-127569463D01*
X152851625Y-127584958D01*
X152830537Y-127545506D01*
X152751185Y-127448815D01*
X152654494Y-127369463D01*
X152544180Y-127310498D01*
X152424482Y-127274188D01*
X152300000Y-127261928D01*
X150700000Y-127261928D01*
X150575518Y-127274188D01*
X150455820Y-127310498D01*
X150345506Y-127369463D01*
X150248815Y-127448815D01*
X150169463Y-127545506D01*
X150110498Y-127655820D01*
X150074188Y-127775518D01*
X150061928Y-127900000D01*
X150061928Y-128365001D01*
X147290509Y-128365001D01*
X147335000Y-128141335D01*
X147335000Y-127858665D01*
X147279853Y-127581426D01*
X147171680Y-127320273D01*
X147014637Y-127085241D01*
X146814759Y-126885363D01*
X146579727Y-126728320D01*
X146318574Y-126620147D01*
X146041335Y-126565000D01*
X145758665Y-126565000D01*
X145576114Y-126601312D01*
X143463804Y-124489003D01*
X143440001Y-124459999D01*
X143324276Y-124365026D01*
X143192247Y-124294454D01*
X143048986Y-124250997D01*
X142937333Y-124240000D01*
X142937322Y-124240000D01*
X142900000Y-124236324D01*
X142862678Y-124240000D01*
X142703711Y-124240000D01*
X142659774Y-124196063D01*
X142490256Y-124082795D01*
X142301898Y-124004774D01*
X142101939Y-123965000D01*
X141898061Y-123965000D01*
X141698102Y-124004774D01*
X141509744Y-124082795D01*
X141340226Y-124196063D01*
X141196063Y-124340226D01*
X141082795Y-124509744D01*
X141004774Y-124698102D01*
X140965000Y-124898061D01*
X140965000Y-125101939D01*
X141004774Y-125301898D01*
X141082795Y-125490256D01*
X141196063Y-125659774D01*
X141340226Y-125803937D01*
X141509744Y-125917205D01*
X141698102Y-125995226D01*
X141898061Y-126035000D01*
X142101939Y-126035000D01*
X142301898Y-125995226D01*
X142490256Y-125917205D01*
X142641408Y-125816209D01*
X143587127Y-126761928D01*
X142975000Y-126761928D01*
X142850518Y-126774188D01*
X142730820Y-126810498D01*
X142620506Y-126869463D01*
X142523815Y-126948815D01*
X142444463Y-127045506D01*
X142385498Y-127155820D01*
X142349188Y-127275518D01*
X142336928Y-127400000D01*
X142336928Y-128365001D01*
X141663072Y-128365001D01*
X141663072Y-127400000D01*
X141650812Y-127275518D01*
X141614502Y-127155820D01*
X141555537Y-127045506D01*
X141476185Y-126948815D01*
X141379494Y-126869463D01*
X141269180Y-126810498D01*
X141149482Y-126774188D01*
X141025000Y-126761928D01*
X139825000Y-126761928D01*
X139700518Y-126774188D01*
X139580820Y-126810498D01*
X139470506Y-126869463D01*
X139451625Y-126884958D01*
X139430537Y-126845506D01*
X139351185Y-126748815D01*
X139254494Y-126669463D01*
X139144180Y-126610498D01*
X139024482Y-126574188D01*
X138900000Y-126561928D01*
X137300000Y-126561928D01*
X137175518Y-126574188D01*
X137055820Y-126610498D01*
X136945506Y-126669463D01*
X136848815Y-126748815D01*
X136769463Y-126845506D01*
X136710498Y-126955820D01*
X136674188Y-127075518D01*
X136661928Y-127200000D01*
X136661928Y-128800000D01*
X136674188Y-128924482D01*
X136710498Y-129044180D01*
X136769463Y-129154494D01*
X136848815Y-129251185D01*
X136945506Y-129330537D01*
X137055820Y-129389502D01*
X137175518Y-129425812D01*
X137300000Y-129438072D01*
X138463270Y-129438072D01*
X138661202Y-129636004D01*
X138685000Y-129665002D01*
X138800725Y-129759975D01*
X138932754Y-129830547D01*
X139076015Y-129874004D01*
X139187668Y-129885001D01*
X139187676Y-129885001D01*
X139225001Y-129888677D01*
X139262326Y-129885001D01*
X150194499Y-129885001D01*
X150248815Y-129951185D01*
X150345506Y-130030537D01*
X150455820Y-130089502D01*
X150575518Y-130125812D01*
X150700000Y-130138072D01*
X151863270Y-130138072D01*
X152061202Y-130336004D01*
X152085000Y-130365002D01*
X152200725Y-130459975D01*
X152332754Y-130530547D01*
X152476015Y-130574004D01*
X152587668Y-130585001D01*
X152587676Y-130585001D01*
X152625001Y-130588677D01*
X152662326Y-130585001D01*
X162437677Y-130585001D01*
X162474999Y-130588677D01*
X162512321Y-130585001D01*
X162512332Y-130585001D01*
X162623985Y-130574004D01*
X162767246Y-130530547D01*
X162899275Y-130459975D01*
X163015000Y-130365002D01*
X163038803Y-130335998D01*
X164636730Y-128738072D01*
X165800000Y-128738072D01*
X165924482Y-128725812D01*
X166044180Y-128689502D01*
X166154494Y-128630537D01*
X166251185Y-128551185D01*
X166330537Y-128454494D01*
X166351625Y-128415042D01*
X166370506Y-128430537D01*
X166480820Y-128489502D01*
X166600518Y-128525812D01*
X166725000Y-128538072D01*
X166797128Y-128538072D01*
X163588998Y-131746203D01*
X163560000Y-131770001D01*
X163536202Y-131798999D01*
X163536201Y-131799000D01*
X163465026Y-131885726D01*
X163394454Y-132017756D01*
X163350998Y-132161017D01*
X163336324Y-132310002D01*
X163340001Y-132347334D01*
X163340000Y-134461928D01*
X163300000Y-134461928D01*
X163175518Y-134474188D01*
X163055820Y-134510498D01*
X162945506Y-134569463D01*
X162848815Y-134648815D01*
X162769463Y-134745506D01*
X162710498Y-134855820D01*
X162674188Y-134975518D01*
X162661928Y-135100000D01*
X162661928Y-136263270D01*
X161760198Y-137165001D01*
X160790509Y-137165001D01*
X160835000Y-136941335D01*
X160835000Y-136658665D01*
X160779853Y-136381426D01*
X160671680Y-136120273D01*
X160514637Y-135885241D01*
X160314759Y-135685363D01*
X160079727Y-135528320D01*
X159818574Y-135420147D01*
X159541335Y-135365000D01*
X159258665Y-135365000D01*
X159076114Y-135401312D01*
X157163804Y-133489003D01*
X157140001Y-133459999D01*
X157024276Y-133365026D01*
X156892247Y-133294454D01*
X156748986Y-133250997D01*
X156637333Y-133240000D01*
X156637322Y-133240000D01*
X156600000Y-133236324D01*
X156562678Y-133240000D01*
X156203711Y-133240000D01*
X156159774Y-133196063D01*
X155990256Y-133082795D01*
X155801898Y-133004774D01*
X155601939Y-132965000D01*
X155398061Y-132965000D01*
X155198102Y-133004774D01*
X155009744Y-133082795D01*
X154840226Y-133196063D01*
X154696063Y-133340226D01*
X154582795Y-133509744D01*
X154504774Y-133698102D01*
X154465000Y-133898061D01*
X154465000Y-134101939D01*
X154504774Y-134301898D01*
X154582795Y-134490256D01*
X154696063Y-134659774D01*
X154840226Y-134803937D01*
X155009744Y-134917205D01*
X155198102Y-134995226D01*
X155398061Y-135035000D01*
X155601939Y-135035000D01*
X155801898Y-134995226D01*
X155990256Y-134917205D01*
X156159774Y-134803937D01*
X156203711Y-134760000D01*
X156285199Y-134760000D01*
X157087127Y-135561928D01*
X156475000Y-135561928D01*
X156350518Y-135574188D01*
X156230820Y-135610498D01*
X156120506Y-135669463D01*
X156023815Y-135748815D01*
X155944463Y-135845506D01*
X155885498Y-135955820D01*
X155849188Y-136075518D01*
X155836928Y-136200000D01*
X155836928Y-137165001D01*
X155163072Y-137165001D01*
X155163072Y-136200000D01*
X155150812Y-136075518D01*
X155114502Y-135955820D01*
X155055537Y-135845506D01*
X154976185Y-135748815D01*
X154879494Y-135669463D01*
X154769180Y-135610498D01*
X154649482Y-135574188D01*
X154525000Y-135561928D01*
X153325000Y-135561928D01*
X153200518Y-135574188D01*
X153080820Y-135610498D01*
X152970506Y-135669463D01*
X152951625Y-135684958D01*
X152930537Y-135645506D01*
X152851185Y-135548815D01*
X152754494Y-135469463D01*
X152644180Y-135410498D01*
X152524482Y-135374188D01*
X152400000Y-135361928D01*
X150800000Y-135361928D01*
X150675518Y-135374188D01*
X150555820Y-135410498D01*
X150445506Y-135469463D01*
X150348815Y-135548815D01*
X150269463Y-135645506D01*
X150210498Y-135755820D01*
X150174188Y-135875518D01*
X150161928Y-136000000D01*
X150161928Y-136465001D01*
X148390509Y-136465001D01*
X148435000Y-136241335D01*
X148435000Y-135958665D01*
X148379853Y-135681426D01*
X148271680Y-135420273D01*
X148114637Y-135185241D01*
X147914759Y-134985363D01*
X147679727Y-134828320D01*
X147418574Y-134720147D01*
X147141335Y-134665000D01*
X146858665Y-134665000D01*
X146676114Y-134701312D01*
X144463804Y-132489003D01*
X144440001Y-132459999D01*
X144324276Y-132365026D01*
X144192247Y-132294454D01*
X144048986Y-132250997D01*
X143937333Y-132240000D01*
X143937322Y-132240000D01*
X143900000Y-132236324D01*
X143862678Y-132240000D01*
X143703711Y-132240000D01*
X143659774Y-132196063D01*
X143490256Y-132082795D01*
X143301898Y-132004774D01*
X143101939Y-131965000D01*
X142898061Y-131965000D01*
X142698102Y-132004774D01*
X142509744Y-132082795D01*
X142340226Y-132196063D01*
X142196063Y-132340226D01*
X142082795Y-132509744D01*
X142004774Y-132698102D01*
X141965000Y-132898061D01*
X141965000Y-133101939D01*
X142004774Y-133301898D01*
X142082795Y-133490256D01*
X142196063Y-133659774D01*
X142340226Y-133803937D01*
X142509744Y-133917205D01*
X142698102Y-133995226D01*
X142898061Y-134035000D01*
X143101939Y-134035000D01*
X143301898Y-133995226D01*
X143490256Y-133917205D01*
X143641408Y-133816209D01*
X144687127Y-134861928D01*
X144075000Y-134861928D01*
X143950518Y-134874188D01*
X143830820Y-134910498D01*
X143720506Y-134969463D01*
X143623815Y-135048815D01*
X143544463Y-135145506D01*
X143485498Y-135255820D01*
X143449188Y-135375518D01*
X143436928Y-135500000D01*
X143436928Y-136465001D01*
X142763072Y-136465001D01*
X142763072Y-135500000D01*
X142750812Y-135375518D01*
X142714502Y-135255820D01*
X142655537Y-135145506D01*
X142576185Y-135048815D01*
X142479494Y-134969463D01*
X142369180Y-134910498D01*
X142249482Y-134874188D01*
X142125000Y-134861928D01*
X140925000Y-134861928D01*
X140800518Y-134874188D01*
X140680820Y-134910498D01*
X140570506Y-134969463D01*
X140551625Y-134984958D01*
X140530537Y-134945506D01*
X140451185Y-134848815D01*
X140354494Y-134769463D01*
X140244180Y-134710498D01*
X140124482Y-134674188D01*
X140000000Y-134661928D01*
X138400000Y-134661928D01*
X138275518Y-134674188D01*
X138155820Y-134710498D01*
X138113903Y-134732904D01*
X138072168Y-134523088D01*
X137948918Y-134225537D01*
X137769987Y-133957748D01*
X137542252Y-133730013D01*
X137274463Y-133551082D01*
X136976912Y-133427832D01*
X136661033Y-133365000D01*
X136338967Y-133365000D01*
X136023088Y-133427832D01*
X135725537Y-133551082D01*
X135457748Y-133730013D01*
X135410000Y-133777761D01*
X135410000Y-113598061D01*
X142215000Y-113598061D01*
X142215000Y-113801939D01*
X142254774Y-114001898D01*
X142332795Y-114190256D01*
X142446063Y-114359774D01*
X142590226Y-114503937D01*
X142759744Y-114617205D01*
X142948102Y-114695226D01*
X143148061Y-114735000D01*
X143351939Y-114735000D01*
X143551898Y-114695226D01*
X143740256Y-114617205D01*
X143909774Y-114503937D01*
X143953711Y-114460000D01*
X145362678Y-114460000D01*
X145400000Y-114463676D01*
X145437322Y-114460000D01*
X145437333Y-114460000D01*
X145548986Y-114449003D01*
X145692247Y-114405546D01*
X145824276Y-114334974D01*
X145940001Y-114240001D01*
X145963804Y-114210997D01*
X147811003Y-112363799D01*
X147840001Y-112340001D01*
X147934974Y-112224276D01*
X148005546Y-112092247D01*
X148049003Y-111948986D01*
X148060000Y-111837333D01*
X148060000Y-111837325D01*
X148063676Y-111800000D01*
X148060000Y-111762675D01*
X148060000Y-111618043D01*
X148214759Y-111514637D01*
X148414637Y-111314759D01*
X148571680Y-111079727D01*
X148679853Y-110818574D01*
X148735000Y-110541335D01*
X148735000Y-110258665D01*
X148679853Y-109981426D01*
X148571680Y-109720273D01*
X148414637Y-109485241D01*
X148214759Y-109285363D01*
X147979727Y-109128320D01*
X147718574Y-109020147D01*
X147441335Y-108965000D01*
X147158665Y-108965000D01*
X146881426Y-109020147D01*
X146620273Y-109128320D01*
X146385241Y-109285363D01*
X146185363Y-109485241D01*
X146167531Y-109511928D01*
X146141041Y-109511928D01*
X146105537Y-109445506D01*
X146026185Y-109348815D01*
X145929494Y-109269463D01*
X145819180Y-109210498D01*
X145699482Y-109174188D01*
X145575000Y-109161928D01*
X144375000Y-109161928D01*
X144250518Y-109174188D01*
X144130820Y-109210498D01*
X144020506Y-109269463D01*
X143923815Y-109348815D01*
X143844463Y-109445506D01*
X143785498Y-109555820D01*
X143749188Y-109675518D01*
X143736928Y-109800000D01*
X143736928Y-111000000D01*
X143749188Y-111124482D01*
X143785498Y-111244180D01*
X143844463Y-111354494D01*
X143923815Y-111451185D01*
X144020506Y-111530537D01*
X144130820Y-111589502D01*
X144250518Y-111625812D01*
X144375000Y-111638072D01*
X145575000Y-111638072D01*
X145699482Y-111625812D01*
X145819180Y-111589502D01*
X145929494Y-111530537D01*
X146026185Y-111451185D01*
X146105537Y-111354494D01*
X146141041Y-111288072D01*
X146167531Y-111288072D01*
X146185363Y-111314759D01*
X146385241Y-111514637D01*
X146460365Y-111564833D01*
X145085199Y-112940000D01*
X143953711Y-112940000D01*
X143909774Y-112896063D01*
X143740256Y-112782795D01*
X143551898Y-112704774D01*
X143351939Y-112665000D01*
X143148061Y-112665000D01*
X142948102Y-112704774D01*
X142759744Y-112782795D01*
X142590226Y-112896063D01*
X142446063Y-113040226D01*
X142332795Y-113209744D01*
X142254774Y-113398102D01*
X142215000Y-113598061D01*
X135410000Y-113598061D01*
X135410000Y-100800000D01*
X151161928Y-100800000D01*
X151174188Y-100924482D01*
X151210498Y-101044180D01*
X151269463Y-101154494D01*
X151348815Y-101251185D01*
X151445506Y-101330537D01*
X151555820Y-101389502D01*
X151675518Y-101425812D01*
X151800000Y-101438072D01*
X152364250Y-101435000D01*
X152523000Y-101276250D01*
X152523000Y-100427000D01*
X152777000Y-100427000D01*
X152777000Y-101276250D01*
X152935750Y-101435000D01*
X153500000Y-101438072D01*
X153624482Y-101425812D01*
X153744180Y-101389502D01*
X153854494Y-101330537D01*
X153951185Y-101251185D01*
X154030537Y-101154494D01*
X154089502Y-101044180D01*
X154125812Y-100924482D01*
X154138072Y-100800000D01*
X157461928Y-100800000D01*
X157474188Y-100924482D01*
X157510498Y-101044180D01*
X157569463Y-101154494D01*
X157648815Y-101251185D01*
X157745506Y-101330537D01*
X157855820Y-101389502D01*
X157975518Y-101425812D01*
X158100000Y-101438072D01*
X158664250Y-101435000D01*
X158823000Y-101276250D01*
X158823000Y-100427000D01*
X159077000Y-100427000D01*
X159077000Y-101276250D01*
X159235750Y-101435000D01*
X159800000Y-101438072D01*
X159924482Y-101425812D01*
X160044180Y-101389502D01*
X160154494Y-101330537D01*
X160251185Y-101251185D01*
X160330537Y-101154494D01*
X160389502Y-101044180D01*
X160425812Y-100924482D01*
X160438072Y-100800000D01*
X160435000Y-100585750D01*
X160276250Y-100427000D01*
X159077000Y-100427000D01*
X158823000Y-100427000D01*
X157623750Y-100427000D01*
X157465000Y-100585750D01*
X157461928Y-100800000D01*
X154138072Y-100800000D01*
X154135000Y-100585750D01*
X153976250Y-100427000D01*
X152777000Y-100427000D01*
X152523000Y-100427000D01*
X151323750Y-100427000D01*
X151165000Y-100585750D01*
X151161928Y-100800000D01*
X135410000Y-100800000D01*
X135410000Y-99800000D01*
X151161928Y-99800000D01*
X151165000Y-100014250D01*
X151323750Y-100173000D01*
X152523000Y-100173000D01*
X152523000Y-99323750D01*
X152777000Y-99323750D01*
X152777000Y-100173000D01*
X153976250Y-100173000D01*
X154135000Y-100014250D01*
X154138072Y-99800000D01*
X157461928Y-99800000D01*
X157465000Y-100014250D01*
X157623750Y-100173000D01*
X158823000Y-100173000D01*
X158823000Y-99323750D01*
X159077000Y-99323750D01*
X159077000Y-100173000D01*
X160276250Y-100173000D01*
X160435000Y-100014250D01*
X160438072Y-99800000D01*
X160425812Y-99675518D01*
X160389502Y-99555820D01*
X160330537Y-99445506D01*
X160251185Y-99348815D01*
X160154494Y-99269463D01*
X160044180Y-99210498D01*
X159924482Y-99174188D01*
X159800000Y-99161928D01*
X159235750Y-99165000D01*
X159077000Y-99323750D01*
X158823000Y-99323750D01*
X158664250Y-99165000D01*
X158100000Y-99161928D01*
X157975518Y-99174188D01*
X157855820Y-99210498D01*
X157745506Y-99269463D01*
X157648815Y-99348815D01*
X157569463Y-99445506D01*
X157510498Y-99555820D01*
X157474188Y-99675518D01*
X157461928Y-99800000D01*
X154138072Y-99800000D01*
X154125812Y-99675518D01*
X154089502Y-99555820D01*
X154030537Y-99445506D01*
X153951185Y-99348815D01*
X153854494Y-99269463D01*
X153744180Y-99210498D01*
X153624482Y-99174188D01*
X153500000Y-99161928D01*
X152935750Y-99165000D01*
X152777000Y-99323750D01*
X152523000Y-99323750D01*
X152364250Y-99165000D01*
X151800000Y-99161928D01*
X151675518Y-99174188D01*
X151555820Y-99210498D01*
X151445506Y-99269463D01*
X151348815Y-99348815D01*
X151269463Y-99445506D01*
X151210498Y-99555820D01*
X151174188Y-99675518D01*
X151161928Y-99800000D01*
X135410000Y-99800000D01*
X135410000Y-65066806D01*
X136951025Y-57532906D01*
X137051082Y-57774463D01*
X137230013Y-58042252D01*
X137457748Y-58269987D01*
X137725537Y-58448918D01*
X138023088Y-58572168D01*
X138338967Y-58635000D01*
X138661033Y-58635000D01*
X138976912Y-58572168D01*
X139274463Y-58448918D01*
X139542252Y-58269987D01*
X139769987Y-58042252D01*
X139896441Y-57853000D01*
X150045000Y-57853000D01*
X150045000Y-58403000D01*
X151053000Y-58403000D01*
X151053000Y-57012046D01*
X150878126Y-56885881D01*
X150655024Y-56965724D01*
X150467236Y-57087631D01*
X150306839Y-57243831D01*
X150179997Y-57428322D01*
X150091585Y-57634013D01*
X150045000Y-57853000D01*
X139896441Y-57853000D01*
X139948918Y-57774463D01*
X140072168Y-57476912D01*
X140135000Y-57161033D01*
X140135000Y-56838967D01*
X140072168Y-56523088D01*
X139948918Y-56225537D01*
X139769987Y-55957748D01*
X139542252Y-55730013D01*
X139274463Y-55551082D01*
X138976912Y-55427832D01*
X138661033Y-55365000D01*
X138338967Y-55365000D01*
X138023088Y-55427832D01*
X137725537Y-55551082D01*
X137457748Y-55730013D01*
X137284326Y-55903435D01*
X137538665Y-54660000D01*
X150045000Y-54660000D01*
X150045000Y-54777000D01*
X150091585Y-54995987D01*
X150179997Y-55201678D01*
X150306839Y-55386169D01*
X150467236Y-55542369D01*
X150655024Y-55664276D01*
X150878126Y-55744119D01*
X151053000Y-55617954D01*
X151053000Y-54477000D01*
X151307000Y-54477000D01*
X151307000Y-55617954D01*
X151481874Y-55744119D01*
X151704976Y-55664276D01*
X151892764Y-55542369D01*
X152053161Y-55386169D01*
X152180003Y-55201678D01*
X152268415Y-54995987D01*
X152315000Y-54777000D01*
X152315000Y-54477000D01*
X158685000Y-54477000D01*
X158685000Y-54777000D01*
X158731585Y-54995987D01*
X158819997Y-55201678D01*
X158946839Y-55386169D01*
X159107236Y-55542369D01*
X159295024Y-55664276D01*
X159518126Y-55744119D01*
X159693000Y-55617954D01*
X159693000Y-54477000D01*
X158685000Y-54477000D01*
X152315000Y-54477000D01*
X151307000Y-54477000D01*
X151053000Y-54477000D01*
X151033000Y-54477000D01*
X151033000Y-54223000D01*
X151053000Y-54223000D01*
X151053000Y-54203000D01*
X151307000Y-54203000D01*
X151307000Y-54223000D01*
X152315000Y-54223000D01*
X152315000Y-53923000D01*
X152268415Y-53704013D01*
X152249497Y-53660000D01*
X158750503Y-53660000D01*
X158731585Y-53704013D01*
%TA.AperFunction,Conductor*%
D25*
G36*
X158731585Y-53704013D02*
G01*
X158685000Y-53923000D01*
X158685000Y-54223000D01*
X159693000Y-54223000D01*
X159693000Y-54203000D01*
X159947000Y-54203000D01*
X159947000Y-54223000D01*
X159967000Y-54223000D01*
X159967000Y-54477000D01*
X159947000Y-54477000D01*
X159947000Y-55617954D01*
X160121874Y-55744119D01*
X160344976Y-55664276D01*
X160532764Y-55542369D01*
X160693161Y-55386169D01*
X160820003Y-55201678D01*
X160908415Y-54995987D01*
X160955000Y-54777000D01*
X160955000Y-54660000D01*
X173461335Y-54660000D01*
X173715674Y-55903435D01*
X173542252Y-55730013D01*
X173274463Y-55551082D01*
X172976912Y-55427832D01*
X172661033Y-55365000D01*
X172338967Y-55365000D01*
X172023088Y-55427832D01*
X171725537Y-55551082D01*
X171457748Y-55730013D01*
X171230013Y-55957748D01*
X171051082Y-56225537D01*
X170927832Y-56523088D01*
X170865000Y-56838967D01*
X170865000Y-57161033D01*
X170927832Y-57476912D01*
X171051082Y-57774463D01*
X171230013Y-58042252D01*
X171457748Y-58269987D01*
X171725537Y-58448918D01*
X172023088Y-58572168D01*
X172338967Y-58635000D01*
X172661033Y-58635000D01*
X172976912Y-58572168D01*
X173274463Y-58448918D01*
X173542252Y-58269987D01*
X173769987Y-58042252D01*
X173948918Y-57774463D01*
X174048975Y-57532906D01*
X175590001Y-65066817D01*
X175590000Y-133777761D01*
X175542252Y-133730013D01*
X175274463Y-133551082D01*
X174976912Y-133427832D01*
X174661033Y-133365000D01*
X174474869Y-133365000D01*
X174590256Y-133317205D01*
X174759774Y-133203937D01*
X174903937Y-133059774D01*
X175017205Y-132890256D01*
X175095226Y-132701898D01*
X175135000Y-132501939D01*
X175135000Y-132424227D01*
X175205546Y-132292247D01*
X175249003Y-132148986D01*
X175260000Y-132037333D01*
X175260000Y-132037324D01*
X175263676Y-132000001D01*
X175260000Y-131962678D01*
X175260000Y-96837322D01*
X175263676Y-96799999D01*
X175260000Y-96762676D01*
X175260000Y-96762667D01*
X175249003Y-96651014D01*
X175205546Y-96507753D01*
X175182327Y-96464314D01*
X175134974Y-96375723D01*
X175063799Y-96288997D01*
X175040001Y-96259999D01*
X175011003Y-96236201D01*
X165960000Y-87185199D01*
X165960000Y-85927429D01*
X165998061Y-85935000D01*
X166201939Y-85935000D01*
X166238555Y-85927717D01*
X166236928Y-86087500D01*
X166249188Y-86211982D01*
X166285498Y-86331680D01*
X166344463Y-86441994D01*
X166423815Y-86538685D01*
X166520506Y-86618037D01*
X166630820Y-86677002D01*
X166750518Y-86713312D01*
X166875000Y-86725572D01*
X167314250Y-86722500D01*
X167473000Y-86563750D01*
X167473000Y-85627000D01*
X167727000Y-85627000D01*
X167727000Y-86563750D01*
X167885750Y-86722500D01*
X168325000Y-86725572D01*
X168449482Y-86713312D01*
X168569180Y-86677002D01*
X168679494Y-86618037D01*
X168776185Y-86538685D01*
X168855537Y-86441994D01*
X168914502Y-86331680D01*
X168950812Y-86211982D01*
X168963072Y-86087500D01*
X168960000Y-85785750D01*
X168801250Y-85627000D01*
X167727000Y-85627000D01*
X167473000Y-85627000D01*
X167453000Y-85627000D01*
X167453000Y-85373000D01*
X167473000Y-85373000D01*
X167473000Y-85353000D01*
X167727000Y-85353000D01*
X167727000Y-85373000D01*
X168801250Y-85373000D01*
X168960000Y-85214250D01*
X168963072Y-84912500D01*
X168950812Y-84788018D01*
X168914502Y-84668320D01*
X168855537Y-84558006D01*
X168776185Y-84461315D01*
X168696406Y-84395842D01*
X168702962Y-84390462D01*
X168813405Y-84255886D01*
X168895472Y-84102350D01*
X168946008Y-83935754D01*
X168963072Y-83762500D01*
X168963072Y-83087500D01*
X168946008Y-82914246D01*
X168895472Y-82747650D01*
X168813405Y-82594114D01*
X168702962Y-82459538D01*
X168568386Y-82349095D01*
X168414850Y-82267028D01*
X168248254Y-82216492D01*
X168075000Y-82199428D01*
X167375374Y-82199428D01*
X168036731Y-81538072D01*
X168050001Y-81538072D01*
X168223255Y-81521008D01*
X168389851Y-81470472D01*
X168543387Y-81388405D01*
X168677962Y-81277962D01*
X168788405Y-81143387D01*
X168870472Y-80989851D01*
X168921008Y-80823255D01*
X168938072Y-80650001D01*
X168938072Y-79949999D01*
X168921008Y-79776745D01*
X168870472Y-79610149D01*
X168788405Y-79456613D01*
X168721724Y-79375363D01*
X168751185Y-79351185D01*
X168830537Y-79254494D01*
X168889502Y-79144180D01*
X168925812Y-79024482D01*
X168938072Y-78900000D01*
X168935000Y-78585750D01*
X168776250Y-78427000D01*
X167727000Y-78427000D01*
X167727000Y-78447000D01*
X167473000Y-78447000D01*
X167473000Y-78427000D01*
X166423750Y-78427000D01*
X166265000Y-78585750D01*
X166261928Y-78900000D01*
X166274188Y-79024482D01*
X166310498Y-79144180D01*
X166369463Y-79254494D01*
X166448815Y-79351185D01*
X166478276Y-79375363D01*
X166411595Y-79456613D01*
X166329528Y-79610149D01*
X166278992Y-79776745D01*
X166261928Y-79949999D01*
X166261928Y-80650001D01*
X166278992Y-80823255D01*
X166329528Y-80989851D01*
X166366388Y-81058810D01*
X165760198Y-81665000D01*
X165698061Y-81665000D01*
X165498102Y-81704774D01*
X165309744Y-81782795D01*
X165140226Y-81896063D01*
X165069044Y-81967245D01*
X163440802Y-80339003D01*
X163416999Y-80309999D01*
X163301274Y-80215026D01*
X163188072Y-80154517D01*
X163188072Y-79775000D01*
X163175812Y-79650518D01*
X163175655Y-79650000D01*
X163175812Y-79649482D01*
X163188072Y-79525000D01*
X163188072Y-78975000D01*
X163175812Y-78850518D01*
X163175655Y-78850000D01*
X163175812Y-78849482D01*
X163188072Y-78725000D01*
X163188072Y-78175000D01*
X163175812Y-78050518D01*
X163175655Y-78050000D01*
X163175812Y-78049482D01*
X163188072Y-77925000D01*
X163188072Y-77700000D01*
X166261928Y-77700000D01*
X166265000Y-78014250D01*
X166423750Y-78173000D01*
X167473000Y-78173000D01*
X167473000Y-77223750D01*
X167727000Y-77223750D01*
X167727000Y-78173000D01*
X168776250Y-78173000D01*
X168935000Y-78014250D01*
X168938072Y-77700000D01*
X168925812Y-77575518D01*
X168889502Y-77455820D01*
X168830537Y-77345506D01*
X168751185Y-77248815D01*
X168654494Y-77169463D01*
X168544180Y-77110498D01*
X168424482Y-77074188D01*
X168300000Y-77061928D01*
X167885750Y-77065000D01*
X167727000Y-77223750D01*
X167473000Y-77223750D01*
X167314250Y-77065000D01*
X166900000Y-77061928D01*
X166775518Y-77074188D01*
X166655820Y-77110498D01*
X166545506Y-77169463D01*
X166448815Y-77248815D01*
X166369463Y-77345506D01*
X166310498Y-77455820D01*
X166274188Y-77575518D01*
X166261928Y-77700000D01*
X163188072Y-77700000D01*
X163188072Y-77375000D01*
X163175812Y-77250518D01*
X163175655Y-77250000D01*
X163175812Y-77249482D01*
X163188072Y-77125000D01*
X163188072Y-76810000D01*
X164687678Y-76810000D01*
X164725000Y-76813676D01*
X164762322Y-76810000D01*
X164762333Y-76810000D01*
X164873986Y-76799003D01*
X165017247Y-76755546D01*
X165149276Y-76684974D01*
X165265001Y-76590001D01*
X165288804Y-76560997D01*
X166239238Y-75610563D01*
X166236928Y-75837500D01*
X166249188Y-75961982D01*
X166285498Y-76081680D01*
X166344463Y-76191994D01*
X166423815Y-76288685D01*
X166520506Y-76368037D01*
X166630820Y-76427002D01*
X166750518Y-76463312D01*
X166875000Y-76475572D01*
X167314250Y-76472500D01*
X167473000Y-76313750D01*
X167473000Y-75377000D01*
X167727000Y-75377000D01*
X167727000Y-76313750D01*
X167885750Y-76472500D01*
X168325000Y-76475572D01*
X168449482Y-76463312D01*
X168569180Y-76427002D01*
X168679494Y-76368037D01*
X168776185Y-76288685D01*
X168855537Y-76191994D01*
X168914502Y-76081680D01*
X168950812Y-75961982D01*
X168963072Y-75837500D01*
X168960000Y-75535750D01*
X168801250Y-75377000D01*
X167727000Y-75377000D01*
X167473000Y-75377000D01*
X167453000Y-75377000D01*
X167453000Y-75123000D01*
X167473000Y-75123000D01*
X167473000Y-75103000D01*
X167727000Y-75103000D01*
X167727000Y-75123000D01*
X168801250Y-75123000D01*
X168960000Y-74964250D01*
X168963072Y-74662500D01*
X168950812Y-74538018D01*
X168914502Y-74418320D01*
X168855537Y-74308006D01*
X168776185Y-74211315D01*
X168696406Y-74145842D01*
X168702962Y-74140462D01*
X168813405Y-74005886D01*
X168895472Y-73852350D01*
X168946008Y-73685754D01*
X168963072Y-73512500D01*
X168963072Y-72837500D01*
X168946008Y-72664246D01*
X168895472Y-72497650D01*
X168813405Y-72344114D01*
X168702962Y-72209538D01*
X168568386Y-72099095D01*
X168414850Y-72017028D01*
X168248254Y-71966492D01*
X168075000Y-71949428D01*
X167125000Y-71949428D01*
X166951746Y-71966492D01*
X166785150Y-72017028D01*
X166631614Y-72099095D01*
X166497038Y-72209538D01*
X166386595Y-72344114D01*
X166304528Y-72497650D01*
X166253992Y-72664246D01*
X166236928Y-72837500D01*
X166236928Y-73463270D01*
X164410199Y-75290000D01*
X162959981Y-75290000D01*
X162904494Y-75244463D01*
X162794180Y-75185498D01*
X162674482Y-75149188D01*
X162550000Y-75136928D01*
X161050000Y-75136928D01*
X160925518Y-75149188D01*
X160805820Y-75185498D01*
X160695506Y-75244463D01*
X160598815Y-75323815D01*
X160519463Y-75420506D01*
X160507083Y-75443667D01*
X160415000Y-75535750D01*
X160416120Y-75549076D01*
X158275197Y-77690000D01*
X155118385Y-77690000D01*
X155130547Y-77667246D01*
X155137458Y-77644463D01*
X155174004Y-77523985D01*
X155185001Y-77412332D01*
X155185001Y-77412322D01*
X155188677Y-77374999D01*
X155185001Y-77337677D01*
X155185001Y-75389321D01*
X155188677Y-75351998D01*
X155185001Y-75314675D01*
X155185001Y-75314666D01*
X155174004Y-75203013D01*
X155130547Y-75059752D01*
X155065507Y-74938072D01*
X155575000Y-74938072D01*
X155699482Y-74925812D01*
X155700000Y-74925655D01*
X155700518Y-74925812D01*
X155825000Y-74938072D01*
X156375000Y-74938072D01*
X156499482Y-74925812D01*
X156500000Y-74925655D01*
X156500518Y-74925812D01*
X156625000Y-74938072D01*
X157175000Y-74938072D01*
X157299482Y-74925812D01*
X157300000Y-74925655D01*
X157300518Y-74925812D01*
X157425000Y-74938072D01*
X157975000Y-74938072D01*
X158099482Y-74925812D01*
X158100000Y-74925655D01*
X158100518Y-74925812D01*
X158225000Y-74938072D01*
X158775000Y-74938072D01*
X158899482Y-74925812D01*
X158900000Y-74925655D01*
X158900518Y-74925812D01*
X159025000Y-74938072D01*
X159575000Y-74938072D01*
X159699482Y-74925812D01*
X159700000Y-74925655D01*
X159700518Y-74925812D01*
X159825000Y-74938072D01*
X160375000Y-74938072D01*
X160417552Y-74933881D01*
X160415000Y-74964250D01*
X160573750Y-75123000D01*
X161673000Y-75123000D01*
X161673000Y-74498750D01*
X161927000Y-74498750D01*
X161927000Y-75123000D01*
X163026250Y-75123000D01*
X163185000Y-74964250D01*
X163175177Y-74847369D01*
X163138265Y-74727855D01*
X163078746Y-74617839D01*
X162998908Y-74521549D01*
X162901818Y-74442684D01*
X162791208Y-74384276D01*
X162671329Y-74348570D01*
X162546787Y-74336936D01*
X162085750Y-74340000D01*
X161927000Y-74498750D01*
X161673000Y-74498750D01*
X161514250Y-74340000D01*
X161053213Y-74336936D01*
X161009028Y-74341064D01*
X161013072Y-74300000D01*
X161013072Y-72800000D01*
X161000812Y-72675518D01*
X160964502Y-72555820D01*
X160905537Y-72445506D01*
X160826185Y-72348815D01*
X160729494Y-72269463D01*
X160619180Y-72210498D01*
X160499482Y-72174188D01*
X160375000Y-72161928D01*
X159825000Y-72161928D01*
X159700518Y-72174188D01*
X159700000Y-72174345D01*
X159699482Y-72174188D01*
X159575000Y-72161928D01*
X159025000Y-72161928D01*
X158900518Y-72174188D01*
X158900000Y-72174345D01*
X158899482Y-72174188D01*
X158775000Y-72161928D01*
X158225000Y-72161928D01*
X158100518Y-72174188D01*
X158100000Y-72174345D01*
X158099482Y-72174188D01*
X157975000Y-72161928D01*
X157562874Y-72161928D01*
X158166638Y-71558164D01*
X158195636Y-71534366D01*
X158226533Y-71496718D01*
X158290609Y-71418642D01*
X158361181Y-71286612D01*
X158404638Y-71143351D01*
X158415635Y-71031698D01*
X158415635Y-71031689D01*
X158419311Y-70994366D01*
X158415635Y-70957043D01*
X158415635Y-68755974D01*
X158717244Y-68454365D01*
X160442064Y-68454365D01*
X160486928Y-68499229D01*
X160486928Y-69125000D01*
X160503992Y-69298254D01*
X160554528Y-69464850D01*
X160636595Y-69618386D01*
X160747038Y-69752962D01*
X160881614Y-69863405D01*
X161035150Y-69945472D01*
X161201746Y-69996008D01*
X161375000Y-70013072D01*
X162325000Y-70013072D01*
X162498254Y-69996008D01*
X162664850Y-69945472D01*
X162818386Y-69863405D01*
X162952962Y-69752962D01*
X163063405Y-69618386D01*
X163145472Y-69464850D01*
X163165143Y-69400000D01*
X166061928Y-69400000D01*
X166074188Y-69524482D01*
X166110498Y-69644180D01*
X166169463Y-69754494D01*
X166248815Y-69851185D01*
X166345506Y-69930537D01*
X166455820Y-69989502D01*
X166575518Y-70025812D01*
X166700000Y-70038072D01*
X167114250Y-70035000D01*
X167273000Y-69876250D01*
X167273000Y-68927000D01*
X167527000Y-68927000D01*
X167527000Y-69876250D01*
X167685750Y-70035000D01*
X168100000Y-70038072D01*
X168224482Y-70025812D01*
X168344180Y-69989502D01*
X168454494Y-69930537D01*
X168551185Y-69851185D01*
X168630537Y-69754494D01*
X168689502Y-69644180D01*
X168725812Y-69524482D01*
X168738072Y-69400000D01*
X168735000Y-69085750D01*
X168576250Y-68927000D01*
X167527000Y-68927000D01*
X167273000Y-68927000D01*
X166223750Y-68927000D01*
X166065000Y-69085750D01*
X166061928Y-69400000D01*
X163165143Y-69400000D01*
X163196008Y-69298254D01*
X163213072Y-69125000D01*
X163213072Y-68450000D01*
X163196008Y-68276746D01*
X163145472Y-68110150D01*
X163063405Y-67956614D01*
X162952962Y-67822038D01*
X162946406Y-67816658D01*
X163026185Y-67751185D01*
X163105537Y-67654494D01*
X163164502Y-67544180D01*
X163200812Y-67424482D01*
X163205084Y-67381106D01*
X163270722Y-67434974D01*
X163402751Y-67505546D01*
X163546012Y-67549003D01*
X163694998Y-67563677D01*
X163732331Y-67560000D01*
X166167024Y-67560000D01*
X166211595Y-67643387D01*
X166278276Y-67724637D01*
X166248815Y-67748815D01*
X166169463Y-67845506D01*
X166110498Y-67955820D01*
X166074188Y-68075518D01*
X166061928Y-68200000D01*
X166065000Y-68514250D01*
X166223750Y-68673000D01*
X167273000Y-68673000D01*
X167273000Y-68653000D01*
X167527000Y-68653000D01*
X167527000Y-68673000D01*
X168576250Y-68673000D01*
X168735000Y-68514250D01*
X168738072Y-68200000D01*
X168725812Y-68075518D01*
X168689502Y-67955820D01*
X168630537Y-67845506D01*
X168551185Y-67748815D01*
X168521724Y-67724637D01*
X168588405Y-67643387D01*
X168670472Y-67489851D01*
X168721008Y-67323255D01*
X168738072Y-67150001D01*
X168738072Y-66449999D01*
X168721008Y-66276745D01*
X168670472Y-66110149D01*
X168588405Y-65956613D01*
X168477962Y-65822038D01*
X168343387Y-65711595D01*
X168189851Y-65629528D01*
X168023255Y-65578992D01*
X167850001Y-65561928D01*
X166949999Y-65561928D01*
X166776745Y-65578992D01*
X166610149Y-65629528D01*
X166456613Y-65711595D01*
X166322038Y-65822038D01*
X166211595Y-65956613D01*
X166167024Y-66040000D01*
X164009800Y-66040000D01*
X158774800Y-60805000D01*
X158877002Y-60805000D01*
X158877002Y-60646252D01*
X159035750Y-60805000D01*
X159050000Y-60808072D01*
X159174482Y-60795812D01*
X159294180Y-60759502D01*
X159404494Y-60700537D01*
X159501185Y-60621185D01*
X159580537Y-60524494D01*
X159639502Y-60414180D01*
X159675812Y-60294482D01*
X159688072Y-60170000D01*
X159687247Y-60052104D01*
X159693000Y-60047954D01*
X159693000Y-58657000D01*
X159947000Y-58657000D01*
X159947000Y-60047954D01*
X160121874Y-60174119D01*
X160344976Y-60094276D01*
X160532764Y-59972369D01*
X160693161Y-59816169D01*
X160820003Y-59631678D01*
X160908415Y-59425987D01*
X160955000Y-59207000D01*
X160955000Y-58657000D01*
X159947000Y-58657000D01*
X159693000Y-58657000D01*
X159681867Y-58657000D01*
X159675812Y-58595518D01*
X159673000Y-58586248D01*
X159673000Y-58403000D01*
X159693000Y-58403000D01*
X159693000Y-57012046D01*
X159947000Y-57012046D01*
X159947000Y-58403000D01*
X160955000Y-58403000D01*
X160955000Y-57853000D01*
X160908415Y-57634013D01*
X160820003Y-57428322D01*
X160693161Y-57243831D01*
X160532764Y-57087631D01*
X160344976Y-56965724D01*
X160121874Y-56885881D01*
X159947000Y-57012046D01*
X159693000Y-57012046D01*
X159518126Y-56885881D01*
X159295024Y-56965724D01*
X159107236Y-57087631D01*
X158962884Y-57228206D01*
X158844731Y-57149259D01*
X158670022Y-57076892D01*
X158484552Y-57040000D01*
X158360000Y-57040000D01*
X158360000Y-56937325D01*
X158363676Y-56900000D01*
X158360000Y-56862675D01*
X158360000Y-56862667D01*
X158349003Y-56751014D01*
X158305546Y-56607753D01*
X158234974Y-56475724D01*
X158140001Y-56359999D01*
X158110998Y-56336197D01*
X157963804Y-56189003D01*
X157940001Y-56159999D01*
X157824276Y-56065026D01*
X157692247Y-55994454D01*
X157548986Y-55950997D01*
X157437333Y-55940000D01*
X157437322Y-55940000D01*
X157400000Y-55936324D01*
X157362678Y-55940000D01*
X153537322Y-55940000D01*
X153499999Y-55936324D01*
X153462676Y-55940000D01*
X153462667Y-55940000D01*
X153351014Y-55950997D01*
X153207753Y-55994454D01*
X153075724Y-56065026D01*
X152959999Y-56159999D01*
X152936200Y-56188998D01*
X152763996Y-56361203D01*
X152734999Y-56385000D01*
X152711201Y-56413998D01*
X152711200Y-56413999D01*
X152640025Y-56500725D01*
X152569453Y-56632755D01*
X152525997Y-56776016D01*
X152511323Y-56925001D01*
X152515000Y-56962333D01*
X152515000Y-57040089D01*
X152329978Y-57076892D01*
X152155269Y-57149259D01*
X152037116Y-57228206D01*
X151892764Y-57087631D01*
X151704976Y-56965724D01*
X151481874Y-56885881D01*
X151307000Y-57012046D01*
X151307000Y-58403000D01*
X151327000Y-58403000D01*
X151327000Y-58586248D01*
X151324188Y-58595518D01*
X151318133Y-58657000D01*
X151307000Y-58657000D01*
X151307000Y-58677000D01*
X151053000Y-58677000D01*
X151053000Y-58657000D01*
X150045000Y-58657000D01*
X150045000Y-59207000D01*
X150091585Y-59425987D01*
X150179997Y-59631678D01*
X150251034Y-59735001D01*
X145169322Y-59735001D01*
X145131997Y-59731325D01*
X145094672Y-59735001D01*
X145094664Y-59735001D01*
X144983011Y-59745998D01*
X144839750Y-59789455D01*
X144707721Y-59860027D01*
X144591996Y-59955000D01*
X144568198Y-59983998D01*
X138088998Y-66463199D01*
X138060000Y-66486997D01*
X138036202Y-66515995D01*
X138036201Y-66515996D01*
X137965026Y-66602722D01*
X137894454Y-66734752D01*
X137883211Y-66771818D01*
X137852519Y-66873000D01*
X137850998Y-66878013D01*
X137836324Y-67026998D01*
X137840001Y-67064331D01*
X137840000Y-83062678D01*
X137836324Y-83100000D01*
X137840000Y-83137322D01*
X137840000Y-83137332D01*
X137850997Y-83248985D01*
X137889829Y-83377000D01*
X137894454Y-83392246D01*
X137965026Y-83524276D01*
X137974443Y-83535750D01*
X138059999Y-83640001D01*
X138089003Y-83663804D01*
X140261201Y-85836003D01*
X140284999Y-85865001D01*
X140400724Y-85959974D01*
X140532753Y-86030546D01*
X140676014Y-86074003D01*
X140787667Y-86085000D01*
X140787676Y-86085000D01*
X140824999Y-86088676D01*
X140862322Y-86085000D01*
X144848706Y-86085000D01*
X144886595Y-86155886D01*
X144997038Y-86290462D01*
X145131614Y-86400905D01*
X145285150Y-86482972D01*
X145340000Y-86499611D01*
X145340001Y-88395137D01*
X145210149Y-88434527D01*
X145056613Y-88516594D01*
X144922038Y-88627037D01*
X144811595Y-88761612D01*
X144729528Y-88915148D01*
X144678992Y-89081744D01*
X144661928Y-89254998D01*
X144661928Y-89955000D01*
X144678992Y-90128254D01*
X144729528Y-90294850D01*
X144811595Y-90448386D01*
X144922038Y-90582961D01*
X144948891Y-90604999D01*
X144922038Y-90627037D01*
X144811595Y-90761612D01*
X144729528Y-90915148D01*
X144678992Y-91081744D01*
X144661928Y-91254998D01*
X144661928Y-91955000D01*
X144678992Y-92128254D01*
X144729528Y-92294850D01*
X144811595Y-92448386D01*
X144922038Y-92582961D01*
X145056613Y-92693404D01*
X145210149Y-92775471D01*
X145376745Y-92826007D01*
X145549999Y-92843071D01*
X146163271Y-92843071D01*
X150331202Y-97011003D01*
X150355000Y-97040001D01*
X150470725Y-97134974D01*
X150602754Y-97205546D01*
X150746015Y-97249003D01*
X150857668Y-97260000D01*
X150857678Y-97260000D01*
X150895001Y-97263676D01*
X150932324Y-97260000D01*
X151218954Y-97260000D01*
X151269463Y-97354494D01*
X151348815Y-97451185D01*
X151445506Y-97530537D01*
X151555820Y-97589502D01*
X151675518Y-97625812D01*
X151800000Y-97638072D01*
X153500000Y-97638072D01*
X153624482Y-97625812D01*
X153744180Y-97589502D01*
X153854494Y-97530537D01*
X153951185Y-97451185D01*
X154030537Y-97354494D01*
X154081046Y-97260000D01*
X157189674Y-97260000D01*
X157226997Y-97263676D01*
X157264320Y-97260000D01*
X157518954Y-97260000D01*
X157569463Y-97354494D01*
X157648815Y-97451185D01*
X157745506Y-97530537D01*
X157855820Y-97589502D01*
X157975518Y-97625812D01*
X158100000Y-97638072D01*
X159800000Y-97638072D01*
X159924482Y-97625812D01*
X160044180Y-97589502D01*
X160154494Y-97530537D01*
X160251185Y-97451185D01*
X160330537Y-97354494D01*
X160389502Y-97244180D01*
X160425812Y-97124482D01*
X160426607Y-97116407D01*
X163940000Y-100629800D01*
X163940001Y-107665199D01*
X162538803Y-106264002D01*
X162515000Y-106234998D01*
X162399275Y-106140025D01*
X162267246Y-106069453D01*
X162123985Y-106025996D01*
X162012332Y-106014999D01*
X162012321Y-106014999D01*
X161974999Y-106011323D01*
X161937677Y-106014999D01*
X151412323Y-106014999D01*
X151375000Y-106011323D01*
X151337678Y-106014999D01*
X151337668Y-106014999D01*
X151226015Y-106025996D01*
X151082754Y-106069453D01*
X150950725Y-106140025D01*
X150835000Y-106234998D01*
X150811200Y-106263998D01*
X150788996Y-106286203D01*
X150760000Y-106309999D01*
X150736202Y-106338997D01*
X150736201Y-106338998D01*
X150665026Y-106425724D01*
X150645674Y-106461928D01*
X150500000Y-106461928D01*
X150375518Y-106474188D01*
X150255820Y-106510498D01*
X150145506Y-106569463D01*
X150048815Y-106648815D01*
X149969463Y-106745506D01*
X149910498Y-106855820D01*
X149874188Y-106975518D01*
X149861928Y-107100000D01*
X149861928Y-107140000D01*
X142037323Y-107140000D01*
X142000000Y-107136324D01*
X141962677Y-107140000D01*
X141962667Y-107140000D01*
X141851014Y-107150997D01*
X141707753Y-107194454D01*
X141575723Y-107265026D01*
X141533108Y-107300000D01*
X141459999Y-107359999D01*
X141436201Y-107388997D01*
X139863271Y-108961928D01*
X138700000Y-108961928D01*
X138575518Y-108974188D01*
X138455820Y-109010498D01*
X138345506Y-109069463D01*
X138248815Y-109148815D01*
X138169463Y-109245506D01*
X138110498Y-109355820D01*
X138074188Y-109475518D01*
X138061928Y-109600000D01*
X138061928Y-111200000D01*
X138074188Y-111324482D01*
X138110498Y-111444180D01*
X138169463Y-111554494D01*
X138248815Y-111651185D01*
X138345506Y-111730537D01*
X138455820Y-111789502D01*
X138575518Y-111825812D01*
X138700000Y-111838072D01*
X140300000Y-111838072D01*
X140424482Y-111825812D01*
X140544180Y-111789502D01*
X140654494Y-111730537D01*
X140751185Y-111651185D01*
X140830537Y-111554494D01*
X140851625Y-111515042D01*
X140870506Y-111530537D01*
X140980820Y-111589502D01*
X141100518Y-111625812D01*
X141225000Y-111638072D01*
X142425000Y-111638072D01*
X142549482Y-111625812D01*
X142669180Y-111589502D01*
X142779494Y-111530537D01*
X142876185Y-111451185D01*
X142955537Y-111354494D01*
X143014502Y-111244180D01*
X143050812Y-111124482D01*
X143063072Y-111000000D01*
X143063072Y-109800000D01*
X143050812Y-109675518D01*
X143014502Y-109555820D01*
X142955537Y-109445506D01*
X142876185Y-109348815D01*
X142779494Y-109269463D01*
X142669180Y-109210498D01*
X142549482Y-109174188D01*
X142425000Y-109161928D01*
X141812874Y-109161928D01*
X142314802Y-108660000D01*
X149861928Y-108660000D01*
X149861928Y-108700000D01*
X149874188Y-108824482D01*
X149910498Y-108944180D01*
X149969463Y-109054494D01*
X150048815Y-109151185D01*
X150145506Y-109230537D01*
X150255820Y-109289502D01*
X150375518Y-109325812D01*
X150500000Y-109338072D01*
X152100000Y-109338072D01*
X152224482Y-109325812D01*
X152344180Y-109289502D01*
X152454494Y-109230537D01*
X152551185Y-109151185D01*
X152630537Y-109054494D01*
X152651625Y-109015042D01*
X152670506Y-109030537D01*
X152780820Y-109089502D01*
X152900518Y-109125812D01*
X153025000Y-109138072D01*
X154225000Y-109138072D01*
X154349482Y-109125812D01*
X154469180Y-109089502D01*
X154579494Y-109030537D01*
X154676185Y-108951185D01*
X154755537Y-108854494D01*
X154814502Y-108744180D01*
X154850812Y-108624482D01*
X154863072Y-108500000D01*
X154863072Y-107534999D01*
X155536928Y-107534999D01*
X155536928Y-108500000D01*
X155549188Y-108624482D01*
X155585498Y-108744180D01*
X155644463Y-108854494D01*
X155723815Y-108951185D01*
X155785024Y-109001418D01*
X155601939Y-108965000D01*
X155398061Y-108965000D01*
X155198102Y-109004774D01*
X155009744Y-109082795D01*
X154840226Y-109196063D01*
X154696063Y-109340226D01*
X154582795Y-109509744D01*
X154504774Y-109698102D01*
X154465000Y-109898061D01*
X154465000Y-110101939D01*
X154504774Y-110301898D01*
X154582795Y-110490256D01*
X154696063Y-110659774D01*
X154840226Y-110803937D01*
X155009744Y-110917205D01*
X155198102Y-110995226D01*
X155398061Y-111035000D01*
X155601939Y-111035000D01*
X155801898Y-110995226D01*
X155990256Y-110917205D01*
X156159774Y-110803937D01*
X156203711Y-110760000D01*
X157865199Y-110760000D01*
X157588998Y-111036201D01*
X157560000Y-111059999D01*
X157536202Y-111088997D01*
X157536201Y-111088998D01*
X157465026Y-111175724D01*
X157394454Y-111307754D01*
X157350998Y-111451015D01*
X157336324Y-111600000D01*
X157340001Y-111637332D01*
X157340000Y-117961928D01*
X157300000Y-117961928D01*
X157175518Y-117974188D01*
X157055820Y-118010498D01*
X156945506Y-118069463D01*
X156848815Y-118148815D01*
X156769463Y-118245506D01*
X156710498Y-118355820D01*
X156674188Y-118475518D01*
X156661928Y-118600000D01*
X156661928Y-120200000D01*
X156674188Y-120324482D01*
X156710498Y-120444180D01*
X156769463Y-120554494D01*
X156848815Y-120651185D01*
X156945506Y-120730537D01*
X157055820Y-120789502D01*
X157175518Y-120825812D01*
X157300000Y-120838072D01*
X158900000Y-120838072D01*
X159024482Y-120825812D01*
X159144180Y-120789502D01*
X159254494Y-120730537D01*
X159351185Y-120651185D01*
X159430537Y-120554494D01*
X159451625Y-120515042D01*
X159470506Y-120530537D01*
X159580820Y-120589502D01*
X159700518Y-120625812D01*
X159825000Y-120638072D01*
X160590002Y-120638072D01*
X160590001Y-124662678D01*
X160586325Y-124700001D01*
X160590001Y-124737323D01*
X160590001Y-124737333D01*
X160600998Y-124848986D01*
X160636190Y-124965000D01*
X160644455Y-124992247D01*
X160715027Y-125124277D01*
X160754872Y-125172827D01*
X160810000Y-125240002D01*
X160839004Y-125263805D01*
X163386201Y-127811003D01*
X163398820Y-127826379D01*
X162160198Y-129065001D01*
X160690509Y-129065001D01*
X160735000Y-128841335D01*
X160735000Y-128558665D01*
X160679853Y-128281426D01*
X160571680Y-128020273D01*
X160414637Y-127785241D01*
X160214759Y-127585363D01*
X159979727Y-127428320D01*
X159718574Y-127320147D01*
X159441335Y-127265000D01*
X159158665Y-127265000D01*
X158976114Y-127301312D01*
X157163804Y-125489003D01*
X157140001Y-125459999D01*
X157024276Y-125365026D01*
X156892247Y-125294454D01*
X156748986Y-125250997D01*
X156637333Y-125240000D01*
X156637322Y-125240000D01*
X156600000Y-125236324D01*
X156562678Y-125240000D01*
X156203711Y-125240000D01*
X156159774Y-125196063D01*
X155990256Y-125082795D01*
X155801898Y-125004774D01*
X155601939Y-124965000D01*
X155398061Y-124965000D01*
X155198102Y-125004774D01*
X155009744Y-125082795D01*
X154840226Y-125196063D01*
X154696063Y-125340226D01*
X154582795Y-125509744D01*
X154504774Y-125698102D01*
X154465000Y-125898061D01*
X154465000Y-126101939D01*
X154504774Y-126301898D01*
X154582795Y-126490256D01*
X154696063Y-126659774D01*
X154840226Y-126803937D01*
X155009744Y-126917205D01*
X155198102Y-126995226D01*
X155398061Y-127035000D01*
X155601939Y-127035000D01*
X155801898Y-126995226D01*
X155990256Y-126917205D01*
X156159774Y-126803937D01*
X156203711Y-126760000D01*
X156285199Y-126760000D01*
X156987127Y-127461928D01*
X156375000Y-127461928D01*
X156250518Y-127474188D01*
X156130820Y-127510498D01*
X156020506Y-127569463D01*
X155923815Y-127648815D01*
X155844463Y-127745506D01*
X155785498Y-127855820D01*
X155749188Y-127975518D01*
X155736928Y-128100000D01*
X155736928Y-129065001D01*
X155063072Y-129065001D01*
X155063072Y-128100000D01*
X155050812Y-127975518D01*
X155014502Y-127855820D01*
X154955537Y-127745506D01*
X154876185Y-127648815D01*
X154779494Y-127569463D01*
X154669180Y-127510498D01*
X154549482Y-127474188D01*
X154425000Y-127461928D01*
X153225000Y-127461928D01*
X153100518Y-127474188D01*
X152980820Y-127510498D01*
X152870506Y-127569463D01*
X152851625Y-127584958D01*
X152830537Y-127545506D01*
X152751185Y-127448815D01*
X152654494Y-127369463D01*
X152544180Y-127310498D01*
X152424482Y-127274188D01*
X152300000Y-127261928D01*
X150700000Y-127261928D01*
X150575518Y-127274188D01*
X150455820Y-127310498D01*
X150345506Y-127369463D01*
X150248815Y-127448815D01*
X150169463Y-127545506D01*
X150110498Y-127655820D01*
X150074188Y-127775518D01*
X150061928Y-127900000D01*
X150061928Y-128365001D01*
X147290509Y-128365001D01*
X147335000Y-128141335D01*
X147335000Y-127858665D01*
X147279853Y-127581426D01*
X147171680Y-127320273D01*
X147014637Y-127085241D01*
X146814759Y-126885363D01*
X146579727Y-126728320D01*
X146318574Y-126620147D01*
X146041335Y-126565000D01*
X145758665Y-126565000D01*
X145576114Y-126601312D01*
X143463804Y-124489003D01*
X143440001Y-124459999D01*
X143324276Y-124365026D01*
X143192247Y-124294454D01*
X143048986Y-124250997D01*
X142937333Y-124240000D01*
X142937322Y-124240000D01*
X142900000Y-124236324D01*
X142862678Y-124240000D01*
X142703711Y-124240000D01*
X142659774Y-124196063D01*
X142490256Y-124082795D01*
X142301898Y-124004774D01*
X142101939Y-123965000D01*
X141898061Y-123965000D01*
X141698102Y-124004774D01*
X141509744Y-124082795D01*
X141340226Y-124196063D01*
X141196063Y-124340226D01*
X141082795Y-124509744D01*
X141004774Y-124698102D01*
X140965000Y-124898061D01*
X140965000Y-125101939D01*
X141004774Y-125301898D01*
X141082795Y-125490256D01*
X141196063Y-125659774D01*
X141340226Y-125803937D01*
X141509744Y-125917205D01*
X141698102Y-125995226D01*
X141898061Y-126035000D01*
X142101939Y-126035000D01*
X142301898Y-125995226D01*
X142490256Y-125917205D01*
X142641408Y-125816209D01*
X143587127Y-126761928D01*
X142975000Y-126761928D01*
X142850518Y-126774188D01*
X142730820Y-126810498D01*
X142620506Y-126869463D01*
X142523815Y-126948815D01*
X142444463Y-127045506D01*
X142385498Y-127155820D01*
X142349188Y-127275518D01*
X142336928Y-127400000D01*
X142336928Y-128365001D01*
X141663072Y-128365001D01*
X141663072Y-127400000D01*
X141650812Y-127275518D01*
X141614502Y-127155820D01*
X141555537Y-127045506D01*
X141476185Y-126948815D01*
X141379494Y-126869463D01*
X141269180Y-126810498D01*
X141149482Y-126774188D01*
X141025000Y-126761928D01*
X139825000Y-126761928D01*
X139700518Y-126774188D01*
X139580820Y-126810498D01*
X139470506Y-126869463D01*
X139451625Y-126884958D01*
X139430537Y-126845506D01*
X139351185Y-126748815D01*
X139254494Y-126669463D01*
X139144180Y-126610498D01*
X139024482Y-126574188D01*
X138900000Y-126561928D01*
X137300000Y-126561928D01*
X137175518Y-126574188D01*
X137055820Y-126610498D01*
X136945506Y-126669463D01*
X136848815Y-126748815D01*
X136769463Y-126845506D01*
X136710498Y-126955820D01*
X136674188Y-127075518D01*
X136661928Y-127200000D01*
X136661928Y-128800000D01*
X136674188Y-128924482D01*
X136710498Y-129044180D01*
X136769463Y-129154494D01*
X136848815Y-129251185D01*
X136945506Y-129330537D01*
X137055820Y-129389502D01*
X137175518Y-129425812D01*
X137300000Y-129438072D01*
X138463270Y-129438072D01*
X138661202Y-129636004D01*
X138685000Y-129665002D01*
X138800725Y-129759975D01*
X138932754Y-129830547D01*
X139076015Y-129874004D01*
X139187668Y-129885001D01*
X139187676Y-129885001D01*
X139225001Y-129888677D01*
X139262326Y-129885001D01*
X150194499Y-129885001D01*
X150248815Y-129951185D01*
X150345506Y-130030537D01*
X150455820Y-130089502D01*
X150575518Y-130125812D01*
X150700000Y-130138072D01*
X151863270Y-130138072D01*
X152061202Y-130336004D01*
X152085000Y-130365002D01*
X152200725Y-130459975D01*
X152332754Y-130530547D01*
X152476015Y-130574004D01*
X152587668Y-130585001D01*
X152587676Y-130585001D01*
X152625001Y-130588677D01*
X152662326Y-130585001D01*
X162437677Y-130585001D01*
X162474999Y-130588677D01*
X162512321Y-130585001D01*
X162512332Y-130585001D01*
X162623985Y-130574004D01*
X162767246Y-130530547D01*
X162899275Y-130459975D01*
X163015000Y-130365002D01*
X163038803Y-130335998D01*
X164636730Y-128738072D01*
X165800000Y-128738072D01*
X165924482Y-128725812D01*
X166044180Y-128689502D01*
X166154494Y-128630537D01*
X166251185Y-128551185D01*
X166330537Y-128454494D01*
X166351625Y-128415042D01*
X166370506Y-128430537D01*
X166480820Y-128489502D01*
X166600518Y-128525812D01*
X166725000Y-128538072D01*
X166797128Y-128538072D01*
X163588998Y-131746203D01*
X163560000Y-131770001D01*
X163536202Y-131798999D01*
X163536201Y-131799000D01*
X163465026Y-131885726D01*
X163394454Y-132017756D01*
X163350998Y-132161017D01*
X163336324Y-132310002D01*
X163340001Y-132347334D01*
X163340000Y-134461928D01*
X163300000Y-134461928D01*
X163175518Y-134474188D01*
X163055820Y-134510498D01*
X162945506Y-134569463D01*
X162848815Y-134648815D01*
X162769463Y-134745506D01*
X162710498Y-134855820D01*
X162674188Y-134975518D01*
X162661928Y-135100000D01*
X162661928Y-136263270D01*
X161760198Y-137165001D01*
X160790509Y-137165001D01*
X160835000Y-136941335D01*
X160835000Y-136658665D01*
X160779853Y-136381426D01*
X160671680Y-136120273D01*
X160514637Y-135885241D01*
X160314759Y-135685363D01*
X160079727Y-135528320D01*
X159818574Y-135420147D01*
X159541335Y-135365000D01*
X159258665Y-135365000D01*
X159076114Y-135401312D01*
X157163804Y-133489003D01*
X157140001Y-133459999D01*
X157024276Y-133365026D01*
X156892247Y-133294454D01*
X156748986Y-133250997D01*
X156637333Y-133240000D01*
X156637322Y-133240000D01*
X156600000Y-133236324D01*
X156562678Y-133240000D01*
X156203711Y-133240000D01*
X156159774Y-133196063D01*
X155990256Y-133082795D01*
X155801898Y-133004774D01*
X155601939Y-132965000D01*
X155398061Y-132965000D01*
X155198102Y-133004774D01*
X155009744Y-133082795D01*
X154840226Y-133196063D01*
X154696063Y-133340226D01*
X154582795Y-133509744D01*
X154504774Y-133698102D01*
X154465000Y-133898061D01*
X154465000Y-134101939D01*
X154504774Y-134301898D01*
X154582795Y-134490256D01*
X154696063Y-134659774D01*
X154840226Y-134803937D01*
X155009744Y-134917205D01*
X155198102Y-134995226D01*
X155398061Y-135035000D01*
X155601939Y-135035000D01*
X155801898Y-134995226D01*
X155990256Y-134917205D01*
X156159774Y-134803937D01*
X156203711Y-134760000D01*
X156285199Y-134760000D01*
X157087127Y-135561928D01*
X156475000Y-135561928D01*
X156350518Y-135574188D01*
X156230820Y-135610498D01*
X156120506Y-135669463D01*
X156023815Y-135748815D01*
X155944463Y-135845506D01*
X155885498Y-135955820D01*
X155849188Y-136075518D01*
X155836928Y-136200000D01*
X155836928Y-137165001D01*
X155163072Y-137165001D01*
X155163072Y-136200000D01*
X155150812Y-136075518D01*
X155114502Y-135955820D01*
X155055537Y-135845506D01*
X154976185Y-135748815D01*
X154879494Y-135669463D01*
X154769180Y-135610498D01*
X154649482Y-135574188D01*
X154525000Y-135561928D01*
X153325000Y-135561928D01*
X153200518Y-135574188D01*
X153080820Y-135610498D01*
X152970506Y-135669463D01*
X152951625Y-135684958D01*
X152930537Y-135645506D01*
X152851185Y-135548815D01*
X152754494Y-135469463D01*
X152644180Y-135410498D01*
X152524482Y-135374188D01*
X152400000Y-135361928D01*
X150800000Y-135361928D01*
X150675518Y-135374188D01*
X150555820Y-135410498D01*
X150445506Y-135469463D01*
X150348815Y-135548815D01*
X150269463Y-135645506D01*
X150210498Y-135755820D01*
X150174188Y-135875518D01*
X150161928Y-136000000D01*
X150161928Y-136465001D01*
X148390509Y-136465001D01*
X148435000Y-136241335D01*
X148435000Y-135958665D01*
X148379853Y-135681426D01*
X148271680Y-135420273D01*
X148114637Y-135185241D01*
X147914759Y-134985363D01*
X147679727Y-134828320D01*
X147418574Y-134720147D01*
X147141335Y-134665000D01*
X146858665Y-134665000D01*
X146676114Y-134701312D01*
X144463804Y-132489003D01*
X144440001Y-132459999D01*
X144324276Y-132365026D01*
X144192247Y-132294454D01*
X144048986Y-132250997D01*
X143937333Y-132240000D01*
X143937322Y-132240000D01*
X143900000Y-132236324D01*
X143862678Y-132240000D01*
X143703711Y-132240000D01*
X143659774Y-132196063D01*
X143490256Y-132082795D01*
X143301898Y-132004774D01*
X143101939Y-131965000D01*
X142898061Y-131965000D01*
X142698102Y-132004774D01*
X142509744Y-132082795D01*
X142340226Y-132196063D01*
X142196063Y-132340226D01*
X142082795Y-132509744D01*
X142004774Y-132698102D01*
X141965000Y-132898061D01*
X141965000Y-133101939D01*
X142004774Y-133301898D01*
X142082795Y-133490256D01*
X142196063Y-133659774D01*
X142340226Y-133803937D01*
X142509744Y-133917205D01*
X142698102Y-133995226D01*
X142898061Y-134035000D01*
X143101939Y-134035000D01*
X143301898Y-133995226D01*
X143490256Y-133917205D01*
X143641408Y-133816209D01*
X144687127Y-134861928D01*
X144075000Y-134861928D01*
X143950518Y-134874188D01*
X143830820Y-134910498D01*
X143720506Y-134969463D01*
X143623815Y-135048815D01*
X143544463Y-135145506D01*
X143485498Y-135255820D01*
X143449188Y-135375518D01*
X143436928Y-135500000D01*
X143436928Y-136465001D01*
X142763072Y-136465001D01*
X142763072Y-135500000D01*
X142750812Y-135375518D01*
X142714502Y-135255820D01*
X142655537Y-135145506D01*
X142576185Y-135048815D01*
X142479494Y-134969463D01*
X142369180Y-134910498D01*
X142249482Y-134874188D01*
X142125000Y-134861928D01*
X140925000Y-134861928D01*
X140800518Y-134874188D01*
X140680820Y-134910498D01*
X140570506Y-134969463D01*
X140551625Y-134984958D01*
X140530537Y-134945506D01*
X140451185Y-134848815D01*
X140354494Y-134769463D01*
X140244180Y-134710498D01*
X140124482Y-134674188D01*
X140000000Y-134661928D01*
X138400000Y-134661928D01*
X138275518Y-134674188D01*
X138155820Y-134710498D01*
X138113903Y-134732904D01*
X138072168Y-134523088D01*
X137948918Y-134225537D01*
X137769987Y-133957748D01*
X137542252Y-133730013D01*
X137274463Y-133551082D01*
X136976912Y-133427832D01*
X136661033Y-133365000D01*
X136338967Y-133365000D01*
X136023088Y-133427832D01*
X135725537Y-133551082D01*
X135457748Y-133730013D01*
X135410000Y-133777761D01*
X135410000Y-113598061D01*
X142215000Y-113598061D01*
X142215000Y-113801939D01*
X142254774Y-114001898D01*
X142332795Y-114190256D01*
X142446063Y-114359774D01*
X142590226Y-114503937D01*
X142759744Y-114617205D01*
X142948102Y-114695226D01*
X143148061Y-114735000D01*
X143351939Y-114735000D01*
X143551898Y-114695226D01*
X143740256Y-114617205D01*
X143909774Y-114503937D01*
X143953711Y-114460000D01*
X145362678Y-114460000D01*
X145400000Y-114463676D01*
X145437322Y-114460000D01*
X145437333Y-114460000D01*
X145548986Y-114449003D01*
X145692247Y-114405546D01*
X145824276Y-114334974D01*
X145940001Y-114240001D01*
X145963804Y-114210997D01*
X147811003Y-112363799D01*
X147840001Y-112340001D01*
X147934974Y-112224276D01*
X148005546Y-112092247D01*
X148049003Y-111948986D01*
X148060000Y-111837333D01*
X148060000Y-111837325D01*
X148063676Y-111800000D01*
X148060000Y-111762675D01*
X148060000Y-111618043D01*
X148214759Y-111514637D01*
X148414637Y-111314759D01*
X148571680Y-111079727D01*
X148679853Y-110818574D01*
X148735000Y-110541335D01*
X148735000Y-110258665D01*
X148679853Y-109981426D01*
X148571680Y-109720273D01*
X148414637Y-109485241D01*
X148214759Y-109285363D01*
X147979727Y-109128320D01*
X147718574Y-109020147D01*
X147441335Y-108965000D01*
X147158665Y-108965000D01*
X146881426Y-109020147D01*
X146620273Y-109128320D01*
X146385241Y-109285363D01*
X146185363Y-109485241D01*
X146167531Y-109511928D01*
X146141041Y-109511928D01*
X146105537Y-109445506D01*
X146026185Y-109348815D01*
X145929494Y-109269463D01*
X145819180Y-109210498D01*
X145699482Y-109174188D01*
X145575000Y-109161928D01*
X144375000Y-109161928D01*
X144250518Y-109174188D01*
X144130820Y-109210498D01*
X144020506Y-109269463D01*
X143923815Y-109348815D01*
X143844463Y-109445506D01*
X143785498Y-109555820D01*
X143749188Y-109675518D01*
X143736928Y-109800000D01*
X143736928Y-111000000D01*
X143749188Y-111124482D01*
X143785498Y-111244180D01*
X143844463Y-111354494D01*
X143923815Y-111451185D01*
X144020506Y-111530537D01*
X144130820Y-111589502D01*
X144250518Y-111625812D01*
X144375000Y-111638072D01*
X145575000Y-111638072D01*
X145699482Y-111625812D01*
X145819180Y-111589502D01*
X145929494Y-111530537D01*
X146026185Y-111451185D01*
X146105537Y-111354494D01*
X146141041Y-111288072D01*
X146167531Y-111288072D01*
X146185363Y-111314759D01*
X146385241Y-111514637D01*
X146460365Y-111564833D01*
X145085199Y-112940000D01*
X143953711Y-112940000D01*
X143909774Y-112896063D01*
X143740256Y-112782795D01*
X143551898Y-112704774D01*
X143351939Y-112665000D01*
X143148061Y-112665000D01*
X142948102Y-112704774D01*
X142759744Y-112782795D01*
X142590226Y-112896063D01*
X142446063Y-113040226D01*
X142332795Y-113209744D01*
X142254774Y-113398102D01*
X142215000Y-113598061D01*
X135410000Y-113598061D01*
X135410000Y-100800000D01*
X151161928Y-100800000D01*
X151174188Y-100924482D01*
X151210498Y-101044180D01*
X151269463Y-101154494D01*
X151348815Y-101251185D01*
X151445506Y-101330537D01*
X151555820Y-101389502D01*
X151675518Y-101425812D01*
X151800000Y-101438072D01*
X152364250Y-101435000D01*
X152523000Y-101276250D01*
X152523000Y-100427000D01*
X152777000Y-100427000D01*
X152777000Y-101276250D01*
X152935750Y-101435000D01*
X153500000Y-101438072D01*
X153624482Y-101425812D01*
X153744180Y-101389502D01*
X153854494Y-101330537D01*
X153951185Y-101251185D01*
X154030537Y-101154494D01*
X154089502Y-101044180D01*
X154125812Y-100924482D01*
X154138072Y-100800000D01*
X157461928Y-100800000D01*
X157474188Y-100924482D01*
X157510498Y-101044180D01*
X157569463Y-101154494D01*
X157648815Y-101251185D01*
X157745506Y-101330537D01*
X157855820Y-101389502D01*
X157975518Y-101425812D01*
X158100000Y-101438072D01*
X158664250Y-101435000D01*
X158823000Y-101276250D01*
X158823000Y-100427000D01*
X159077000Y-100427000D01*
X159077000Y-101276250D01*
X159235750Y-101435000D01*
X159800000Y-101438072D01*
X159924482Y-101425812D01*
X160044180Y-101389502D01*
X160154494Y-101330537D01*
X160251185Y-101251185D01*
X160330537Y-101154494D01*
X160389502Y-101044180D01*
X160425812Y-100924482D01*
X160438072Y-100800000D01*
X160435000Y-100585750D01*
X160276250Y-100427000D01*
X159077000Y-100427000D01*
X158823000Y-100427000D01*
X157623750Y-100427000D01*
X157465000Y-100585750D01*
X157461928Y-100800000D01*
X154138072Y-100800000D01*
X154135000Y-100585750D01*
X153976250Y-100427000D01*
X152777000Y-100427000D01*
X152523000Y-100427000D01*
X151323750Y-100427000D01*
X151165000Y-100585750D01*
X151161928Y-100800000D01*
X135410000Y-100800000D01*
X135410000Y-99800000D01*
X151161928Y-99800000D01*
X151165000Y-100014250D01*
X151323750Y-100173000D01*
X152523000Y-100173000D01*
X152523000Y-99323750D01*
X152777000Y-99323750D01*
X152777000Y-100173000D01*
X153976250Y-100173000D01*
X154135000Y-100014250D01*
X154138072Y-99800000D01*
X157461928Y-99800000D01*
X157465000Y-100014250D01*
X157623750Y-100173000D01*
X158823000Y-100173000D01*
X158823000Y-99323750D01*
X159077000Y-99323750D01*
X159077000Y-100173000D01*
X160276250Y-100173000D01*
X160435000Y-100014250D01*
X160438072Y-99800000D01*
X160425812Y-99675518D01*
X160389502Y-99555820D01*
X160330537Y-99445506D01*
X160251185Y-99348815D01*
X160154494Y-99269463D01*
X160044180Y-99210498D01*
X159924482Y-99174188D01*
X159800000Y-99161928D01*
X159235750Y-99165000D01*
X159077000Y-99323750D01*
X158823000Y-99323750D01*
X158664250Y-99165000D01*
X158100000Y-99161928D01*
X157975518Y-99174188D01*
X157855820Y-99210498D01*
X157745506Y-99269463D01*
X157648815Y-99348815D01*
X157569463Y-99445506D01*
X157510498Y-99555820D01*
X157474188Y-99675518D01*
X157461928Y-99800000D01*
X154138072Y-99800000D01*
X154125812Y-99675518D01*
X154089502Y-99555820D01*
X154030537Y-99445506D01*
X153951185Y-99348815D01*
X153854494Y-99269463D01*
X153744180Y-99210498D01*
X153624482Y-99174188D01*
X153500000Y-99161928D01*
X152935750Y-99165000D01*
X152777000Y-99323750D01*
X152523000Y-99323750D01*
X152364250Y-99165000D01*
X151800000Y-99161928D01*
X151675518Y-99174188D01*
X151555820Y-99210498D01*
X151445506Y-99269463D01*
X151348815Y-99348815D01*
X151269463Y-99445506D01*
X151210498Y-99555820D01*
X151174188Y-99675518D01*
X151161928Y-99800000D01*
X135410000Y-99800000D01*
X135410000Y-65066806D01*
X136951025Y-57532906D01*
X137051082Y-57774463D01*
X137230013Y-58042252D01*
X137457748Y-58269987D01*
X137725537Y-58448918D01*
X138023088Y-58572168D01*
X138338967Y-58635000D01*
X138661033Y-58635000D01*
X138976912Y-58572168D01*
X139274463Y-58448918D01*
X139542252Y-58269987D01*
X139769987Y-58042252D01*
X139896441Y-57853000D01*
X150045000Y-57853000D01*
X150045000Y-58403000D01*
X151053000Y-58403000D01*
X151053000Y-57012046D01*
X150878126Y-56885881D01*
X150655024Y-56965724D01*
X150467236Y-57087631D01*
X150306839Y-57243831D01*
X150179997Y-57428322D01*
X150091585Y-57634013D01*
X150045000Y-57853000D01*
X139896441Y-57853000D01*
X139948918Y-57774463D01*
X140072168Y-57476912D01*
X140135000Y-57161033D01*
X140135000Y-56838967D01*
X140072168Y-56523088D01*
X139948918Y-56225537D01*
X139769987Y-55957748D01*
X139542252Y-55730013D01*
X139274463Y-55551082D01*
X138976912Y-55427832D01*
X138661033Y-55365000D01*
X138338967Y-55365000D01*
X138023088Y-55427832D01*
X137725537Y-55551082D01*
X137457748Y-55730013D01*
X137284326Y-55903435D01*
X137538665Y-54660000D01*
X150045000Y-54660000D01*
X150045000Y-54777000D01*
X150091585Y-54995987D01*
X150179997Y-55201678D01*
X150306839Y-55386169D01*
X150467236Y-55542369D01*
X150655024Y-55664276D01*
X150878126Y-55744119D01*
X151053000Y-55617954D01*
X151053000Y-54477000D01*
X151307000Y-54477000D01*
X151307000Y-55617954D01*
X151481874Y-55744119D01*
X151704976Y-55664276D01*
X151892764Y-55542369D01*
X152053161Y-55386169D01*
X152180003Y-55201678D01*
X152268415Y-54995987D01*
X152315000Y-54777000D01*
X152315000Y-54477000D01*
X158685000Y-54477000D01*
X158685000Y-54777000D01*
X158731585Y-54995987D01*
X158819997Y-55201678D01*
X158946839Y-55386169D01*
X159107236Y-55542369D01*
X159295024Y-55664276D01*
X159518126Y-55744119D01*
X159693000Y-55617954D01*
X159693000Y-54477000D01*
X158685000Y-54477000D01*
X152315000Y-54477000D01*
X151307000Y-54477000D01*
X151053000Y-54477000D01*
X151033000Y-54477000D01*
X151033000Y-54223000D01*
X151053000Y-54223000D01*
X151053000Y-54203000D01*
X151307000Y-54203000D01*
X151307000Y-54223000D01*
X152315000Y-54223000D01*
X152315000Y-53923000D01*
X152268415Y-53704013D01*
X152249497Y-53660000D01*
X158750503Y-53660000D01*
X158731585Y-53704013D01*
G37*
%TD.AperFunction*%
D24*
X140061928Y-66649999D02*
X140061928Y-67350001D01*
X140078992Y-67523255D01*
X140129528Y-67689851D01*
X140211595Y-67843387D01*
X140278276Y-67924637D01*
X140248815Y-67948815D01*
X140169463Y-68045506D01*
X140110498Y-68155820D01*
X140074188Y-68275518D01*
X140061928Y-68400000D01*
X140065000Y-68714250D01*
X140223750Y-68873000D01*
X141273000Y-68873000D01*
X141273000Y-68853000D01*
X141527000Y-68853000D01*
X141527000Y-68873000D01*
X141547000Y-68873000D01*
X141547000Y-69127000D01*
X141527000Y-69127000D01*
X141527000Y-70076250D01*
X141665011Y-70214261D01*
X141665010Y-72360188D01*
X141563270Y-72461928D01*
X140949999Y-72461928D01*
X140776745Y-72478992D01*
X140610149Y-72529528D01*
X140456613Y-72611595D01*
X140322038Y-72722038D01*
X140211595Y-72856613D01*
X140129528Y-73010149D01*
X140078992Y-73176745D01*
X140061928Y-73349999D01*
X140061928Y-74050001D01*
X140078992Y-74223255D01*
X140129528Y-74389851D01*
X140211595Y-74543387D01*
X140322038Y-74677962D01*
X140348891Y-74700000D01*
X140322038Y-74722038D01*
X140211595Y-74856613D01*
X140129528Y-75010149D01*
X140078992Y-75176745D01*
X140061928Y-75349999D01*
X140061928Y-75963271D01*
X139863988Y-76161211D01*
X139834990Y-76185009D01*
X139811192Y-76214007D01*
X139811191Y-76214008D01*
X139740016Y-76300734D01*
X139669444Y-76432764D01*
X139657399Y-76472474D01*
X139625988Y-76576024D01*
X139621932Y-76617205D01*
X139611314Y-76725010D01*
X139614991Y-76762342D01*
X139614990Y-81850857D01*
X139611314Y-81888180D01*
X139614990Y-81925502D01*
X139614990Y-81925512D01*
X139625987Y-82037165D01*
X139658209Y-82143387D01*
X139669444Y-82180426D01*
X139740016Y-82312456D01*
X139779013Y-82359974D01*
X139834989Y-82428181D01*
X139863993Y-82451984D01*
X140148016Y-82736007D01*
X140171819Y-82765011D01*
X140287544Y-82859984D01*
X140419573Y-82930556D01*
X140562834Y-82974013D01*
X140711820Y-82988687D01*
X140749153Y-82985010D01*
X142050858Y-82985010D01*
X142088180Y-82988686D01*
X142125502Y-82985010D01*
X142125513Y-82985010D01*
X142237166Y-82974013D01*
X142380427Y-82930556D01*
X142512456Y-82859984D01*
X142628181Y-82765011D01*
X142632302Y-82759990D01*
X144737921Y-82759990D01*
X144740000Y-82964250D01*
X144898750Y-83123000D01*
X145973000Y-83123000D01*
X145973000Y-83103000D01*
X146227000Y-83103000D01*
X146227000Y-83123000D01*
X146247000Y-83123000D01*
X146247000Y-83377000D01*
X146227000Y-83377000D01*
X146227000Y-83397000D01*
X145973000Y-83397000D01*
X145973000Y-83377000D01*
X144898750Y-83377000D01*
X144740000Y-83535750D01*
X144736928Y-83837500D01*
X144749188Y-83961982D01*
X144785498Y-84081680D01*
X144844463Y-84191994D01*
X144923815Y-84288685D01*
X145003594Y-84354158D01*
X144997038Y-84359538D01*
X144886595Y-84494114D01*
X144848706Y-84565000D01*
X141139802Y-84565000D01*
X139360000Y-82785199D01*
X139360000Y-69600000D01*
X140061928Y-69600000D01*
X140074188Y-69724482D01*
X140110498Y-69844180D01*
X140169463Y-69954494D01*
X140248815Y-70051185D01*
X140345506Y-70130537D01*
X140455820Y-70189502D01*
X140575518Y-70225812D01*
X140700000Y-70238072D01*
X141114250Y-70235000D01*
X141273000Y-70076250D01*
X141273000Y-69127000D01*
X140223750Y-69127000D01*
X140065000Y-69285750D01*
X140061928Y-69600000D01*
X139360000Y-69600000D01*
X139360000Y-67341799D01*
X140063034Y-66638765D01*
X140061928Y-66649999D01*
%TA.AperFunction,Conductor*%
D25*
G36*
X140061928Y-66649999D02*
G01*
X140061928Y-67350001D01*
X140078992Y-67523255D01*
X140129528Y-67689851D01*
X140211595Y-67843387D01*
X140278276Y-67924637D01*
X140248815Y-67948815D01*
X140169463Y-68045506D01*
X140110498Y-68155820D01*
X140074188Y-68275518D01*
X140061928Y-68400000D01*
X140065000Y-68714250D01*
X140223750Y-68873000D01*
X141273000Y-68873000D01*
X141273000Y-68853000D01*
X141527000Y-68853000D01*
X141527000Y-68873000D01*
X141547000Y-68873000D01*
X141547000Y-69127000D01*
X141527000Y-69127000D01*
X141527000Y-70076250D01*
X141665011Y-70214261D01*
X141665010Y-72360188D01*
X141563270Y-72461928D01*
X140949999Y-72461928D01*
X140776745Y-72478992D01*
X140610149Y-72529528D01*
X140456613Y-72611595D01*
X140322038Y-72722038D01*
X140211595Y-72856613D01*
X140129528Y-73010149D01*
X140078992Y-73176745D01*
X140061928Y-73349999D01*
X140061928Y-74050001D01*
X140078992Y-74223255D01*
X140129528Y-74389851D01*
X140211595Y-74543387D01*
X140322038Y-74677962D01*
X140348891Y-74700000D01*
X140322038Y-74722038D01*
X140211595Y-74856613D01*
X140129528Y-75010149D01*
X140078992Y-75176745D01*
X140061928Y-75349999D01*
X140061928Y-75963271D01*
X139863988Y-76161211D01*
X139834990Y-76185009D01*
X139811192Y-76214007D01*
X139811191Y-76214008D01*
X139740016Y-76300734D01*
X139669444Y-76432764D01*
X139657399Y-76472474D01*
X139625988Y-76576024D01*
X139621932Y-76617205D01*
X139611314Y-76725010D01*
X139614991Y-76762342D01*
X139614990Y-81850857D01*
X139611314Y-81888180D01*
X139614990Y-81925502D01*
X139614990Y-81925512D01*
X139625987Y-82037165D01*
X139658209Y-82143387D01*
X139669444Y-82180426D01*
X139740016Y-82312456D01*
X139779013Y-82359974D01*
X139834989Y-82428181D01*
X139863993Y-82451984D01*
X140148016Y-82736007D01*
X140171819Y-82765011D01*
X140287544Y-82859984D01*
X140419573Y-82930556D01*
X140562834Y-82974013D01*
X140711820Y-82988687D01*
X140749153Y-82985010D01*
X142050858Y-82985010D01*
X142088180Y-82988686D01*
X142125502Y-82985010D01*
X142125513Y-82985010D01*
X142237166Y-82974013D01*
X142380427Y-82930556D01*
X142512456Y-82859984D01*
X142628181Y-82765011D01*
X142632302Y-82759990D01*
X144737921Y-82759990D01*
X144740000Y-82964250D01*
X144898750Y-83123000D01*
X145973000Y-83123000D01*
X145973000Y-83103000D01*
X146227000Y-83103000D01*
X146227000Y-83123000D01*
X146247000Y-83123000D01*
X146247000Y-83377000D01*
X146227000Y-83377000D01*
X146227000Y-83397000D01*
X145973000Y-83397000D01*
X145973000Y-83377000D01*
X144898750Y-83377000D01*
X144740000Y-83535750D01*
X144736928Y-83837500D01*
X144749188Y-83961982D01*
X144785498Y-84081680D01*
X144844463Y-84191994D01*
X144923815Y-84288685D01*
X145003594Y-84354158D01*
X144997038Y-84359538D01*
X144886595Y-84494114D01*
X144848706Y-84565000D01*
X141139802Y-84565000D01*
X139360000Y-82785199D01*
X139360000Y-69600000D01*
X140061928Y-69600000D01*
X140074188Y-69724482D01*
X140110498Y-69844180D01*
X140169463Y-69954494D01*
X140248815Y-70051185D01*
X140345506Y-70130537D01*
X140455820Y-70189502D01*
X140575518Y-70225812D01*
X140700000Y-70238072D01*
X141114250Y-70235000D01*
X141273000Y-70076250D01*
X141273000Y-69127000D01*
X140223750Y-69127000D01*
X140065000Y-69285750D01*
X140061928Y-69600000D01*
X139360000Y-69600000D01*
X139360000Y-67341799D01*
X140063034Y-66638765D01*
X140061928Y-66649999D01*
G37*
%TD.AperFunction*%
D24*
X159340001Y-80274805D02*
X159340000Y-83790019D01*
X159300000Y-83838759D01*
X159226185Y-83748815D01*
X159129494Y-83669463D01*
X159106333Y-83657083D01*
X159014250Y-83565000D01*
X158900663Y-83574546D01*
X158899482Y-83574188D01*
X158775000Y-83561928D01*
X158225000Y-83561928D01*
X158100518Y-83574188D01*
X158100000Y-83574345D01*
X158099482Y-83574188D01*
X157975000Y-83561928D01*
X157425000Y-83561928D01*
X157300518Y-83574188D01*
X157300000Y-83574345D01*
X157299482Y-83574188D01*
X157175000Y-83561928D01*
X156625000Y-83561928D01*
X156500518Y-83574188D01*
X156500000Y-83574345D01*
X156499482Y-83574188D01*
X156375000Y-83561928D01*
X155825000Y-83561928D01*
X155700518Y-83574188D01*
X155700000Y-83574345D01*
X155699482Y-83574188D01*
X155575000Y-83561928D01*
X155025000Y-83561928D01*
X154900518Y-83574188D01*
X154900000Y-83574345D01*
X154899482Y-83574188D01*
X154775000Y-83561928D01*
X154225000Y-83561928D01*
X154100518Y-83574188D01*
X154100000Y-83574345D01*
X154099482Y-83574188D01*
X153975000Y-83561928D01*
X153425000Y-83561928D01*
X153300518Y-83574188D01*
X153299337Y-83574546D01*
X153185750Y-83565000D01*
X153093667Y-83657083D01*
X153070506Y-83669463D01*
X152973815Y-83748815D01*
X152900000Y-83838759D01*
X152860000Y-83790019D01*
X152860000Y-82064801D01*
X153861004Y-81063798D01*
X153890001Y-81040001D01*
X153984974Y-80924276D01*
X154055546Y-80792247D01*
X154099003Y-80648986D01*
X154110000Y-80537333D01*
X154110000Y-80537332D01*
X154113677Y-80500000D01*
X154110000Y-80462667D01*
X154110000Y-79210000D01*
X158275197Y-79210000D01*
X159340001Y-80274805D01*
%TA.AperFunction,Conductor*%
D25*
G36*
X159340001Y-80274805D02*
G01*
X159340000Y-83790019D01*
X159300000Y-83838759D01*
X159226185Y-83748815D01*
X159129494Y-83669463D01*
X159106333Y-83657083D01*
X159014250Y-83565000D01*
X158900663Y-83574546D01*
X158899482Y-83574188D01*
X158775000Y-83561928D01*
X158225000Y-83561928D01*
X158100518Y-83574188D01*
X158100000Y-83574345D01*
X158099482Y-83574188D01*
X157975000Y-83561928D01*
X157425000Y-83561928D01*
X157300518Y-83574188D01*
X157300000Y-83574345D01*
X157299482Y-83574188D01*
X157175000Y-83561928D01*
X156625000Y-83561928D01*
X156500518Y-83574188D01*
X156500000Y-83574345D01*
X156499482Y-83574188D01*
X156375000Y-83561928D01*
X155825000Y-83561928D01*
X155700518Y-83574188D01*
X155700000Y-83574345D01*
X155699482Y-83574188D01*
X155575000Y-83561928D01*
X155025000Y-83561928D01*
X154900518Y-83574188D01*
X154900000Y-83574345D01*
X154899482Y-83574188D01*
X154775000Y-83561928D01*
X154225000Y-83561928D01*
X154100518Y-83574188D01*
X154100000Y-83574345D01*
X154099482Y-83574188D01*
X153975000Y-83561928D01*
X153425000Y-83561928D01*
X153300518Y-83574188D01*
X153299337Y-83574546D01*
X153185750Y-83565000D01*
X153093667Y-83657083D01*
X153070506Y-83669463D01*
X152973815Y-83748815D01*
X152900000Y-83838759D01*
X152860000Y-83790019D01*
X152860000Y-82064801D01*
X153861004Y-81063798D01*
X153890001Y-81040001D01*
X153984974Y-80924276D01*
X154055546Y-80792247D01*
X154099003Y-80648986D01*
X154110000Y-80537333D01*
X154110000Y-80537332D01*
X154113677Y-80500000D01*
X154110000Y-80462667D01*
X154110000Y-79210000D01*
X158275197Y-79210000D01*
X159340001Y-80274805D01*
G37*
%TD.AperFunction*%
D24*
X152590000Y-80185198D02*
X151788072Y-80987127D01*
X151788072Y-80575000D01*
X151775812Y-80450518D01*
X151775454Y-80449337D01*
X151785000Y-80335750D01*
X151692917Y-80243667D01*
X151680537Y-80220506D01*
X151601185Y-80123815D01*
X151511241Y-80050000D01*
X151601185Y-79976185D01*
X151680537Y-79879494D01*
X151692917Y-79856333D01*
X151785000Y-79764250D01*
X151775454Y-79650663D01*
X151775812Y-79649482D01*
X151788072Y-79525000D01*
X151788072Y-79210000D01*
X152590001Y-79210000D01*
X152590000Y-80185198D01*
%TA.AperFunction,Conductor*%
D25*
G36*
X152590000Y-80185198D02*
G01*
X151788072Y-80987127D01*
X151788072Y-80575000D01*
X151775812Y-80450518D01*
X151775454Y-80449337D01*
X151785000Y-80335750D01*
X151692917Y-80243667D01*
X151680537Y-80220506D01*
X151601185Y-80123815D01*
X151511241Y-80050000D01*
X151601185Y-79976185D01*
X151680537Y-79879494D01*
X151692917Y-79856333D01*
X151785000Y-79764250D01*
X151775454Y-79650663D01*
X151775812Y-79649482D01*
X151788072Y-79525000D01*
X151788072Y-79210000D01*
X152590001Y-79210000D01*
X152590000Y-80185198D01*
G37*
%TD.AperFunction*%
D24*
X145451746Y-76458508D02*
X145625000Y-76475572D01*
X145663271Y-76475572D01*
X146020198Y-76832499D01*
X145972998Y-76832499D01*
X145972998Y-76991247D01*
X145814250Y-76832499D01*
X145375000Y-76829427D01*
X145250518Y-76841687D01*
X145130820Y-76877997D01*
X145020506Y-76936962D01*
X144923815Y-77016314D01*
X144844463Y-77113005D01*
X144785498Y-77223319D01*
X144749188Y-77343017D01*
X144736928Y-77467499D01*
X144740000Y-77769249D01*
X144898750Y-77927999D01*
X145973000Y-77927999D01*
X145973000Y-77907999D01*
X146227000Y-77907999D01*
X146227000Y-77927999D01*
X146247000Y-77927999D01*
X146247000Y-78181999D01*
X146227000Y-78181999D01*
X146227000Y-78201999D01*
X145973000Y-78201999D01*
X145973000Y-78181999D01*
X144898750Y-78181999D01*
X144740000Y-78340749D01*
X144736928Y-78642499D01*
X144749188Y-78766981D01*
X144785498Y-78886679D01*
X144844463Y-78996993D01*
X144923815Y-79093684D01*
X145003594Y-79159157D01*
X144997038Y-79164537D01*
X144886595Y-79299113D01*
X144804528Y-79452649D01*
X144753992Y-79619245D01*
X144736928Y-79792499D01*
X144736928Y-80467499D01*
X144744069Y-80540000D01*
X142632976Y-80540000D01*
X142588405Y-80456613D01*
X142477962Y-80322038D01*
X142451109Y-80300000D01*
X142477962Y-80277962D01*
X142588405Y-80143387D01*
X142670472Y-79989851D01*
X142721008Y-79823255D01*
X142738072Y-79650001D01*
X142738072Y-79036729D01*
X145310994Y-76463808D01*
X145339991Y-76440011D01*
X145350112Y-76427678D01*
X145451746Y-76458508D01*
%TA.AperFunction,Conductor*%
D25*
G36*
X145451746Y-76458508D02*
G01*
X145625000Y-76475572D01*
X145663271Y-76475572D01*
X146020198Y-76832499D01*
X145972998Y-76832499D01*
X145972998Y-76991247D01*
X145814250Y-76832499D01*
X145375000Y-76829427D01*
X145250518Y-76841687D01*
X145130820Y-76877997D01*
X145020506Y-76936962D01*
X144923815Y-77016314D01*
X144844463Y-77113005D01*
X144785498Y-77223319D01*
X144749188Y-77343017D01*
X144736928Y-77467499D01*
X144740000Y-77769249D01*
X144898750Y-77927999D01*
X145973000Y-77927999D01*
X145973000Y-77907999D01*
X146227000Y-77907999D01*
X146227000Y-77927999D01*
X146247000Y-77927999D01*
X146247000Y-78181999D01*
X146227000Y-78181999D01*
X146227000Y-78201999D01*
X145973000Y-78201999D01*
X145973000Y-78181999D01*
X144898750Y-78181999D01*
X144740000Y-78340749D01*
X144736928Y-78642499D01*
X144749188Y-78766981D01*
X144785498Y-78886679D01*
X144844463Y-78996993D01*
X144923815Y-79093684D01*
X145003594Y-79159157D01*
X144997038Y-79164537D01*
X144886595Y-79299113D01*
X144804528Y-79452649D01*
X144753992Y-79619245D01*
X144736928Y-79792499D01*
X144736928Y-80467499D01*
X144744069Y-80540000D01*
X142632976Y-80540000D01*
X142588405Y-80456613D01*
X142477962Y-80322038D01*
X142451109Y-80300000D01*
X142477962Y-80277962D01*
X142588405Y-80143387D01*
X142670472Y-79989851D01*
X142721008Y-79823255D01*
X142738072Y-79650001D01*
X142738072Y-79036729D01*
X145310994Y-76463808D01*
X145339991Y-76440011D01*
X145350112Y-76427678D01*
X145451746Y-76458508D01*
G37*
%TD.AperFunction*%
D24*
X149288759Y-80050000D02*
X149212315Y-80112736D01*
X149107753Y-80144454D01*
X148975723Y-80215026D01*
X148933146Y-80249969D01*
X148859999Y-80309999D01*
X148836196Y-80339003D01*
X148635199Y-80540000D01*
X147455931Y-80540000D01*
X147463072Y-80467499D01*
X147463072Y-80010000D01*
X149240019Y-80010000D01*
X149288759Y-80050000D01*
%TA.AperFunction,Conductor*%
D25*
G36*
X149288759Y-80050000D02*
G01*
X149212315Y-80112736D01*
X149107753Y-80144454D01*
X148975723Y-80215026D01*
X148933146Y-80249969D01*
X148859999Y-80309999D01*
X148836196Y-80339003D01*
X148635199Y-80540000D01*
X147455931Y-80540000D01*
X147463072Y-80467499D01*
X147463072Y-80010000D01*
X149240019Y-80010000D01*
X149288759Y-80050000D01*
G37*
%TD.AperFunction*%
D24*
X147677698Y-78490000D02*
X147461519Y-78490000D01*
X147460000Y-78340749D01*
X147301252Y-78182001D01*
X147369699Y-78182001D01*
X147677698Y-78490000D01*
%TA.AperFunction,Conductor*%
D25*
G36*
X147677698Y-78490000D02*
G01*
X147461519Y-78490000D01*
X147460000Y-78340749D01*
X147301252Y-78182001D01*
X147369699Y-78182001D01*
X147677698Y-78490000D01*
G37*
%TD.AperFunction*%
D24*
X148686199Y-72986001D02*
X148709998Y-73015000D01*
X148825723Y-73109973D01*
X148957752Y-73180545D01*
X149101013Y-73224002D01*
X149212666Y-73234999D01*
X149212674Y-73234999D01*
X149249999Y-73238675D01*
X149287324Y-73234999D01*
X151186928Y-73234999D01*
X151186928Y-74300000D01*
X151190962Y-74340962D01*
X151150000Y-74336928D01*
X149650000Y-74336928D01*
X149525518Y-74349188D01*
X149405820Y-74385498D01*
X149295506Y-74444463D01*
X149198815Y-74523815D01*
X149119463Y-74620506D01*
X149060498Y-74730820D01*
X149024188Y-74850518D01*
X149011928Y-74975000D01*
X149011928Y-75525000D01*
X149024188Y-75649482D01*
X149024345Y-75650000D01*
X149024188Y-75650518D01*
X149011928Y-75775000D01*
X149011928Y-76325000D01*
X149024188Y-76449482D01*
X149024345Y-76450000D01*
X149024188Y-76450518D01*
X149011928Y-76575000D01*
X149011928Y-77125000D01*
X149024188Y-77249482D01*
X149024345Y-77250000D01*
X149024188Y-77250518D01*
X149011928Y-77375000D01*
X149011928Y-77674626D01*
X147349904Y-76012602D01*
X147395472Y-75927350D01*
X147446008Y-75760754D01*
X147463072Y-75587500D01*
X147463072Y-74912500D01*
X147446008Y-74739246D01*
X147395472Y-74572650D01*
X147313405Y-74419114D01*
X147202962Y-74284538D01*
X147196406Y-74279158D01*
X147276185Y-74213685D01*
X147355537Y-74116994D01*
X147414502Y-74006680D01*
X147450812Y-73886982D01*
X147463072Y-73762500D01*
X147460000Y-73460750D01*
X147301250Y-73302000D01*
X146227000Y-73302000D01*
X146227000Y-73322000D01*
X145973000Y-73322000D01*
X145973000Y-73302000D01*
X145953000Y-73302000D01*
X145953000Y-73048000D01*
X145973000Y-73048000D01*
X145973000Y-72111250D01*
X146227000Y-72111250D01*
X146227000Y-73048000D01*
X147301250Y-73048000D01*
X147460000Y-72889250D01*
X147463072Y-72587500D01*
X147450812Y-72463018D01*
X147414502Y-72343320D01*
X147355537Y-72233006D01*
X147276185Y-72136315D01*
X147179494Y-72056963D01*
X147069180Y-71997998D01*
X146949482Y-71961688D01*
X146825000Y-71949428D01*
X146385750Y-71952500D01*
X146227000Y-72111250D01*
X145973000Y-72111250D01*
X145814250Y-71952500D01*
X145559990Y-71950722D01*
X145559990Y-70300572D01*
X146000771Y-70300572D01*
X148686199Y-72986001D01*
%TA.AperFunction,Conductor*%
D25*
G36*
X148686199Y-72986001D02*
G01*
X148709998Y-73015000D01*
X148825723Y-73109973D01*
X148957752Y-73180545D01*
X149101013Y-73224002D01*
X149212666Y-73234999D01*
X149212674Y-73234999D01*
X149249999Y-73238675D01*
X149287324Y-73234999D01*
X151186928Y-73234999D01*
X151186928Y-74300000D01*
X151190962Y-74340962D01*
X151150000Y-74336928D01*
X149650000Y-74336928D01*
X149525518Y-74349188D01*
X149405820Y-74385498D01*
X149295506Y-74444463D01*
X149198815Y-74523815D01*
X149119463Y-74620506D01*
X149060498Y-74730820D01*
X149024188Y-74850518D01*
X149011928Y-74975000D01*
X149011928Y-75525000D01*
X149024188Y-75649482D01*
X149024345Y-75650000D01*
X149024188Y-75650518D01*
X149011928Y-75775000D01*
X149011928Y-76325000D01*
X149024188Y-76449482D01*
X149024345Y-76450000D01*
X149024188Y-76450518D01*
X149011928Y-76575000D01*
X149011928Y-77125000D01*
X149024188Y-77249482D01*
X149024345Y-77250000D01*
X149024188Y-77250518D01*
X149011928Y-77375000D01*
X149011928Y-77674626D01*
X147349904Y-76012602D01*
X147395472Y-75927350D01*
X147446008Y-75760754D01*
X147463072Y-75587500D01*
X147463072Y-74912500D01*
X147446008Y-74739246D01*
X147395472Y-74572650D01*
X147313405Y-74419114D01*
X147202962Y-74284538D01*
X147196406Y-74279158D01*
X147276185Y-74213685D01*
X147355537Y-74116994D01*
X147414502Y-74006680D01*
X147450812Y-73886982D01*
X147463072Y-73762500D01*
X147460000Y-73460750D01*
X147301250Y-73302000D01*
X146227000Y-73302000D01*
X146227000Y-73322000D01*
X145973000Y-73322000D01*
X145973000Y-73302000D01*
X145953000Y-73302000D01*
X145953000Y-73048000D01*
X145973000Y-73048000D01*
X145973000Y-72111250D01*
X146227000Y-72111250D01*
X146227000Y-73048000D01*
X147301250Y-73048000D01*
X147460000Y-72889250D01*
X147463072Y-72587500D01*
X147450812Y-72463018D01*
X147414502Y-72343320D01*
X147355537Y-72233006D01*
X147276185Y-72136315D01*
X147179494Y-72056963D01*
X147069180Y-71997998D01*
X146949482Y-71961688D01*
X146825000Y-71949428D01*
X146385750Y-71952500D01*
X146227000Y-72111250D01*
X145973000Y-72111250D01*
X145814250Y-71952500D01*
X145559990Y-71950722D01*
X145559990Y-70300572D01*
X146000771Y-70300572D01*
X148686199Y-72986001D01*
G37*
%TD.AperFunction*%
D24*
X161308407Y-65488211D02*
X161125000Y-65486928D01*
X161000518Y-65499188D01*
X160880820Y-65535498D01*
X160770506Y-65594463D01*
X160673815Y-65673815D01*
X160594463Y-65770506D01*
X160535498Y-65880820D01*
X160499188Y-66000518D01*
X160486928Y-66125000D01*
X160490000Y-66426750D01*
X160648750Y-66585500D01*
X161723000Y-66585500D01*
X161723000Y-66565500D01*
X161977000Y-66565500D01*
X161977000Y-66585500D01*
X161997000Y-66585500D01*
X161997000Y-66839500D01*
X161977000Y-66839500D01*
X161977000Y-66859500D01*
X161723000Y-66859500D01*
X161723000Y-66839500D01*
X160648750Y-66839500D01*
X160553885Y-66934365D01*
X158929376Y-66934365D01*
X158283597Y-66288586D01*
X158186906Y-66209234D01*
X158076592Y-66150269D01*
X158070276Y-66148353D01*
X158068360Y-66142038D01*
X158009396Y-66031723D01*
X157930043Y-65935032D01*
X157705662Y-65714996D01*
X157481156Y-65714996D01*
X156739224Y-66456928D01*
X156753367Y-66471071D01*
X156573762Y-66650676D01*
X156559619Y-66636533D01*
X156545477Y-66650676D01*
X156365872Y-66471071D01*
X156380014Y-66456928D01*
X155708793Y-65785707D01*
X155484286Y-65785707D01*
X155189195Y-66076454D01*
X155109842Y-66173145D01*
X155050878Y-66283459D01*
X155014569Y-66403157D01*
X155002308Y-66527639D01*
X155009850Y-66604215D01*
X154933274Y-66596673D01*
X154808792Y-66608933D01*
X154689094Y-66645243D01*
X154578780Y-66704208D01*
X154482089Y-66783560D01*
X153907020Y-67358629D01*
X152211505Y-67358629D01*
X152210000Y-67210750D01*
X152051250Y-67052000D01*
X150977000Y-67052000D01*
X150977000Y-67072000D01*
X150723000Y-67072000D01*
X150723000Y-67052000D01*
X149648750Y-67052000D01*
X149490000Y-67210750D01*
X149486928Y-67512500D01*
X149499188Y-67636982D01*
X149535498Y-67756680D01*
X149594463Y-67866994D01*
X149673815Y-67963685D01*
X149753594Y-68029158D01*
X149747038Y-68034538D01*
X149636595Y-68169114D01*
X149554528Y-68322650D01*
X149503992Y-68489246D01*
X149486928Y-68662500D01*
X149486928Y-69337500D01*
X149503992Y-69510754D01*
X149554528Y-69677350D01*
X149636595Y-69830886D01*
X149747038Y-69965462D01*
X149881614Y-70075905D01*
X150035150Y-70157972D01*
X150201746Y-70208508D01*
X150375000Y-70225572D01*
X151325000Y-70225572D01*
X151498254Y-70208508D01*
X151664850Y-70157972D01*
X151818386Y-70075905D01*
X151952962Y-69965462D01*
X152063405Y-69830886D01*
X152145472Y-69677350D01*
X152196008Y-69510754D01*
X152213072Y-69337500D01*
X152213072Y-68878629D01*
X153694888Y-68878629D01*
X154060396Y-69244137D01*
X154060397Y-72025594D01*
X153998805Y-71964002D01*
X153975002Y-71934998D01*
X153859277Y-71840025D01*
X153727248Y-71769453D01*
X153583987Y-71725996D01*
X153472334Y-71714999D01*
X153472323Y-71714999D01*
X153435001Y-71711323D01*
X153397679Y-71714999D01*
X149564801Y-71714999D01*
X147213072Y-69363271D01*
X147213072Y-68737500D01*
X147196008Y-68564246D01*
X147145472Y-68397650D01*
X147063405Y-68244114D01*
X146952962Y-68109538D01*
X146946406Y-68104158D01*
X147026185Y-68038685D01*
X147105537Y-67941994D01*
X147164502Y-67831680D01*
X147200812Y-67711982D01*
X147213072Y-67587500D01*
X147210000Y-67285750D01*
X147051250Y-67127000D01*
X145977000Y-67127000D01*
X145977000Y-67147000D01*
X145723000Y-67147000D01*
X145723000Y-67127000D01*
X145703000Y-67127000D01*
X145703000Y-66873000D01*
X145723000Y-66873000D01*
X145723000Y-66853000D01*
X145977000Y-66853000D01*
X145977000Y-66873000D01*
X147051250Y-66873000D01*
X147210000Y-66714250D01*
X147213072Y-66412500D01*
X147205686Y-66337500D01*
X149486928Y-66337500D01*
X149490000Y-66639250D01*
X149648750Y-66798000D01*
X150723000Y-66798000D01*
X150723000Y-65861250D01*
X150977000Y-65861250D01*
X150977000Y-66798000D01*
X152051250Y-66798000D01*
X152210000Y-66639250D01*
X152213072Y-66337500D01*
X152200812Y-66213018D01*
X152164502Y-66093320D01*
X152105537Y-65983006D01*
X152026185Y-65886315D01*
X151929494Y-65806963D01*
X151819180Y-65747998D01*
X151699482Y-65711688D01*
X151575000Y-65699428D01*
X151135750Y-65702500D01*
X150977000Y-65861250D01*
X150723000Y-65861250D01*
X150564250Y-65702500D01*
X150125000Y-65699428D01*
X150000518Y-65711688D01*
X149880820Y-65747998D01*
X149770506Y-65806963D01*
X149673815Y-65886315D01*
X149594463Y-65983006D01*
X149535498Y-66093320D01*
X149499188Y-66213018D01*
X149486928Y-66337500D01*
X147205686Y-66337500D01*
X147200812Y-66288018D01*
X147164502Y-66168320D01*
X147105537Y-66058006D01*
X147026185Y-65961315D01*
X146929494Y-65881963D01*
X146819180Y-65822998D01*
X146699482Y-65786688D01*
X146575000Y-65774428D01*
X146524329Y-65774782D01*
X146917516Y-65381595D01*
X155888398Y-65381595D01*
X155888398Y-65606102D01*
X156559619Y-66277323D01*
X157301551Y-65535391D01*
X157301551Y-65310885D01*
X157081515Y-65086504D01*
X156984824Y-65007151D01*
X156874509Y-64948187D01*
X156754811Y-64911878D01*
X156630330Y-64899617D01*
X156505848Y-64911878D01*
X156386150Y-64948187D01*
X156275836Y-65007151D01*
X156179145Y-65086504D01*
X155888398Y-65381595D01*
X146917516Y-65381595D01*
X146939112Y-65360000D01*
X152017680Y-65360000D01*
X152055002Y-65363676D01*
X152092324Y-65360000D01*
X152092335Y-65360000D01*
X152203988Y-65349003D01*
X152347249Y-65305546D01*
X152479278Y-65234974D01*
X152595003Y-65140001D01*
X152618806Y-65110997D01*
X156671004Y-61058800D01*
X156700002Y-61035002D01*
X156723800Y-61006004D01*
X156761004Y-60968800D01*
X156776379Y-60956182D01*
X161308407Y-65488211D01*
%TA.AperFunction,Conductor*%
D25*
G36*
X161308407Y-65488211D02*
G01*
X161125000Y-65486928D01*
X161000518Y-65499188D01*
X160880820Y-65535498D01*
X160770506Y-65594463D01*
X160673815Y-65673815D01*
X160594463Y-65770506D01*
X160535498Y-65880820D01*
X160499188Y-66000518D01*
X160486928Y-66125000D01*
X160490000Y-66426750D01*
X160648750Y-66585500D01*
X161723000Y-66585500D01*
X161723000Y-66565500D01*
X161977000Y-66565500D01*
X161977000Y-66585500D01*
X161997000Y-66585500D01*
X161997000Y-66839500D01*
X161977000Y-66839500D01*
X161977000Y-66859500D01*
X161723000Y-66859500D01*
X161723000Y-66839500D01*
X160648750Y-66839500D01*
X160553885Y-66934365D01*
X158929376Y-66934365D01*
X158283597Y-66288586D01*
X158186906Y-66209234D01*
X158076592Y-66150269D01*
X158070276Y-66148353D01*
X158068360Y-66142038D01*
X158009396Y-66031723D01*
X157930043Y-65935032D01*
X157705662Y-65714996D01*
X157481156Y-65714996D01*
X156739224Y-66456928D01*
X156753367Y-66471071D01*
X156573762Y-66650676D01*
X156559619Y-66636533D01*
X156545477Y-66650676D01*
X156365872Y-66471071D01*
X156380014Y-66456928D01*
X155708793Y-65785707D01*
X155484286Y-65785707D01*
X155189195Y-66076454D01*
X155109842Y-66173145D01*
X155050878Y-66283459D01*
X155014569Y-66403157D01*
X155002308Y-66527639D01*
X155009850Y-66604215D01*
X154933274Y-66596673D01*
X154808792Y-66608933D01*
X154689094Y-66645243D01*
X154578780Y-66704208D01*
X154482089Y-66783560D01*
X153907020Y-67358629D01*
X152211505Y-67358629D01*
X152210000Y-67210750D01*
X152051250Y-67052000D01*
X150977000Y-67052000D01*
X150977000Y-67072000D01*
X150723000Y-67072000D01*
X150723000Y-67052000D01*
X149648750Y-67052000D01*
X149490000Y-67210750D01*
X149486928Y-67512500D01*
X149499188Y-67636982D01*
X149535498Y-67756680D01*
X149594463Y-67866994D01*
X149673815Y-67963685D01*
X149753594Y-68029158D01*
X149747038Y-68034538D01*
X149636595Y-68169114D01*
X149554528Y-68322650D01*
X149503992Y-68489246D01*
X149486928Y-68662500D01*
X149486928Y-69337500D01*
X149503992Y-69510754D01*
X149554528Y-69677350D01*
X149636595Y-69830886D01*
X149747038Y-69965462D01*
X149881614Y-70075905D01*
X150035150Y-70157972D01*
X150201746Y-70208508D01*
X150375000Y-70225572D01*
X151325000Y-70225572D01*
X151498254Y-70208508D01*
X151664850Y-70157972D01*
X151818386Y-70075905D01*
X151952962Y-69965462D01*
X152063405Y-69830886D01*
X152145472Y-69677350D01*
X152196008Y-69510754D01*
X152213072Y-69337500D01*
X152213072Y-68878629D01*
X153694888Y-68878629D01*
X154060396Y-69244137D01*
X154060397Y-72025594D01*
X153998805Y-71964002D01*
X153975002Y-71934998D01*
X153859277Y-71840025D01*
X153727248Y-71769453D01*
X153583987Y-71725996D01*
X153472334Y-71714999D01*
X153472323Y-71714999D01*
X153435001Y-71711323D01*
X153397679Y-71714999D01*
X149564801Y-71714999D01*
X147213072Y-69363271D01*
X147213072Y-68737500D01*
X147196008Y-68564246D01*
X147145472Y-68397650D01*
X147063405Y-68244114D01*
X146952962Y-68109538D01*
X146946406Y-68104158D01*
X147026185Y-68038685D01*
X147105537Y-67941994D01*
X147164502Y-67831680D01*
X147200812Y-67711982D01*
X147213072Y-67587500D01*
X147210000Y-67285750D01*
X147051250Y-67127000D01*
X145977000Y-67127000D01*
X145977000Y-67147000D01*
X145723000Y-67147000D01*
X145723000Y-67127000D01*
X145703000Y-67127000D01*
X145703000Y-66873000D01*
X145723000Y-66873000D01*
X145723000Y-66853000D01*
X145977000Y-66853000D01*
X145977000Y-66873000D01*
X147051250Y-66873000D01*
X147210000Y-66714250D01*
X147213072Y-66412500D01*
X147205686Y-66337500D01*
X149486928Y-66337500D01*
X149490000Y-66639250D01*
X149648750Y-66798000D01*
X150723000Y-66798000D01*
X150723000Y-65861250D01*
X150977000Y-65861250D01*
X150977000Y-66798000D01*
X152051250Y-66798000D01*
X152210000Y-66639250D01*
X152213072Y-66337500D01*
X152200812Y-66213018D01*
X152164502Y-66093320D01*
X152105537Y-65983006D01*
X152026185Y-65886315D01*
X151929494Y-65806963D01*
X151819180Y-65747998D01*
X151699482Y-65711688D01*
X151575000Y-65699428D01*
X151135750Y-65702500D01*
X150977000Y-65861250D01*
X150723000Y-65861250D01*
X150564250Y-65702500D01*
X150125000Y-65699428D01*
X150000518Y-65711688D01*
X149880820Y-65747998D01*
X149770506Y-65806963D01*
X149673815Y-65886315D01*
X149594463Y-65983006D01*
X149535498Y-66093320D01*
X149499188Y-66213018D01*
X149486928Y-66337500D01*
X147205686Y-66337500D01*
X147200812Y-66288018D01*
X147164502Y-66168320D01*
X147105537Y-66058006D01*
X147026185Y-65961315D01*
X146929494Y-65881963D01*
X146819180Y-65822998D01*
X146699482Y-65786688D01*
X146575000Y-65774428D01*
X146524329Y-65774782D01*
X146917516Y-65381595D01*
X155888398Y-65381595D01*
X155888398Y-65606102D01*
X156559619Y-66277323D01*
X157301551Y-65535391D01*
X157301551Y-65310885D01*
X157081515Y-65086504D01*
X156984824Y-65007151D01*
X156874509Y-64948187D01*
X156754811Y-64911878D01*
X156630330Y-64899617D01*
X156505848Y-64911878D01*
X156386150Y-64948187D01*
X156275836Y-65007151D01*
X156179145Y-65086504D01*
X155888398Y-65381595D01*
X146917516Y-65381595D01*
X146939112Y-65360000D01*
X152017680Y-65360000D01*
X152055002Y-65363676D01*
X152092324Y-65360000D01*
X152092335Y-65360000D01*
X152203988Y-65349003D01*
X152347249Y-65305546D01*
X152479278Y-65234974D01*
X152595003Y-65140001D01*
X152618806Y-65110997D01*
X156671004Y-61058800D01*
X156700002Y-61035002D01*
X156723800Y-61006004D01*
X156761004Y-60968800D01*
X156776379Y-60956182D01*
X161308407Y-65488211D01*
G37*
%TD.AperFunction*%
D24*
X156258393Y-69341924D02*
X156244250Y-69356066D01*
X156258393Y-69370209D01*
X156078788Y-69549814D01*
X156064645Y-69535671D01*
X156050503Y-69549814D01*
X155870898Y-69370209D01*
X155885040Y-69356066D01*
X155870898Y-69341924D01*
X156050503Y-69162319D01*
X156064645Y-69176461D01*
X156078788Y-69162319D01*
X156258393Y-69341924D01*
%TA.AperFunction,Conductor*%
D25*
G36*
X156258393Y-69341924D02*
G01*
X156244250Y-69356066D01*
X156258393Y-69370209D01*
X156078788Y-69549814D01*
X156064645Y-69535671D01*
X156050503Y-69549814D01*
X155870898Y-69370209D01*
X155885040Y-69356066D01*
X155870898Y-69341924D01*
X156050503Y-69162319D01*
X156064645Y-69176461D01*
X156078788Y-69162319D01*
X156258393Y-69341924D01*
G37*
%TD.AperFunction*%
D24*
X151090191Y-62490010D02*
X145187315Y-62490010D01*
X145149990Y-62486334D01*
X145112665Y-62490010D01*
X145112657Y-62490010D01*
X145001004Y-62501007D01*
X144857743Y-62544464D01*
X144725714Y-62615036D01*
X144609989Y-62710009D01*
X144586191Y-62739007D01*
X141563271Y-65761928D01*
X140949999Y-65761928D01*
X140938765Y-65763034D01*
X145446799Y-61255001D01*
X152325199Y-61255001D01*
X151090191Y-62490010D01*
%TA.AperFunction,Conductor*%
D25*
G36*
X151090191Y-62490010D02*
G01*
X145187315Y-62490010D01*
X145149990Y-62486334D01*
X145112665Y-62490010D01*
X145112657Y-62490010D01*
X145001004Y-62501007D01*
X144857743Y-62544464D01*
X144725714Y-62615036D01*
X144609989Y-62710009D01*
X144586191Y-62739007D01*
X141563271Y-65761928D01*
X140949999Y-65761928D01*
X140938765Y-65763034D01*
X145446799Y-61255001D01*
X152325199Y-61255001D01*
X151090191Y-62490010D01*
G37*
%TD.AperFunction*%
%TD*%
M02*
